<svg width="223" height="208" viewBox="0 0 223 208" fill="none" xmlns="http://www.w3.org/2000/svg">
<g filter="url(#filter0_d_550_145)">
<path d="M212.029 0L13.9005 11.1078L24.037 191.912L221.905 176.156C221.905 176.156 213.869 123.055 211.927 88.6058C209.984 54.1569 212.029 0 212.029 0Z" fill="#D5D5D5"/>
<path d="M14.4272 11.5791L24.507 191.372L221.332 175.699C221.328 175.675 221.324 175.65 221.32 175.624C221.26 175.227 221.173 174.639 221.062 173.879C220.838 172.359 220.516 170.15 220.124 167.39C219.34 161.872 218.275 154.156 217.149 145.362C214.897 127.779 212.399 105.877 211.427 88.6336C210.455 71.3905 210.481 49.2241 210.749 31.3767C210.884 22.4514 211.079 14.6031 211.24 8.986C211.321 6.17737 211.393 3.92609 211.446 2.37722C211.472 1.60292 211.493 1.00387 211.507 0.598517C211.508 0.57501 211.509 0.552139 211.509 0.529937L14.4272 11.5791Z" stroke="white"/>
</g>
<path d="M61.1979 123.13C59.4274 123.27 57.7372 123.054 56.1273 122.483C54.5174 121.911 53.0781 121.062 51.8095 119.934C50.5391 118.783 49.5047 117.42 48.7065 115.846C47.9082 114.271 47.4355 112.551 47.2883 110.685C47.143 108.843 47.3412 107.082 47.8828 105.402C48.4244 103.722 49.2333 102.226 50.3094 100.913C51.3836 99.5767 52.671 98.5002 54.1714 97.6837C55.6718 96.8672 57.3073 96.3891 59.0778 96.2495C60.8483 96.1099 62.5385 96.3256 64.1484 96.8968C65.7583 97.468 67.1985 98.3294 68.469 99.4811C69.7376 100.609 70.771 101.96 71.5692 103.534C72.3675 105.108 72.8392 106.816 72.9845 108.658C73.1317 110.525 72.9345 112.298 72.3929 113.977C71.8513 115.657 71.0434 117.165 69.9692 118.502C68.893 119.815 67.6048 120.879 66.1043 121.696C64.6039 122.512 62.9684 122.99 61.1979 123.13ZM60.9743 120.295C62.8644 120.146 64.5163 119.57 65.9298 118.568C67.3654 117.54 68.4627 116.189 69.2215 114.516C69.9803 112.844 70.2776 110.966 70.1135 108.885C69.9512 106.827 69.3651 105.044 68.3553 103.535C67.3676 102 66.0842 100.837 64.5052 100.047C62.9261 99.2562 61.1916 98.9356 59.3014 99.0847C57.3635 99.2375 55.6776 99.8399 54.2439 100.892C52.8083 101.92 51.723 103.269 50.9881 104.94C50.2532 106.611 49.965 108.452 50.1235 110.462C50.2839 112.495 50.87 114.279 51.8816 115.812C52.8933 117.345 54.1896 118.519 55.7705 119.333C57.3496 120.123 59.0841 120.444 60.9743 120.295ZM117.143 115.901C117.546 115.821 117.902 115.913 118.212 116.178C118.522 116.442 118.692 116.778 118.725 117.185C118.757 117.591 118.639 117.938 118.373 118.223C118.109 118.533 117.772 118.692 117.363 118.7C116.664 118.683 116.049 118.672 115.519 118.665C115.015 118.681 114.523 118.708 114.045 118.745C113.566 118.783 113.065 118.835 112.54 118.9C112.018 118.989 111.412 119.097 110.724 119.224C110.343 119.278 109.986 119.174 109.652 118.911C109.344 118.671 109.174 118.347 109.142 117.94C109.11 117.534 109.226 117.175 109.491 116.866C109.779 116.554 110.117 116.407 110.503 116.425C110.816 116.424 111.141 116.422 111.478 116.42C111.815 116.417 112.153 116.427 112.491 116.448C112.707 116.431 112.806 116.315 112.789 116.1L112.053 106.769C112.036 106.554 111.92 106.454 111.704 106.471L98.4257 107.519C98.2103 107.536 98.1112 107.652 98.1282 107.867L98.8641 117.198C98.8811 117.413 98.9972 117.513 99.2126 117.496C99.5437 117.421 99.8759 117.359 100.209 117.309C100.542 117.258 100.863 117.209 101.172 117.161C101.575 117.081 101.932 117.173 102.241 117.437C102.551 117.702 102.722 118.037 102.754 118.444C102.786 118.851 102.669 119.197 102.403 119.483C102.138 119.793 101.802 119.952 101.393 119.96C100.694 119.943 100.079 119.931 99.5486 119.925C99.0443 119.94 98.5528 119.967 98.0743 120.005C97.5958 120.043 97.0943 120.094 96.5698 120.16C96.0472 120.249 95.4419 120.357 94.7537 120.483C94.3727 120.538 94.0154 120.433 93.6818 120.171C93.3739 119.93 93.2039 119.607 93.1719 119.2C93.1398 118.793 93.256 118.435 93.5204 118.125C93.8088 117.814 94.1463 117.667 94.5329 117.684C94.9453 117.724 95.3668 117.727 95.7975 117.693L95.8693 117.687C96.0367 117.674 96.1129 117.572 96.0978 117.38L94.4477 96.4572C94.4326 96.2658 94.3413 96.1767 94.1738 96.1899C93.7192 96.2257 93.2794 96.2965 92.8544 96.4023C92.4735 96.4564 92.1171 96.3641 91.7853 96.1255C91.4756 95.861 91.3047 95.5254 91.2726 95.1187C91.2405 94.7119 91.3567 94.3537 91.6212 94.0439C91.9096 93.7323 92.247 93.5853 92.6336 93.603C93.3331 93.62 93.948 93.6317 94.4781 93.638C95.0063 93.6205 95.5097 93.5928 95.9882 93.5551C96.4668 93.5173 96.9563 93.4667 97.4568 93.4031C97.9794 93.3138 98.5848 93.2058 99.273 93.0793C99.676 92.9994 100.032 93.0917 100.342 93.3561C100.652 93.6206 100.823 93.9562 100.855 94.3629C100.887 94.7697 100.771 95.1279 100.506 95.4377C100.24 95.7235 99.9024 95.8705 99.4938 95.8786C99.179 95.8553 98.8531 95.8449 98.5163 95.8474C98.1795 95.8499 97.8426 95.8524 97.5058 95.8549C97.2904 95.8718 97.1913 95.988 97.2082 96.2033L97.8621 104.494C97.8791 104.709 97.9952 104.808 98.2106 104.791L111.489 103.744C111.705 103.727 111.804 103.611 111.787 103.395L111.133 95.1051C111.116 94.8898 111 94.7906 110.785 94.8076C110.451 94.8579 110.118 94.9083 109.785 94.9586C109.452 95.0089 109.132 95.0703 108.825 95.1427C108.444 95.1968 108.088 95.1045 107.756 94.8659C107.446 94.6014 107.275 94.2658 107.243 93.8591C107.211 93.4524 107.327 93.0941 107.592 92.7844C107.88 92.4727 108.217 92.3257 108.604 92.3434C109.304 92.3604 109.918 92.3721 110.448 92.3785C110.977 92.3609 111.48 92.3332 111.959 92.2955C112.437 92.2577 112.927 92.2071 113.427 92.1435C113.95 92.0542 114.555 91.9462 115.243 91.8197C115.646 91.7398 116.003 91.8321 116.312 92.0965C116.622 92.361 116.793 92.6966 116.825 93.1033C116.857 93.5101 116.741 93.8683 116.477 94.1781C116.21 94.4639 115.873 94.6109 115.464 94.619C115.076 94.5775 114.654 94.5746 114.2 94.6105L114.128 94.6161C113.96 94.6293 113.884 94.7316 113.899 94.923L115.549 115.846C115.565 116.037 115.668 116.126 115.859 116.111C116.29 116.077 116.718 116.007 117.143 115.901ZM155.005 112.915C155.408 112.835 155.764 112.927 156.074 113.192C156.408 113.454 156.591 113.789 156.623 114.196C156.655 114.602 156.526 114.95 156.236 115.237C155.971 115.547 155.635 115.706 155.226 115.714C153.851 115.678 152.745 115.693 151.907 115.759C150.998 115.831 149.903 115.989 148.622 116.235C148.218 116.291 147.86 116.187 147.55 115.922C147.243 115.682 147.073 115.358 147.041 114.951C147.008 114.545 147.125 114.186 147.389 113.877C147.654 113.567 147.991 113.42 148.402 113.436C148.667 113.439 148.932 113.442 149.197 113.445C149.486 113.446 149.775 113.448 150.064 113.449L150.136 113.443C150.375 113.424 150.425 113.3 150.287 113.07L148.053 109.021C147.968 108.859 147.842 108.785 147.675 108.798L135.042 109.795C134.898 109.806 134.785 109.899 134.703 110.074L133.132 114.423C133.112 114.473 133.105 114.534 133.11 114.605C133.12 114.725 133.196 114.779 133.34 114.768C133.627 114.745 133.913 114.711 134.198 114.664C134.505 114.592 134.79 114.533 135.051 114.489C135.454 114.409 135.81 114.501 136.12 114.765C136.43 115.03 136.601 115.365 136.633 115.772C136.665 116.179 136.548 116.525 136.281 116.811C136.017 117.121 135.68 117.28 135.272 117.288C133.873 117.254 132.767 117.269 131.953 117.333C131.02 117.407 129.925 117.565 128.668 117.809C128.264 117.865 127.894 117.761 127.561 117.499C127.253 117.258 127.083 116.935 127.051 116.528C127.019 116.121 127.135 115.763 127.399 115.453C127.688 115.142 128.037 114.994 128.448 115.009C128.884 115.047 129.329 115.048 129.784 115.012L129.856 115.007C129.975 114.997 130.077 114.917 130.162 114.766L138.804 90.6476C138.984 90.1761 139.325 89.9205 139.827 89.8808C140.306 89.8431 140.67 90.043 140.922 90.4806L153.274 112.943C153.381 113.079 153.494 113.142 153.614 113.133C154.092 113.095 154.556 113.022 155.005 112.915ZM140.456 95.1036C140.42 94.9619 140.343 94.8958 140.223 94.9052C140.152 94.9109 140.085 94.9883 140.025 95.1376L135.884 106.731C135.864 106.781 135.855 106.83 135.859 106.877C135.872 107.045 135.975 107.121 136.166 107.106L146.143 106.319C146.43 106.296 146.504 106.158 146.363 105.905L140.456 95.1036ZM188.118 105.573C188.528 105.877 188.752 106.281 188.792 106.783C188.818 107.118 188.757 107.412 188.608 107.664C187.564 109.384 186.184 110.805 184.467 111.927C182.75 113.05 180.838 113.694 178.733 113.86C176.962 114 175.272 113.784 173.662 113.213C172.051 112.618 170.61 111.756 169.342 110.628C168.071 109.477 167.037 108.114 166.239 106.54C165.44 104.966 164.969 103.257 164.823 101.415C164.676 99.549 164.874 97.788 165.418 96.1321C165.959 94.4523 166.768 92.9561 167.844 91.6434C168.919 90.3068 170.206 89.2303 171.706 88.4138C173.207 87.5973 174.842 87.1192 176.613 86.9796C178.407 86.838 180.009 87.0006 181.418 87.4673C182.851 87.932 184.146 88.6364 185.304 89.5803C185.819 89.9971 186.289 90.4656 186.715 90.9857C187.141 91.5058 187.38 92.0888 187.431 92.7348C187.478 93.333 187.304 93.8763 186.909 94.3649C186.515 94.8534 186.006 95.1222 185.384 95.1713C184.738 95.2222 184.194 95.0365 183.751 94.614C183.309 94.1914 183.065 93.6931 183.019 93.1189C182.984 92.6643 183.072 92.2601 183.285 91.9062C183.389 91.7054 183.365 91.5508 183.212 91.4425C182.38 90.6655 181.401 90.1529 180.274 89.9048C179.169 89.6308 178.019 89.541 176.822 89.6353C174.884 89.7882 173.199 90.4026 171.768 91.4785C170.336 92.5544 169.241 93.9407 168.484 95.6375C167.75 97.3084 167.462 99.1607 167.623 101.194C167.783 103.228 168.369 105.012 169.381 106.545C170.392 108.078 171.689 109.252 173.27 110.066C174.873 110.854 176.619 111.174 178.509 111.025C180.232 110.889 181.781 110.382 183.156 109.503C184.529 108.6 185.606 107.444 186.385 106.034C186.618 105.631 186.95 105.412 187.381 105.378C187.668 105.355 187.914 105.42 188.118 105.573Z" fill="black"/>
<defs>
<filter id="filter0_d_550_145" x="0.00039053" y="0" width="221.905" height="207.812" filterUnits="userSpaceOnUse" color-interpolation-filters="sRGB">
<feFlood flood-opacity="0" result="BackgroundImageFix"/>
<feColorMatrix in="SourceAlpha" type="matrix" values="0 0 0 0 0 0 0 0 0 0 0 0 0 0 0 0 0 0 127 0" result="hardAlpha"/>
<feOffset dx="-8" dy="10"/>
<feGaussianBlur stdDeviation="2.95"/>
<feComposite in2="hardAlpha" operator="out"/>
<feColorMatrix type="matrix" values="0 0 0 0 0 0 0 0 0 0 0 0 0 0 0 0 0 0 0.25 0"/>
<feBlend mode="normal" in2="BackgroundImageFix" result="effect1_dropShadow_550_145"/>
<feBlend mode="normal" in="SourceGraphic" in2="effect1_dropShadow_550_145" result="shape"/>
</filter>
</defs>
</svg>
