<svg width="80" height="24" viewBox="0 0 80 24" fill="none" xmlns="http://www.w3.org/2000/svg">
<rect x="0.5" y="0.5" width="79" height="23" rx="11.5" fill="white"/>
<rect x="0.5" y="0.5" width="79" height="23" rx="11.5" stroke="black"/>
<path d="M20.404 4.148V15.56H22.042V20.384H20.494V17H11.656V20.384H10.108V15.56H11.098C11.53 14.816 11.938 13.982 12.322 13.058C12.718 12.134 13.066 11.168 13.366 10.16C13.666 9.14 13.912 8.12 14.104 7.1C14.296 6.08 14.416 5.096 14.464 4.148H20.404ZM15.886 5.606C15.838 6.302 15.718 7.088 15.526 7.964C15.346 8.84 15.112 9.74 14.824 10.664C14.548 11.576 14.236 12.458 13.888 13.31C13.552 14.162 13.192 14.912 12.808 15.56H18.802V5.606H15.886ZM35.4053 10.556C35.4053 11.552 35.2793 12.458 35.0273 13.274C34.7753 14.078 34.3973 14.774 33.8933 15.362C33.4013 15.95 32.7833 16.4 32.0393 16.712C31.3073 17.024 30.4553 17.18 29.4833 17.18C28.4753 17.18 27.5993 17.024 26.8553 16.712C26.1113 16.388 25.4933 15.938 25.0013 15.362C24.5093 14.774 24.1433 14.072 23.9033 13.256C23.6633 12.44 23.5433 11.534 23.5433 10.538C23.5433 9.218 23.7593 8.066 24.1913 7.082C24.6233 6.098 25.2773 5.33 26.1533 4.778C27.0413 4.226 28.1573 3.95 29.5013 3.95C30.7853 3.95 31.8653 4.226 32.7413 4.778C33.6173 5.318 34.2773 6.086 34.7213 7.082C35.1773 8.066 35.4053 9.224 35.4053 10.556ZM25.2533 10.556C25.2533 11.636 25.4033 12.566 25.7033 13.346C26.0033 14.126 26.4653 14.726 27.0893 15.146C27.7253 15.566 28.5233 15.776 29.4833 15.776C30.4553 15.776 31.2473 15.566 31.8593 15.146C32.4833 14.726 32.9453 14.126 33.2453 13.346C33.5453 12.566 33.6953 11.636 33.6953 10.556C33.6953 8.936 33.3593 7.67 32.6873 6.758C32.0153 5.834 30.9533 5.372 29.5013 5.372C28.5293 5.372 27.7253 5.582 27.0893 6.002C26.4653 6.41 26.0033 7.004 25.7033 7.784C25.4033 8.552 25.2533 9.476 25.2533 10.556ZM43.7618 5.39C43.0778 5.39 42.4598 5.51 41.9078 5.75C41.3558 5.978 40.8878 6.32 40.5038 6.776C40.1198 7.22 39.8258 7.766 39.6218 8.414C39.4178 9.05 39.3158 9.77 39.3158 10.574C39.3158 11.63 39.4778 12.548 39.8018 13.328C40.1378 14.108 40.6298 14.708 41.2778 15.128C41.9378 15.548 42.7598 15.758 43.7438 15.758C44.3078 15.758 44.8418 15.71 45.3458 15.614C45.8498 15.518 46.3418 15.398 46.8218 15.254V16.658C46.3418 16.838 45.8438 16.97 45.3278 17.054C44.8238 17.138 44.2178 17.18 43.5098 17.18C42.2018 17.18 41.1098 16.91 40.2338 16.37C39.3578 15.83 38.6978 15.062 38.2538 14.066C37.8218 13.07 37.6058 11.9 37.6058 10.556C37.6058 9.584 37.7378 8.696 38.0018 7.892C38.2778 7.088 38.6738 6.392 39.1898 5.804C39.7178 5.216 40.3658 4.766 41.1338 4.454C41.9018 4.13 42.7838 3.968 43.7798 3.968C44.4398 3.968 45.0758 4.034 45.6878 4.166C46.2998 4.298 46.8458 4.484 47.3258 4.724L46.6778 6.092C46.2818 5.912 45.8378 5.75 45.3458 5.606C44.8658 5.462 44.3378 5.39 43.7618 5.39ZM49.6269 17V4.148H51.2469V9.584H53.6589C54.8589 9.584 55.8129 9.746 56.5209 10.07C57.2289 10.394 57.7389 10.832 58.0509 11.384C58.3629 11.936 58.5189 12.554 58.5189 13.238C58.5189 13.994 58.3449 14.654 57.9969 15.218C57.6609 15.782 57.1509 16.22 56.4669 16.532C55.7829 16.844 54.9129 17 53.8569 17H49.6269ZM53.6949 15.614C54.7389 15.614 55.5249 15.422 56.0529 15.038C56.5809 14.642 56.8449 14.042 56.8449 13.238C56.8449 12.686 56.7129 12.248 56.4489 11.924C56.1969 11.588 55.8189 11.348 55.3149 11.204C54.8229 11.06 54.2049 10.988 53.4609 10.988H51.2469V15.614H53.6949ZM68.3577 17H61.1757V4.148H68.3577V5.57H62.7957V9.584H68.0337V10.988H62.7957V15.578H68.3577V17Z" fill="black"/>
</svg>
