<svg width="81" height="22" viewBox="0 0 81 22" fill="none" xmlns="http://www.w3.org/2000/svg">
<rect x="0.5" y="0.5" width="80" height="21" rx="10.5" fill="white"/>
<rect x="0.5" y="0.5" width="80" height="21" rx="10.5" stroke="black"/>
<path d="M19 4.148V5.588H13.366V17H11.746V4.148H19ZM27.9838 17L26.4358 13.022H21.3418L19.8118 17H18.1738L23.1958 4.094H24.6538L29.6578 17H27.9838ZM24.5098 7.694C24.4738 7.598 24.4138 7.424 24.3298 7.172C24.2458 6.92 24.1618 6.662 24.0778 6.398C24.0058 6.122 23.9458 5.912 23.8978 5.768C23.8378 6.008 23.7718 6.254 23.6998 6.506C23.6398 6.746 23.5738 6.968 23.5018 7.172C23.4418 7.376 23.3878 7.55 23.3398 7.694L21.8818 11.582H25.9498L24.5098 7.694ZM39.0119 7.154C39.0119 8.03 38.7359 8.726 38.1839 9.242C37.6319 9.746 36.8939 10.07 35.9699 10.214V10.286C37.0499 10.43 37.8719 10.766 38.4359 11.294C38.9999 11.822 39.2819 12.512 39.2819 13.364C39.2819 14.12 39.0899 14.786 38.7059 15.362C38.3219 15.926 37.7459 16.37 36.9779 16.694C36.2099 17.018 35.2499 17.18 34.0979 17.18C33.4019 17.18 32.7359 17.126 32.0999 17.018C31.4759 16.922 30.8939 16.742 30.3539 16.478V15.002C30.7259 15.182 31.1219 15.338 31.5419 15.47C31.9739 15.59 32.4059 15.686 32.8379 15.758C33.2699 15.818 33.6839 15.848 34.0799 15.848C35.2319 15.848 36.1019 15.632 36.6899 15.2C37.2899 14.768 37.5899 14.156 37.5899 13.364C37.5899 12.548 37.2419 11.954 36.5459 11.582C35.8499 11.21 34.8779 11.024 33.6299 11.024H31.7939V9.674H33.5399C34.3919 9.674 35.0939 9.578 35.6459 9.386C36.2099 9.194 36.6299 8.924 36.9059 8.576C37.1939 8.216 37.3379 7.796 37.3379 7.316C37.3379 6.668 37.0979 6.17 36.6179 5.822C36.1379 5.474 35.5139 5.3 34.7459 5.3C33.9419 5.3 33.2699 5.402 32.7299 5.606C32.2019 5.81 31.6859 6.074 31.1819 6.398L30.4079 5.3C30.7439 5.048 31.1279 4.826 31.5599 4.634C32.0039 4.43 32.4959 4.268 33.0359 4.148C33.5759 4.028 34.1519 3.968 34.7639 3.968C35.6879 3.968 36.4619 4.106 37.0859 4.382C37.7219 4.658 38.2019 5.036 38.5259 5.516C38.8499 5.984 39.0119 6.53 39.0119 7.154ZM49.18 17H41.998V4.148H49.18V5.57H43.618V9.584H48.856V10.988H43.618V15.578H49.18V17ZM56.0679 17H54.4479V5.57H50.4339V4.148H60.0639V5.57H56.0679V17ZM68.8002 17L67.2522 13.022H62.1582L60.6282 17H58.9902L64.0122 4.094H65.4702L70.4742 17H68.8002ZM65.3262 7.694C65.2902 7.598 65.2302 7.424 65.1462 7.172C65.0622 6.92 64.9782 6.662 64.8942 6.398C64.8222 6.122 64.7622 5.912 64.7142 5.768C64.6542 6.008 64.5882 6.254 64.5162 6.506C64.4562 6.746 64.3902 6.968 64.3182 7.172C64.2582 7.376 64.2042 7.55 64.1562 7.694L62.6982 11.582H66.7662L65.3262 7.694Z" fill="black"/>
</svg>
