<svg width="119" height="24" viewBox="0 0 119 24" fill="none" xmlns="http://www.w3.org/2000/svg">
<rect x="0.5" y="0.5" width="118" height="23" rx="11.5" fill="white"/>
<rect x="0.5" y="0.5" width="118" height="23" rx="11.5" stroke="black"/>
<path d="M11.746 17V4.148H21.394V17H19.792V5.57H13.366V17H11.746ZM36.126 10.556C36.126 11.552 36 12.458 35.748 13.274C35.496 14.078 35.118 14.774 34.614 15.362C34.122 15.95 33.504 16.4 32.76 16.712C32.028 17.024 31.176 17.18 30.204 17.18C29.196 17.18 28.32 17.024 27.576 16.712C26.832 16.388 26.214 15.938 25.722 15.362C25.23 14.774 24.864 14.072 24.624 13.256C24.384 12.44 24.264 11.534 24.264 10.538C24.264 9.218 24.48 8.066 24.912 7.082C25.344 6.098 25.998 5.33 26.874 4.778C27.762 4.226 28.878 3.95 30.222 3.95C31.506 3.95 32.586 4.226 33.462 4.778C34.338 5.318 34.998 6.086 35.442 7.082C35.898 8.066 36.126 9.224 36.126 10.556ZM25.974 10.556C25.974 11.636 26.124 12.566 26.424 13.346C26.724 14.126 27.186 14.726 27.81 15.146C28.446 15.566 29.244 15.776 30.204 15.776C31.176 15.776 31.968 15.566 32.58 15.146C33.204 14.726 33.666 14.126 33.966 13.346C34.266 12.566 34.416 11.636 34.416 10.556C34.416 8.936 34.08 7.67 33.408 6.758C32.736 5.834 31.674 5.372 30.222 5.372C29.25 5.372 28.446 5.582 27.81 6.002C27.186 6.41 26.724 7.004 26.424 7.784C26.124 8.552 25.974 9.476 25.974 10.556ZM47.281 4.148V15.56H48.919V20.384H47.371V17H38.533V20.384H36.985V15.56H37.975C38.407 14.816 38.815 13.982 39.199 13.058C39.595 12.134 39.943 11.168 40.243 10.16C40.543 9.14 40.789 8.12 40.981 7.1C41.173 6.08 41.293 5.096 41.341 4.148H47.281ZM42.763 5.606C42.715 6.302 42.595 7.088 42.403 7.964C42.223 8.84 41.989 9.74 41.701 10.664C41.425 11.576 41.113 12.458 40.765 13.31C40.429 14.162 40.069 14.912 39.685 15.56H45.679V5.606H42.763ZM60.4463 17H58.5023L52.6883 10.484V17H51.0683V4.148H52.6883V10.376L58.3583 4.148H60.1943L54.6143 10.394L60.4463 17ZM70.2592 17L68.7112 13.022H63.6172L62.0872 17H60.4492L65.4712 4.094H66.9292L71.9332 17H70.2592ZM66.7852 7.694C66.7492 7.598 66.6892 7.424 66.6052 7.172C66.5212 6.92 66.4372 6.662 66.3532 6.398C66.2812 6.122 66.2212 5.912 66.1732 5.768C66.1132 6.008 66.0472 6.254 65.9752 6.506C65.9152 6.746 65.8492 6.968 65.7772 7.172C65.7172 7.376 65.6632 7.55 65.6152 7.694L64.1572 11.582H68.2252L66.7852 7.694ZM79.1993 5.39C78.5153 5.39 77.8973 5.51 77.3453 5.75C76.7933 5.978 76.3253 6.32 75.9413 6.776C75.5573 7.22 75.2633 7.766 75.0593 8.414C74.8553 9.05 74.7533 9.77 74.7533 10.574C74.7533 11.63 74.9153 12.548 75.2393 13.328C75.5753 14.108 76.0673 14.708 76.7153 15.128C77.3753 15.548 78.1973 15.758 79.1813 15.758C79.7453 15.758 80.2793 15.71 80.7833 15.614C81.2873 15.518 81.7793 15.398 82.2593 15.254V16.658C81.7793 16.838 81.2813 16.97 80.7653 17.054C80.2613 17.138 79.6553 17.18 78.9473 17.18C77.6393 17.18 76.5473 16.91 75.6713 16.37C74.7953 15.83 74.1353 15.062 73.6913 14.066C73.2593 13.07 73.0433 11.9 73.0433 10.556C73.0433 9.584 73.1753 8.696 73.4393 7.892C73.7153 7.088 74.1113 6.392 74.6273 5.804C75.1553 5.216 75.8033 4.766 76.5713 4.454C77.3393 4.13 78.2213 3.968 79.2173 3.968C79.8773 3.968 80.5133 4.034 81.1253 4.166C81.7373 4.298 82.2833 4.484 82.7633 4.724L82.1153 6.092C81.7193 5.912 81.2753 5.75 80.7833 5.606C80.3033 5.462 79.7753 5.39 79.1993 5.39ZM89.1324 17H87.5124V5.57H83.4984V4.148H93.1284V5.57H89.1324V17ZM95.0663 17V4.148H96.6863V9.584H98.6663C99.8663 9.584 100.808 9.746 101.492 10.07C102.188 10.394 102.68 10.832 102.968 11.384C103.268 11.936 103.418 12.554 103.418 13.238C103.418 13.994 103.256 14.654 102.932 15.218C102.62 15.782 102.128 16.22 101.456 16.532C100.784 16.844 99.9203 17 98.8643 17H95.0663ZM98.7203 15.632C99.7523 15.632 100.514 15.434 101.006 15.038C101.498 14.642 101.744 14.042 101.744 13.238C101.744 12.686 101.624 12.248 101.384 11.924C101.156 11.6 100.802 11.366 100.322 11.222C99.8423 11.078 99.2303 11.006 98.4863 11.006H96.6863V15.632H98.7203ZM105.398 17V4.148H107.018V17H105.398Z" fill="black"/>
</svg>
