<svg width="101" height="24" viewBox="0 0 101 24" fill="none" xmlns="http://www.w3.org/2000/svg">
<rect x="0.5" y="0.5" width="100" height="23" rx="11.5" fill="white"/>
<rect x="0.5" y="0.5" width="100" height="23" rx="11.5" stroke="black"/>
<path d="M19 4.148V5.588H13.366V17H11.746V4.148H19ZM29.541 17H27.921V5.57H23.853C23.769 6.23 23.679 6.926 23.583 7.658C23.487 8.378 23.385 9.092 23.277 9.8C23.181 10.508 23.085 11.174 22.989 11.798C22.893 12.422 22.797 12.968 22.701 13.436C22.545 14.24 22.353 14.924 22.125 15.488C21.897 16.052 21.591 16.478 21.207 16.766C20.835 17.054 20.343 17.198 19.731 17.198C19.527 17.198 19.317 17.174 19.101 17.126C18.897 17.09 18.717 17.042 18.561 16.982V15.632C18.693 15.692 18.843 15.746 19.011 15.794C19.179 15.83 19.359 15.848 19.551 15.848C19.911 15.848 20.193 15.704 20.397 15.416C20.613 15.116 20.781 14.75 20.901 14.318C21.021 13.874 21.123 13.436 21.207 13.004C21.279 12.656 21.363 12.194 21.459 11.618C21.555 11.03 21.657 10.346 21.765 9.566C21.885 8.786 22.005 7.94 22.125 7.028C22.257 6.104 22.383 5.144 22.503 4.148H29.541V17ZM41.0971 17L39.5491 13.022H34.4551L32.9251 17H31.2871L36.3091 4.094H37.7671L42.7711 17H41.0971ZM37.6231 7.694C37.5871 7.598 37.5271 7.424 37.4431 7.172C37.3591 6.92 37.2751 6.662 37.1911 6.398C37.1191 6.122 37.0591 5.912 37.0111 5.768C36.9511 6.008 36.8851 6.254 36.8131 6.506C36.7531 6.746 36.6871 6.968 36.6151 7.172C36.5551 7.376 36.5011 7.55 36.4531 7.694L34.9951 11.582H39.0631L37.6231 7.694ZM48.2012 4.148C49.2692 4.148 50.1632 4.25 50.8832 4.454C51.6152 4.658 52.1612 4.994 52.5212 5.462C52.8932 5.93 53.0792 6.554 53.0792 7.334C53.0792 7.838 52.9832 8.288 52.7912 8.684C52.6112 9.068 52.3352 9.392 51.9632 9.656C51.6032 9.908 51.1592 10.082 50.6312 10.178V10.268C51.1712 10.352 51.6572 10.508 52.0892 10.736C52.5332 10.964 52.8812 11.288 53.1332 11.708C53.3852 12.128 53.5112 12.674 53.5112 13.346C53.5112 14.126 53.3312 14.792 52.9712 15.344C52.6112 15.884 52.0952 16.298 51.4232 16.586C50.7632 16.862 49.9712 17 49.0472 17H44.5292V4.148H48.2012ZM48.5252 9.62C49.6292 9.62 50.3852 9.446 50.7932 9.098C51.2012 8.738 51.4052 8.21 51.4052 7.514C51.4052 6.806 51.1532 6.302 50.6492 6.002C50.1572 5.69 49.3652 5.534 48.2732 5.534H46.1492V9.62H48.5252ZM46.1492 10.97V15.632H48.7412C49.8812 15.632 50.6732 15.41 51.1172 14.966C51.5612 14.522 51.7832 13.94 51.7832 13.22C51.7832 12.764 51.6812 12.368 51.4772 12.032C51.2852 11.696 50.9552 11.438 50.4872 11.258C50.0312 11.066 49.4072 10.97 48.6152 10.97H46.1492ZM66.0642 17H64.4442V11.006H57.8562V17H56.2362V4.148H57.8562V9.584H64.4442V4.148H66.0642V17ZM77.642 17L76.094 13.022H71L69.47 17H67.832L72.854 4.094H74.312L79.316 17H77.642ZM74.168 7.694C74.132 7.598 74.072 7.424 73.988 7.172C73.904 6.92 73.82 6.662 73.736 6.398C73.664 6.122 73.604 5.912 73.556 5.768C73.496 6.008 73.43 6.254 73.358 6.506C73.298 6.746 73.232 6.968 73.16 7.172C73.1 7.376 73.046 7.55 72.998 7.694L71.54 11.582H75.608L74.168 7.694ZM84.9441 11.672L81.6141 17H79.7241L83.3241 11.384C82.8681 11.228 82.4361 11.012 82.0281 10.736C81.6321 10.46 81.3081 10.082 81.0561 9.602C80.8041 9.122 80.6781 8.504 80.6781 7.748C80.6781 6.584 81.0801 5.696 81.8841 5.084C82.6881 4.46 83.8881 4.148 85.4841 4.148H89.0841V17H87.4641V11.672H84.9441ZM85.5201 5.534C84.8361 5.534 84.2601 5.612 83.7921 5.768C83.3241 5.924 82.9641 6.17 82.7121 6.506C82.4721 6.842 82.3521 7.28 82.3521 7.82C82.3521 8.612 82.6161 9.224 83.1441 9.656C83.6721 10.088 84.4881 10.304 85.5921 10.304H87.4641V5.534H85.5201Z" fill="black"/>
</svg>
