<svg width="76" height="22" viewBox="0 0 76 22" fill="none" xmlns="http://www.w3.org/2000/svg">
<rect x="0.5" y="0.5" width="75" height="21" rx="10.5" fill="white"/>
<rect x="0.5" y="0.5" width="75" height="21" rx="10.5" stroke="black"/>
<path d="M22.96 10.556C22.96 11.552 22.834 12.458 22.582 13.274C22.33 14.078 21.952 14.774 21.448 15.362C20.956 15.95 20.338 16.4 19.594 16.712C18.862 17.024 18.01 17.18 17.038 17.18C16.03 17.18 15.154 17.024 14.41 16.712C13.666 16.388 13.048 15.938 12.556 15.362C12.064 14.774 11.698 14.072 11.458 13.256C11.218 12.44 11.098 11.534 11.098 10.538C11.098 9.218 11.314 8.066 11.746 7.082C12.178 6.098 12.832 5.33 13.708 4.778C14.596 4.226 15.712 3.95 17.056 3.95C18.34 3.95 19.42 4.226 20.296 4.778C21.172 5.318 21.832 6.086 22.276 7.082C22.732 8.066 22.96 9.224 22.96 10.556ZM12.808 10.556C12.808 11.636 12.958 12.566 13.258 13.346C13.558 14.126 14.02 14.726 14.644 15.146C15.28 15.566 16.078 15.776 17.038 15.776C18.01 15.776 18.802 15.566 19.414 15.146C20.038 14.726 20.5 14.126 20.8 13.346C21.1 12.566 21.25 11.636 21.25 10.556C21.25 8.936 20.914 7.67 20.242 6.758C19.57 5.834 18.508 5.372 17.056 5.372C16.084 5.372 15.28 5.582 14.644 6.002C14.02 6.41 13.558 7.004 13.258 7.784C12.958 8.552 12.808 9.476 12.808 10.556ZM40.4705 17H38.8505V11.006H32.2625V17H30.6425V4.148H32.2625V9.584H38.8505V4.148H40.4705V17ZM52.0483 17L50.5003 13.022H45.4063L43.8763 17H42.2383L47.2603 4.094H48.7183L53.7223 17H52.0483ZM48.5743 7.694C48.5383 7.598 48.4783 7.424 48.3943 7.172C48.3103 6.92 48.2263 6.662 48.1423 6.398C48.0703 6.122 48.0103 5.912 47.9623 5.768C47.9023 6.008 47.8363 6.254 47.7643 6.506C47.7043 6.746 47.6383 6.968 47.5663 7.172C47.5063 7.376 47.4523 7.55 47.4043 7.694L45.9463 11.582H50.0143L48.5743 7.694ZM60.9884 5.39C60.3044 5.39 59.6864 5.51 59.1344 5.75C58.5824 5.978 58.1144 6.32 57.7304 6.776C57.3464 7.22 57.0524 7.766 56.8484 8.414C56.6444 9.05 56.5424 9.77 56.5424 10.574C56.5424 11.63 56.7044 12.548 57.0284 13.328C57.3644 14.108 57.8564 14.708 58.5044 15.128C59.1644 15.548 59.9864 15.758 60.9704 15.758C61.5344 15.758 62.0684 15.71 62.5724 15.614C63.0764 15.518 63.5684 15.398 64.0484 15.254V16.658C63.5684 16.838 63.0704 16.97 62.5544 17.054C62.0504 17.138 61.4444 17.18 60.7364 17.18C59.4284 17.18 58.3364 16.91 57.4604 16.37C56.5844 15.83 55.9244 15.062 55.4804 14.066C55.0484 13.07 54.8324 11.9 54.8324 10.556C54.8324 9.584 54.9644 8.696 55.2284 7.892C55.5044 7.088 55.9004 6.392 56.4164 5.804C56.9444 5.216 57.5924 4.766 58.3604 4.454C59.1284 4.13 60.0104 3.968 61.0064 3.968C61.6664 3.968 62.3024 4.034 62.9144 4.166C63.5264 4.298 64.0724 4.484 64.5524 4.724L63.9044 6.092C63.5084 5.912 63.0644 5.75 62.5724 5.606C62.0924 5.462 61.5644 5.39 60.9884 5.39Z" fill="black"/>
</svg>
