<svg width="1115" height="945" viewBox="0 0 1115 945" fill="none" xmlns="http://www.w3.org/2000/svg">
<mask id="path-1-inside-1_1184_2652" fill="white">
<path d="M1030.3 280.216H79.2969L64.2969 55.2021H125.297L130.297 0H321.345L325.297 55.2021H1045.3L1030.3 280.216Z"/>
</mask>
<path d="M1030.3 280.216H79.2969L64.2969 55.2021H125.297L130.297 0H321.345L325.297 55.2021H1045.3L1030.3 280.216Z" fill="white"/>
<path d="M1030.3 280.216V282.216H1032.17L1032.29 280.349L1030.3 280.216ZM79.2969 280.216L77.3013 280.349L77.4258 282.216H79.2969V280.216ZM64.2969 55.2021V53.2021H62.1591L62.3013 55.3352L64.2969 55.2021ZM125.297 55.2021V57.2021H127.124L127.289 55.3826L125.297 55.2021ZM130.297 0V-2H128.47L128.305 -0.180414L130.297 0ZM321.345 0L323.34 -0.142823L323.207 -2H321.345V0ZM325.297 55.2021L323.302 55.345L323.435 57.2021H325.297V55.2021ZM1045.3 55.2021L1047.29 55.3352L1047.43 53.2021H1045.3V55.2021ZM1030.3 280.216V278.216H79.2969V280.216V282.216H1030.3V280.216ZM79.2969 280.216L81.2924 280.083L66.2924 55.0691L64.2969 55.2021L62.3013 55.3352L77.3013 280.349L79.2969 280.216ZM64.2969 55.2021V57.2021H125.297V55.2021V53.2021H64.2969V55.2021ZM125.297 55.2021L127.289 55.3826L132.289 0.180414L130.297 0L128.305 -0.180414L123.305 55.0217L125.297 55.2021ZM130.297 0V2H321.345V0V-2H130.297V0ZM321.345 0L319.35 0.142823L323.302 55.345L325.297 55.2021L327.292 55.0593L323.34 -0.142823L321.345 0ZM325.297 55.2021V57.2021H1045.3V55.2021V53.2021H325.297V55.2021ZM1045.3 55.2021L1043.3 55.0691L1028.3 280.083L1030.3 280.216L1032.29 280.349L1047.29 55.3352L1045.3 55.2021Z" fill="black" mask="url(#path-1-inside-1_1184_2652)"/>
<path d="M189.857 18.72V31.4H191.677V36.76H189.957V33H180.137V36.76H178.417V31.4H179.517C179.997 30.5733 180.45 29.6467 180.877 28.62C181.317 27.5933 181.704 26.52 182.037 25.4C182.37 24.2667 182.644 23.1333 182.857 22C183.07 20.8667 183.204 19.7733 183.257 18.72H189.857ZM184.837 20.34C184.784 21.1133 184.65 21.9867 184.437 22.96C184.237 23.9333 183.977 24.9333 183.657 25.96C183.35 26.9733 183.004 27.9533 182.617 28.9C182.244 29.8467 181.844 30.68 181.417 31.4H188.077V20.34H184.837ZM202.045 33H194.065V18.72H202.045V20.3H195.865V24.76H201.685V26.32H195.865V31.42H202.045V33ZM215.458 33H213.658V20.3H209.138C209.045 21.0333 208.945 21.8067 208.838 22.62C208.732 23.42 208.618 24.2133 208.498 25C208.392 25.7867 208.285 26.5267 208.178 27.22C208.072 27.9133 207.965 28.52 207.858 29.04C207.685 29.9333 207.472 30.6933 207.218 31.32C206.965 31.9467 206.625 32.42 206.198 32.74C205.785 33.06 205.238 33.22 204.558 33.22C204.332 33.22 204.098 33.1933 203.858 33.14C203.632 33.1 203.432 33.0467 203.258 32.98V31.48C203.405 31.5467 203.572 31.6067 203.758 31.66C203.945 31.7 204.145 31.72 204.358 31.72C204.758 31.72 205.072 31.56 205.298 31.24C205.538 30.9067 205.725 30.5 205.858 30.02C205.992 29.5267 206.105 29.04 206.198 28.56C206.278 28.1733 206.372 27.66 206.478 27.02C206.585 26.3667 206.698 25.6067 206.818 24.74C206.952 23.8733 207.085 22.9333 207.218 21.92C207.365 20.8933 207.505 19.8267 207.638 18.72H215.458V33ZM231.798 25.84C231.798 26.9467 231.658 27.9533 231.378 28.86C231.098 29.7533 230.678 30.5267 230.118 31.18C229.572 31.8333 228.885 32.3333 228.058 32.68C227.245 33.0267 226.298 33.2 225.218 33.2C224.098 33.2 223.125 33.0267 222.298 32.68C221.472 32.32 220.785 31.82 220.238 31.18C219.692 30.5267 219.285 29.7467 219.018 28.84C218.752 27.9333 218.618 26.9267 218.618 25.82C218.618 24.3533 218.858 23.0733 219.338 21.98C219.818 20.8867 220.545 20.0333 221.518 19.42C222.505 18.8067 223.745 18.5 225.238 18.5C226.665 18.5 227.865 18.8067 228.838 19.42C229.812 20.02 230.545 20.8733 231.038 21.98C231.545 23.0733 231.798 24.36 231.798 25.84ZM220.518 25.84C220.518 27.04 220.685 28.0733 221.018 28.94C221.352 29.8067 221.865 30.4733 222.558 30.94C223.265 31.4067 224.152 31.64 225.218 31.64C226.298 31.64 227.178 31.4067 227.858 30.94C228.552 30.4733 229.065 29.8067 229.398 28.94C229.732 28.0733 229.898 27.04 229.898 25.84C229.898 24.04 229.525 22.6333 228.778 21.62C228.032 20.5933 226.852 20.08 225.238 20.08C224.158 20.08 223.265 20.3133 222.558 20.78C221.865 21.2333 221.352 21.8933 221.018 22.76C220.685 23.6133 220.518 24.64 220.518 25.84ZM240.295 33V18.72H242.315L248.815 30.48H248.895C248.881 30.1333 248.861 29.7333 248.835 29.28C248.808 28.8267 248.788 28.3733 248.775 27.92C248.761 27.4533 248.755 27.0533 248.755 26.72V18.72H250.335V33H248.375L241.795 21.2H241.715C241.741 21.5467 241.761 21.96 241.775 22.44C241.801 22.9067 241.821 23.3733 241.835 23.84C241.861 24.3067 241.875 24.72 241.875 25.08V33H240.295ZM252.235 33V31.62H257.375V33H252.235ZM254.795 30.32C254.221 30.32 253.708 30.1933 253.255 29.94C252.815 29.6733 252.468 29.2867 252.215 28.78C251.961 28.2733 251.835 27.6533 251.835 26.92C251.835 25.8267 252.101 24.9933 252.635 24.42C253.181 23.8333 253.921 23.54 254.855 23.54C255.428 23.54 255.935 23.6733 256.375 23.94C256.828 24.1933 257.181 24.5733 257.435 25.08C257.701 25.5733 257.835 26.1867 257.835 26.92C257.835 28.0133 257.561 28.8533 257.015 29.44C256.468 30.0267 255.728 30.32 254.795 30.32ZM254.835 29.16C255.421 29.16 255.841 28.9733 256.095 28.6C256.348 28.2133 256.475 27.6533 256.475 26.92C256.475 26.1733 256.348 25.6267 256.095 25.28C255.841 24.92 255.421 24.74 254.835 24.74C254.261 24.74 253.841 24.92 253.575 25.28C253.308 25.6267 253.175 26.1733 253.175 26.92C253.175 27.6533 253.301 28.2133 253.555 28.6C253.821 28.9733 254.248 29.16 254.835 29.16ZM268.441 31.5945V33H259.695V31.6957L263.194 28.1769C264.279 27.0849 264.983 26.3165 265.307 25.8716C265.988 24.9481 266.328 24.028 266.328 23.1112C266.328 22.3967 266.112 21.8338 265.681 21.4226C265.25 21.0047 264.653 20.7958 263.891 20.7958C263.332 20.7958 262.809 20.8868 262.324 21.0688C261.839 21.244 261.286 21.5743 260.666 22.0597L259.867 21.0384C261.094 20.0138 262.429 19.5015 263.871 19.5015C265.111 19.5015 266.089 19.8217 266.803 20.4621C267.518 21.0957 267.875 21.9552 267.875 23.0404C267.875 23.8965 267.632 24.7425 267.147 25.5784C266.669 26.4075 265.789 27.4422 264.508 28.6825L261.596 31.5238V31.5945H268.441Z" fill="black"/>
<mask id="path-4-inside-2_1184_2652" fill="white">
<path d="M1030.3 317.718H79.2969L64.2969 92.7041H327.297L334.297 37.502H525.345L530.297 92.7041H1045.3L1030.3 317.718Z"/>
</mask>
<path d="M1030.3 317.718H79.2969L64.2969 92.7041H327.297L334.297 37.502H525.345L530.297 92.7041H1045.3L1030.3 317.718Z" fill="white"/>
<path d="M1030.3 317.718V319.718H1032.17L1032.29 317.851L1030.3 317.718ZM79.2969 317.718L77.3013 317.851L77.4258 319.718H79.2969V317.718ZM64.2969 92.7041V90.7041H62.1591L62.3013 92.8371L64.2969 92.7041ZM327.297 92.7041V94.7041H329.059L329.281 92.9557L327.297 92.7041ZM334.297 37.502V35.502H332.534L332.313 37.2504L334.297 37.502ZM525.345 37.502L527.337 37.3233L527.173 35.502H525.345V37.502ZM530.297 92.7041L528.305 92.8828L528.468 94.7041H530.297V92.7041ZM1045.3 92.7041L1047.29 92.8371L1047.43 90.7041H1045.3V92.7041ZM1030.3 317.718V315.718H79.2969V317.718V319.718H1030.3V317.718ZM79.2969 317.718L81.2924 317.585L66.2924 92.5711L64.2969 92.7041L62.3013 92.8371L77.3013 317.851L79.2969 317.718ZM64.2969 92.7041V94.7041H327.297V92.7041V90.7041H64.2969V92.7041ZM327.297 92.7041L329.281 92.9557L336.281 37.7536L334.297 37.502L332.313 37.2504L325.313 92.4525L327.297 92.7041ZM334.297 37.502V39.502H525.345V37.502V35.502H334.297V37.502ZM525.345 37.502L523.353 37.6807L528.305 92.8828L530.297 92.7041L532.289 92.5254L527.337 37.3233L525.345 37.502ZM530.297 92.7041V94.7041H1045.3V92.7041V90.7041H530.297V92.7041ZM1045.3 92.7041L1043.3 92.5711L1028.3 317.585L1030.3 317.718L1032.29 317.851L1047.29 92.8371L1045.3 92.7041Z" fill="black" mask="url(#path-4-inside-2_1184_2652)"/>
<path d="M392.857 54.72V67.4H394.677V72.76H392.957V69H383.137V72.76H381.417V67.4H382.517C382.997 66.5733 383.45 65.6467 383.877 64.62C384.317 63.5933 384.704 62.52 385.037 61.4C385.37 60.2667 385.644 59.1333 385.857 58C386.07 56.8667 386.204 55.7733 386.257 54.72H392.857ZM387.837 56.34C387.784 57.1133 387.65 57.9867 387.437 58.96C387.237 59.9333 386.977 60.9333 386.657 61.96C386.35 62.9733 386.004 63.9533 385.617 64.9C385.244 65.8467 384.844 66.68 384.417 67.4H391.077V56.34H387.837ZM405.045 69H397.065V54.72H405.045V56.3H398.865V60.76H404.685V62.32H398.865V67.42H405.045V69ZM418.458 69H416.658V56.3H412.138C412.045 57.0333 411.945 57.8067 411.838 58.62C411.732 59.42 411.618 60.2133 411.498 61C411.392 61.7867 411.285 62.5267 411.178 63.22C411.072 63.9133 410.965 64.52 410.858 65.04C410.685 65.9333 410.472 66.6933 410.218 67.32C409.965 67.9467 409.625 68.42 409.198 68.74C408.785 69.06 408.238 69.22 407.558 69.22C407.332 69.22 407.098 69.1933 406.858 69.14C406.632 69.1 406.432 69.0467 406.258 68.98V67.48C406.405 67.5467 406.572 67.6067 406.758 67.66C406.945 67.7 407.145 67.72 407.358 67.72C407.758 67.72 408.072 67.56 408.298 67.24C408.538 66.9067 408.725 66.5 408.858 66.02C408.992 65.5267 409.105 65.04 409.198 64.56C409.278 64.1733 409.372 63.66 409.478 63.02C409.585 62.3667 409.698 61.6067 409.818 60.74C409.952 59.8733 410.085 58.9333 410.218 57.92C410.365 56.8933 410.505 55.8267 410.638 54.72H418.458V69ZM434.798 61.84C434.798 62.9467 434.658 63.9533 434.378 64.86C434.098 65.7533 433.678 66.5267 433.118 67.18C432.572 67.8333 431.885 68.3333 431.058 68.68C430.245 69.0267 429.298 69.2 428.218 69.2C427.098 69.2 426.125 69.0267 425.298 68.68C424.472 68.32 423.785 67.82 423.238 67.18C422.692 66.5267 422.285 65.7467 422.018 64.84C421.752 63.9333 421.618 62.9267 421.618 61.82C421.618 60.3533 421.858 59.0733 422.338 57.98C422.818 56.8867 423.545 56.0333 424.518 55.42C425.505 54.8067 426.745 54.5 428.238 54.5C429.665 54.5 430.865 54.8067 431.838 55.42C432.812 56.02 433.545 56.8733 434.038 57.98C434.545 59.0733 434.798 60.36 434.798 61.84ZM423.518 61.84C423.518 63.04 423.685 64.0733 424.018 64.94C424.352 65.8067 424.865 66.4733 425.558 66.94C426.265 67.4067 427.152 67.64 428.218 67.64C429.298 67.64 430.178 67.4067 430.858 66.94C431.552 66.4733 432.065 65.8067 432.398 64.94C432.732 64.0733 432.898 63.04 432.898 61.84C432.898 60.04 432.525 58.6333 431.778 57.62C431.032 56.5933 429.852 56.08 428.238 56.08C427.158 56.08 426.265 56.3133 425.558 56.78C424.865 57.2333 424.352 57.8933 424.018 58.76C423.685 59.6133 423.518 60.64 423.518 61.84ZM443.295 69V54.72H445.315L451.815 66.48H451.895C451.881 66.1333 451.861 65.7333 451.835 65.28C451.808 64.8267 451.788 64.3733 451.775 63.92C451.761 63.4533 451.755 63.0533 451.755 62.72V54.72H453.335V69H451.375L444.795 57.2H444.715C444.741 57.5467 444.761 57.96 444.775 58.44C444.801 58.9067 444.821 59.3733 444.835 59.84C444.861 60.3067 444.875 60.72 444.875 61.08V69H443.295ZM455.235 69V67.62H460.375V69H455.235ZM457.795 66.32C457.221 66.32 456.708 66.1933 456.255 65.94C455.815 65.6733 455.468 65.2867 455.215 64.78C454.961 64.2733 454.835 63.6533 454.835 62.92C454.835 61.8267 455.101 60.9933 455.635 60.42C456.181 59.8333 456.921 59.54 457.855 59.54C458.428 59.54 458.935 59.6733 459.375 59.94C459.828 60.1933 460.181 60.5733 460.435 61.08C460.701 61.5733 460.835 62.1867 460.835 62.92C460.835 64.0133 460.561 64.8533 460.015 65.44C459.468 66.0267 458.728 66.32 457.795 66.32ZM457.835 65.16C458.421 65.16 458.841 64.9733 459.095 64.6C459.348 64.2133 459.475 63.6533 459.475 62.92C459.475 62.1733 459.348 61.6267 459.095 61.28C458.841 60.92 458.421 60.74 457.835 60.74C457.261 60.74 456.841 60.92 456.575 61.28C456.308 61.6267 456.175 62.1733 456.175 62.92C456.175 63.6533 456.301 64.2133 456.555 64.6C456.821 64.9733 457.248 65.16 457.835 65.16ZM462.645 57.089V55.6936H471.492V56.907L466.052 69H464.374L469.894 57.089H462.645Z" fill="black"/>
<mask id="path-7-inside-3_1184_2652" fill="white">
<path d="M1030.3 348.791H79.2969L64.2969 123.777H125.297L130.297 68.5752H321.345L325.297 123.777H1045.3L1030.3 348.791Z"/>
</mask>
<path d="M1030.3 348.791H79.2969L64.2969 123.777H125.297L130.297 68.5752H321.345L325.297 123.777H1045.3L1030.3 348.791Z" fill="white"/>
<path d="M1030.3 348.791V350.791H1032.17L1032.29 348.924L1030.3 348.791ZM79.2969 348.791L77.3013 348.924L77.4258 350.791H79.2969V348.791ZM64.2969 123.777V121.777H62.1591L62.3013 123.91L64.2969 123.777ZM125.297 123.777V125.777H127.124L127.289 123.958L125.297 123.777ZM130.297 68.5752V66.5752H128.47L128.305 68.3948L130.297 68.5752ZM321.345 68.5752L323.34 68.4324L323.207 66.5752H321.345V68.5752ZM325.297 123.777L323.302 123.92L323.435 125.777H325.297V123.777ZM1045.3 123.777L1047.29 123.91L1047.43 121.777H1045.3V123.777ZM1030.3 348.791V346.791H79.2969V348.791V350.791H1030.3V348.791ZM79.2969 348.791L81.2924 348.658L66.2924 123.644L64.2969 123.777L62.3013 123.91L77.3013 348.924L79.2969 348.791ZM64.2969 123.777V125.777H125.297V123.777V121.777H64.2969V123.777ZM125.297 123.777L127.289 123.958L132.289 68.7556L130.297 68.5752L128.305 68.3948L123.305 123.597L125.297 123.777ZM130.297 68.5752V70.5752H321.345V68.5752V66.5752H130.297V68.5752ZM321.345 68.5752L319.35 68.718L323.302 123.92L325.297 123.777L327.292 123.635L323.34 68.4324L321.345 68.5752ZM325.297 123.777V125.777H1045.3V123.777V121.777H325.297V123.777ZM1045.3 123.777L1043.3 123.644L1028.3 348.658L1030.3 348.791L1032.29 348.924L1047.29 123.91L1045.3 123.777Z" fill="black" mask="url(#path-7-inside-3_1184_2652)"/>
<path d="M189.857 89.72V102.4H191.677V107.76H189.957V104H180.137V107.76H178.417V102.4H179.517C179.997 101.573 180.45 100.647 180.877 99.62C181.317 98.5933 181.704 97.52 182.037 96.4C182.37 95.2667 182.644 94.1333 182.857 93C183.07 91.8667 183.204 90.7733 183.257 89.72H189.857ZM184.837 91.34C184.784 92.1133 184.65 92.9867 184.437 93.96C184.237 94.9333 183.977 95.9333 183.657 96.96C183.35 97.9733 183.004 98.9533 182.617 99.9C182.244 100.847 181.844 101.68 181.417 102.4H188.077V91.34H184.837ZM202.045 104H194.065V89.72H202.045V91.3H195.865V95.76H201.685V97.32H195.865V102.42H202.045V104ZM215.458 104H213.658V91.3H209.138C209.045 92.0333 208.945 92.8067 208.838 93.62C208.732 94.42 208.618 95.2133 208.498 96C208.392 96.7867 208.285 97.5267 208.178 98.22C208.072 98.9133 207.965 99.52 207.858 100.04C207.685 100.933 207.472 101.693 207.218 102.32C206.965 102.947 206.625 103.42 206.198 103.74C205.785 104.06 205.238 104.22 204.558 104.22C204.332 104.22 204.098 104.193 203.858 104.14C203.632 104.1 203.432 104.047 203.258 103.98V102.48C203.405 102.547 203.572 102.607 203.758 102.66C203.945 102.7 204.145 102.72 204.358 102.72C204.758 102.72 205.072 102.56 205.298 102.24C205.538 101.907 205.725 101.5 205.858 101.02C205.992 100.527 206.105 100.04 206.198 99.56C206.278 99.1733 206.372 98.66 206.478 98.02C206.585 97.3667 206.698 96.6067 206.818 95.74C206.952 94.8733 207.085 93.9333 207.218 92.92C207.365 91.8933 207.505 90.8267 207.638 89.72H215.458V104ZM231.798 96.84C231.798 97.9467 231.658 98.9533 231.378 99.86C231.098 100.753 230.678 101.527 230.118 102.18C229.572 102.833 228.885 103.333 228.058 103.68C227.245 104.027 226.298 104.2 225.218 104.2C224.098 104.2 223.125 104.027 222.298 103.68C221.472 103.32 220.785 102.82 220.238 102.18C219.692 101.527 219.285 100.747 219.018 99.84C218.752 98.9333 218.618 97.9267 218.618 96.82C218.618 95.3533 218.858 94.0733 219.338 92.98C219.818 91.8867 220.545 91.0333 221.518 90.42C222.505 89.8067 223.745 89.5 225.238 89.5C226.665 89.5 227.865 89.8067 228.838 90.42C229.812 91.02 230.545 91.8733 231.038 92.98C231.545 94.0733 231.798 95.36 231.798 96.84ZM220.518 96.84C220.518 98.04 220.685 99.0733 221.018 99.94C221.352 100.807 221.865 101.473 222.558 101.94C223.265 102.407 224.152 102.64 225.218 102.64C226.298 102.64 227.178 102.407 227.858 101.94C228.552 101.473 229.065 100.807 229.398 99.94C229.732 99.0733 229.898 98.04 229.898 96.84C229.898 95.04 229.525 93.6333 228.778 92.62C228.032 91.5933 226.852 91.08 225.238 91.08C224.158 91.08 223.265 91.3133 222.558 91.78C221.865 92.2333 221.352 92.8933 221.018 93.76C220.685 94.6133 220.518 95.64 220.518 96.84ZM240.295 104V89.72H242.315L248.815 101.48H248.895C248.881 101.133 248.861 100.733 248.835 100.28C248.808 99.8267 248.788 99.3733 248.775 98.92C248.761 98.4533 248.755 98.0533 248.755 97.72V89.72H250.335V104H248.375L241.795 92.2H241.715C241.741 92.5467 241.761 92.96 241.775 93.44C241.801 93.9067 241.821 94.3733 241.835 94.84C241.861 95.3067 241.875 95.72 241.875 96.08V104H240.295ZM252.235 104V102.62H257.375V104H252.235ZM254.795 101.32C254.221 101.32 253.708 101.193 253.255 100.94C252.815 100.673 252.468 100.287 252.215 99.78C251.961 99.2733 251.835 98.6533 251.835 97.92C251.835 96.8267 252.101 95.9933 252.635 95.42C253.181 94.8333 253.921 94.54 254.855 94.54C255.428 94.54 255.935 94.6733 256.375 94.94C256.828 95.1933 257.181 95.5733 257.435 96.08C257.701 96.5733 257.835 97.1867 257.835 97.92C257.835 99.0133 257.561 99.8533 257.015 100.44C256.468 101.027 255.728 101.32 254.795 101.32ZM254.835 100.16C255.421 100.16 255.841 99.9733 256.095 99.6C256.348 99.2133 256.475 98.6533 256.475 97.92C256.475 97.1733 256.348 96.6267 256.095 96.28C255.841 95.92 255.421 95.74 254.835 95.74C254.261 95.74 253.841 95.92 253.575 96.28C253.308 96.6267 253.175 97.1733 253.175 97.92C253.175 98.6533 253.301 99.2133 253.555 99.6C253.821 99.9733 254.248 100.16 254.835 100.16ZM265.287 90.6936V104H263.821V94.5157C263.821 93.6798 263.844 92.935 263.891 92.2811C263.763 92.4092 263.615 92.5474 263.446 92.6957C263.278 92.8372 262.56 93.4237 261.293 94.455L260.494 93.4135L264.013 90.6936H265.287ZM275.951 90.6936V104H274.485V94.5157C274.485 93.6798 274.508 92.935 274.555 92.2811C274.427 92.4092 274.279 92.5474 274.11 92.6957C273.942 92.8372 273.224 93.4237 271.957 94.455L271.158 93.4135L274.677 90.6936H275.951Z" fill="black"/>
<mask id="path-10-inside-4_1184_2652" fill="white">
<path d="M1030.3 821.782H79.2969L64.2969 167.986H327.297L334.297 96.3931H525.345L530.297 167.986H1045.3L1030.3 821.782Z"/>
</mask>
<path d="M1030.3 821.782H79.2969L64.2969 167.986H327.297L334.297 96.3931H525.345L530.297 167.986H1045.3L1030.3 821.782Z" fill="white"/>
<path d="M1030.3 821.782V823.782H1032.25L1032.3 821.828L1030.3 821.782ZM79.2969 821.782L77.2974 821.828L77.3422 823.782H79.2969V821.782ZM64.2969 167.986V165.986H62.2505L62.2974 168.032L64.2969 167.986ZM327.297 167.986V169.986H329.111L329.287 168.18L327.297 167.986ZM334.297 96.3931V94.3931H332.483L332.306 96.1984L334.297 96.3931ZM525.345 96.3931L527.34 96.2551L527.211 94.3931H525.345V96.3931ZM530.297 167.986L528.302 168.124L528.43 169.986H530.297V167.986ZM1045.3 167.986L1047.3 168.032L1047.34 165.986H1045.3V167.986ZM1030.3 821.782V819.782H79.2969V821.782V823.782H1030.3V821.782ZM79.2969 821.782L81.2963 821.736L66.2963 167.94L64.2969 167.986L62.2974 168.032L77.2974 821.828L79.2969 821.782ZM64.2969 167.986V169.986H327.297V167.986V165.986H64.2969V167.986ZM327.297 167.986L329.287 168.18L336.287 96.5877L334.297 96.3931L332.306 96.1984L325.306 167.791L327.297 167.986ZM334.297 96.3931V98.3931H525.345V96.3931V94.3931H334.297V96.3931ZM525.345 96.3931L523.349 96.5311L528.302 168.124L530.297 167.986L532.292 167.848L527.34 96.2551L525.345 96.3931ZM530.297 167.986V169.986H1045.3V167.986V165.986H530.297V167.986ZM1045.3 167.986L1043.3 167.94L1028.3 821.736L1030.3 821.782L1032.3 821.828L1047.3 168.032L1045.3 167.986Z" fill="black" mask="url(#path-10-inside-4_1184_2652)"/>
<path d="M382.857 116.72V129.4H384.677V134.76H382.957V131H373.137V134.76H371.417V129.4H372.517C372.997 128.573 373.45 127.647 373.877 126.62C374.317 125.593 374.704 124.52 375.037 123.4C375.37 122.267 375.644 121.133 375.857 120C376.07 118.867 376.204 117.773 376.257 116.72H382.857ZM377.837 118.34C377.784 119.113 377.65 119.987 377.437 120.96C377.237 121.933 376.977 122.933 376.657 123.96C376.35 124.973 376.004 125.953 375.617 126.9C375.244 127.847 374.844 128.68 374.417 129.4H381.077V118.34H377.837ZM395.045 131H387.065V116.72H395.045V118.3H388.865V122.76H394.685V124.32H388.865V129.42H395.045V131ZM408.458 131H406.658V118.3H402.138C402.045 119.033 401.945 119.807 401.838 120.62C401.732 121.42 401.618 122.213 401.498 123C401.392 123.787 401.285 124.527 401.178 125.22C401.072 125.913 400.965 126.52 400.858 127.04C400.685 127.933 400.472 128.693 400.218 129.32C399.965 129.947 399.625 130.42 399.198 130.74C398.785 131.06 398.238 131.22 397.558 131.22C397.332 131.22 397.098 131.193 396.858 131.14C396.632 131.1 396.432 131.047 396.258 130.98V129.48C396.405 129.547 396.572 129.607 396.758 129.66C396.945 129.7 397.145 129.72 397.358 129.72C397.758 129.72 398.072 129.56 398.298 129.24C398.538 128.907 398.725 128.5 398.858 128.02C398.992 127.527 399.105 127.04 399.198 126.56C399.278 126.173 399.372 125.66 399.478 125.02C399.585 124.367 399.698 123.607 399.818 122.74C399.952 121.873 400.085 120.933 400.218 119.92C400.365 118.893 400.505 117.827 400.638 116.72H408.458V131ZM424.798 123.84C424.798 124.947 424.658 125.953 424.378 126.86C424.098 127.753 423.678 128.527 423.118 129.18C422.572 129.833 421.885 130.333 421.058 130.68C420.245 131.027 419.298 131.2 418.218 131.2C417.098 131.2 416.125 131.027 415.298 130.68C414.472 130.32 413.785 129.82 413.238 129.18C412.692 128.527 412.285 127.747 412.018 126.84C411.752 125.933 411.618 124.927 411.618 123.82C411.618 122.353 411.858 121.073 412.338 119.98C412.818 118.887 413.545 118.033 414.518 117.42C415.505 116.807 416.745 116.5 418.238 116.5C419.665 116.5 420.865 116.807 421.838 117.42C422.812 118.02 423.545 118.873 424.038 119.98C424.545 121.073 424.798 122.36 424.798 123.84ZM413.518 123.84C413.518 125.04 413.685 126.073 414.018 126.94C414.352 127.807 414.865 128.473 415.558 128.94C416.265 129.407 417.152 129.64 418.218 129.64C419.298 129.64 420.178 129.407 420.858 128.94C421.552 128.473 422.065 127.807 422.398 126.94C422.732 126.073 422.898 125.04 422.898 123.84C422.898 122.04 422.525 120.633 421.778 119.62C421.032 118.593 419.852 118.08 418.238 118.08C417.158 118.08 416.265 118.313 415.558 118.78C414.865 119.233 414.352 119.893 414.018 120.76C413.685 121.613 413.518 122.64 413.518 123.84ZM433.295 131V116.72H435.315L441.815 128.48H441.895C441.881 128.133 441.861 127.733 441.835 127.28C441.808 126.827 441.788 126.373 441.775 125.92C441.761 125.453 441.755 125.053 441.755 124.72V116.72H443.335V131H441.375L434.795 119.2H434.715C434.741 119.547 434.761 119.96 434.775 120.44C434.801 120.907 434.821 121.373 434.835 121.84C434.861 122.307 434.875 122.72 434.875 123.08V131H433.295ZM445.235 131V129.62H450.375V131H445.235ZM447.795 128.32C447.221 128.32 446.708 128.193 446.255 127.94C445.815 127.673 445.468 127.287 445.215 126.78C444.961 126.273 444.835 125.653 444.835 124.92C444.835 123.827 445.101 122.993 445.635 122.42C446.181 121.833 446.921 121.54 447.855 121.54C448.428 121.54 448.935 121.673 449.375 121.94C449.828 122.193 450.181 122.573 450.435 123.08C450.701 123.573 450.835 124.187 450.835 124.92C450.835 126.013 450.561 126.853 450.015 127.44C449.468 128.027 448.728 128.32 447.795 128.32ZM447.835 127.16C448.421 127.16 448.841 126.973 449.095 126.6C449.348 126.213 449.475 125.653 449.475 124.92C449.475 124.173 449.348 123.627 449.095 123.28C448.841 122.92 448.421 122.74 447.835 122.74C447.261 122.74 446.841 122.92 446.575 123.28C446.308 123.627 446.175 124.173 446.175 124.92C446.175 125.653 446.301 126.213 446.555 126.6C446.821 126.973 447.248 127.16 447.835 127.16ZM458.287 117.694V131H456.821V121.516C456.821 120.68 456.844 119.935 456.891 119.281C456.763 119.409 456.615 119.547 456.446 119.696C456.278 119.837 455.56 120.424 454.293 121.455L453.494 120.414L457.013 117.694H458.287ZM463.511 125.317C463.511 122.716 464.016 120.764 465.028 119.463C466.045 118.155 467.552 117.502 469.547 117.502C470.221 117.502 470.761 117.559 471.165 117.673V118.978C470.713 118.829 470.181 118.755 469.568 118.755C468.125 118.755 467.03 119.204 466.281 120.1C465.54 120.997 465.132 122.389 465.058 124.276H465.169C465.836 123.231 466.891 122.709 468.334 122.709C469.534 122.709 470.478 123.069 471.165 123.791C471.853 124.512 472.196 125.53 472.196 126.844C472.196 128.152 471.819 129.204 471.064 129.999C470.309 130.788 469.264 131.182 467.93 131.182C466.602 131.182 465.533 130.666 464.724 129.635C463.915 128.59 463.511 127.151 463.511 125.317ZM469.992 129.089C470.464 128.543 470.7 127.788 470.7 126.824C470.7 125.86 470.474 125.132 470.023 124.64C469.578 124.148 468.92 123.902 468.051 123.902C467.255 123.875 466.554 124.121 465.948 124.64C465.341 125.159 465.044 125.746 465.058 126.399C465.044 127.35 465.321 128.179 465.887 128.887C466.453 129.588 467.151 129.925 467.98 129.898C468.85 129.898 469.52 129.628 469.992 129.089Z" fill="black"/>
<mask id="path-13-inside-5_1184_2652" fill="white">
<path d="M1030.3 764.354H79.2969L64.2969 683.677H327.297L334.297 629.698H525.345L530.297 683.677H1045.3L1030.3 764.354Z"/>
</mask>
<path d="M1030.3 764.354H79.2969L64.2969 683.677H327.297L334.297 629.698H525.345L530.297 683.677H1045.3L1030.3 764.354Z" fill="white"/>
<path d="M1030.3 764.354V766.354H1031.96L1032.26 764.719L1030.3 764.354ZM79.2969 764.354L77.3306 764.719L77.6345 766.354H79.2969V764.354ZM64.2969 683.677V681.677H61.8907L62.3306 684.042L64.2969 683.677ZM327.297 683.677V685.677H329.054L329.28 683.934L327.297 683.677ZM334.297 629.698V627.698H332.539L332.313 629.441L334.297 629.698ZM525.345 629.698L527.336 629.516L527.17 627.698H525.345V629.698ZM530.297 683.677L528.305 683.859L528.472 685.677H530.297V683.677ZM1045.3 683.677L1047.26 684.042L1047.7 681.677H1045.3V683.677ZM1030.3 764.354V762.354H79.2969V764.354V766.354H1030.3V764.354ZM79.2969 764.354L81.2632 763.988L66.2632 683.311L64.2969 683.677L62.3306 684.042L77.3306 764.719L79.2969 764.354ZM64.2969 683.677V685.677H327.297V683.677V681.677H64.2969V683.677ZM327.297 683.677L329.28 683.934L336.28 629.955L334.297 629.698L332.313 629.441L325.313 683.42L327.297 683.677ZM334.297 629.698V631.698H525.345V629.698V627.698H334.297V629.698ZM525.345 629.698L523.353 629.881L528.305 683.859L530.297 683.677L532.289 683.494L527.336 629.516L525.345 629.698ZM530.297 683.677V685.677H1045.3V683.677V681.677H530.297V683.677ZM1045.3 683.677L1043.33 683.311L1028.33 763.988L1030.3 764.354L1032.26 764.719L1047.26 684.042L1045.3 683.677Z" fill="black" mask="url(#path-13-inside-5_1184_2652)"/>
<path d="M389.857 645.72V658.4H391.677V663.76H389.957V660H380.137V663.76H378.417V658.4H379.517C379.997 657.573 380.45 656.647 380.877 655.62C381.317 654.593 381.704 653.52 382.037 652.4C382.37 651.267 382.644 650.133 382.857 649C383.07 647.867 383.204 646.773 383.257 645.72H389.857ZM384.837 647.34C384.784 648.113 384.65 648.987 384.437 649.96C384.237 650.933 383.977 651.933 383.657 652.96C383.35 653.973 383.004 654.953 382.617 655.9C382.244 656.847 381.844 657.68 381.417 658.4H388.077V647.34H384.837ZM402.045 660H394.065V645.72H402.045V647.3H395.865V651.76H401.685V653.32H395.865V658.42H402.045V660ZM415.458 660H413.658V647.3H409.138C409.045 648.033 408.945 648.807 408.838 649.62C408.732 650.42 408.618 651.213 408.498 652C408.392 652.787 408.285 653.527 408.178 654.22C408.072 654.913 407.965 655.52 407.858 656.04C407.685 656.933 407.472 657.693 407.218 658.32C406.965 658.947 406.625 659.42 406.198 659.74C405.785 660.06 405.238 660.22 404.558 660.22C404.332 660.22 404.098 660.193 403.858 660.14C403.632 660.1 403.432 660.047 403.258 659.98V658.48C403.405 658.547 403.572 658.607 403.758 658.66C403.945 658.7 404.145 658.72 404.358 658.72C404.758 658.72 405.072 658.56 405.298 658.24C405.538 657.907 405.725 657.5 405.858 657.02C405.992 656.527 406.105 656.04 406.198 655.56C406.278 655.173 406.372 654.66 406.478 654.02C406.585 653.367 406.698 652.607 406.818 651.74C406.952 650.873 407.085 649.933 407.218 648.92C407.365 647.893 407.505 646.827 407.638 645.72H415.458V660ZM431.798 652.84C431.798 653.947 431.658 654.953 431.378 655.86C431.098 656.753 430.678 657.527 430.118 658.18C429.572 658.833 428.885 659.333 428.058 659.68C427.245 660.027 426.298 660.2 425.218 660.2C424.098 660.2 423.125 660.027 422.298 659.68C421.472 659.32 420.785 658.82 420.238 658.18C419.692 657.527 419.285 656.747 419.018 655.84C418.752 654.933 418.618 653.927 418.618 652.82C418.618 651.353 418.858 650.073 419.338 648.98C419.818 647.887 420.545 647.033 421.518 646.42C422.505 645.807 423.745 645.5 425.238 645.5C426.665 645.5 427.865 645.807 428.838 646.42C429.812 647.02 430.545 647.873 431.038 648.98C431.545 650.073 431.798 651.36 431.798 652.84ZM420.518 652.84C420.518 654.04 420.685 655.073 421.018 655.94C421.352 656.807 421.865 657.473 422.558 657.94C423.265 658.407 424.152 658.64 425.218 658.64C426.298 658.64 427.178 658.407 427.858 657.94C428.552 657.473 429.065 656.807 429.398 655.94C429.732 655.073 429.898 654.04 429.898 652.84C429.898 651.04 429.525 649.633 428.778 648.62C428.032 647.593 426.852 647.08 425.238 647.08C424.158 647.08 423.265 647.313 422.558 647.78C421.865 648.233 421.352 648.893 421.018 649.76C420.685 650.613 420.518 651.64 420.518 652.84ZM440.295 660V645.72H442.315L448.815 657.48H448.895C448.881 657.133 448.861 656.733 448.835 656.28C448.808 655.827 448.788 655.373 448.775 654.92C448.761 654.453 448.755 654.053 448.755 653.72V645.72H450.335V660H448.375L441.795 648.2H441.715C441.741 648.547 441.761 648.96 441.775 649.44C441.801 649.907 441.821 650.373 441.835 650.84C441.861 651.307 441.875 651.72 441.875 652.08V660H440.295ZM452.235 660V658.62H457.375V660H452.235ZM454.795 657.32C454.221 657.32 453.708 657.193 453.255 656.94C452.815 656.673 452.468 656.287 452.215 655.78C451.961 655.273 451.835 654.653 451.835 653.92C451.835 652.827 452.101 651.993 452.635 651.42C453.181 650.833 453.921 650.54 454.855 650.54C455.428 650.54 455.935 650.673 456.375 650.94C456.828 651.193 457.181 651.573 457.435 652.08C457.701 652.573 457.835 653.187 457.835 653.92C457.835 655.013 457.561 655.853 457.015 656.44C456.468 657.027 455.728 657.32 454.795 657.32ZM454.835 656.16C455.421 656.16 455.841 655.973 456.095 655.6C456.348 655.213 456.475 654.653 456.475 653.92C456.475 653.173 456.348 652.627 456.095 652.28C455.841 651.92 455.421 651.74 454.835 651.74C454.261 651.74 453.841 651.92 453.575 652.28C453.308 652.627 453.175 653.173 453.175 653.92C453.175 654.653 453.301 655.213 453.555 655.6C453.821 655.973 454.248 656.16 454.835 656.16ZM465.287 646.694V660H463.821V650.516C463.821 649.68 463.844 648.935 463.891 648.281C463.763 648.409 463.615 648.547 463.446 648.696C463.278 648.837 462.56 649.424 461.293 650.455L460.494 649.414L464.013 646.694H465.287ZM470.309 648.089V646.694H479.156V647.907L473.716 660H472.038L477.558 648.089H470.309Z" fill="black"/>
<mask id="path-16-inside-6_1184_2652" fill="white">
<path d="M1030.3 820.932H79.2969L64.2969 714.061H125.297L130.297 660.083H321.345L325.297 714.061H1045.3L1030.3 820.932Z"/>
</mask>
<path d="M1030.3 820.932H79.2969L64.2969 714.061H125.297L130.297 660.083H321.345L325.297 714.061H1045.3L1030.3 820.932Z" fill="white"/>
<path d="M1030.3 820.932V822.932H1032.04L1032.28 821.21L1030.3 820.932ZM79.2969 820.932L77.3163 821.21L77.558 822.932H79.2969V820.932ZM64.2969 714.061V712.061H61.9966L62.3163 714.339L64.2969 714.061ZM125.297 714.061V716.061H127.12L127.288 714.246L125.297 714.061ZM130.297 660.083V658.083H128.474L128.305 659.898L130.297 660.083ZM321.345 660.083L323.339 659.936L323.204 658.083H321.345V660.083ZM325.297 714.061L323.302 714.207L323.438 716.061H325.297V714.061ZM1045.3 714.061L1047.28 714.339L1047.6 712.061H1045.3V714.061ZM1030.3 820.932V818.932H79.2969V820.932V822.932H1030.3V820.932ZM79.2969 820.932L81.2775 820.654L66.2775 713.783L64.2969 714.061L62.3163 714.339L77.3163 821.21L79.2969 820.932ZM64.2969 714.061V716.061H125.297V714.061V712.061H64.2969V714.061ZM125.297 714.061L127.288 714.246L132.288 660.267L130.297 660.083L128.305 659.898L123.305 713.877L125.297 714.061ZM130.297 660.083V662.083H321.345V660.083V658.083H130.297V660.083ZM321.345 660.083L319.35 660.229L323.302 714.207L325.297 714.061L327.292 713.915L323.339 659.936L321.345 660.083ZM325.297 714.061V716.061H1045.3V714.061V712.061H325.297V714.061ZM1045.3 714.061L1043.32 713.783L1028.32 820.654L1030.3 820.932L1032.28 821.21L1047.28 714.339L1045.3 714.061Z" fill="black" mask="url(#path-16-inside-6_1184_2652)"/>
<path d="M180.857 677.72V690.4H182.677V695.76H180.957V692H171.137V695.76H169.417V690.4H170.517C170.997 689.573 171.45 688.647 171.877 687.62C172.317 686.593 172.704 685.52 173.037 684.4C173.37 683.267 173.644 682.133 173.857 681C174.07 679.867 174.204 678.773 174.257 677.72H180.857ZM175.837 679.34C175.784 680.113 175.65 680.987 175.437 681.96C175.237 682.933 174.977 683.933 174.657 684.96C174.35 685.973 174.004 686.953 173.617 687.9C173.244 688.847 172.844 689.68 172.417 690.4H179.077V679.34H175.837ZM193.045 692H185.065V677.72H193.045V679.3H186.865V683.76H192.685V685.32H186.865V690.42H193.045V692ZM206.458 692H204.658V679.3H200.138C200.045 680.033 199.945 680.807 199.838 681.62C199.732 682.42 199.618 683.213 199.498 684C199.392 684.787 199.285 685.527 199.178 686.22C199.072 686.913 198.965 687.52 198.858 688.04C198.685 688.933 198.472 689.693 198.218 690.32C197.965 690.947 197.625 691.42 197.198 691.74C196.785 692.06 196.238 692.22 195.558 692.22C195.332 692.22 195.098 692.193 194.858 692.14C194.632 692.1 194.432 692.047 194.258 691.98V690.48C194.405 690.547 194.572 690.607 194.758 690.66C194.945 690.7 195.145 690.72 195.358 690.72C195.758 690.72 196.072 690.56 196.298 690.24C196.538 689.907 196.725 689.5 196.858 689.02C196.992 688.527 197.105 688.04 197.198 687.56C197.278 687.173 197.372 686.66 197.478 686.02C197.585 685.367 197.698 684.607 197.818 683.74C197.952 682.873 198.085 681.933 198.218 680.92C198.365 679.893 198.505 678.827 198.638 677.72H206.458V692ZM222.798 684.84C222.798 685.947 222.658 686.953 222.378 687.86C222.098 688.753 221.678 689.527 221.118 690.18C220.572 690.833 219.885 691.333 219.058 691.68C218.245 692.027 217.298 692.2 216.218 692.2C215.098 692.2 214.125 692.027 213.298 691.68C212.472 691.32 211.785 690.82 211.238 690.18C210.692 689.527 210.285 688.747 210.018 687.84C209.752 686.933 209.618 685.927 209.618 684.82C209.618 683.353 209.858 682.073 210.338 680.98C210.818 679.887 211.545 679.033 212.518 678.42C213.505 677.807 214.745 677.5 216.238 677.5C217.665 677.5 218.865 677.807 219.838 678.42C220.812 679.02 221.545 679.873 222.038 680.98C222.545 682.073 222.798 683.36 222.798 684.84ZM211.518 684.84C211.518 686.04 211.685 687.073 212.018 687.94C212.352 688.807 212.865 689.473 213.558 689.94C214.265 690.407 215.152 690.64 216.218 690.64C217.298 690.64 218.178 690.407 218.858 689.94C219.552 689.473 220.065 688.807 220.398 687.94C220.732 687.073 220.898 686.04 220.898 684.84C220.898 683.04 220.525 681.633 219.778 680.62C219.032 679.593 217.852 679.08 216.238 679.08C215.158 679.08 214.265 679.313 213.558 679.78C212.865 680.233 212.352 680.893 212.018 681.76C211.685 682.613 211.518 683.64 211.518 684.84ZM231.295 692V677.72H233.315L239.815 689.48H239.895C239.881 689.133 239.861 688.733 239.835 688.28C239.808 687.827 239.788 687.373 239.775 686.92C239.761 686.453 239.755 686.053 239.755 685.72V677.72H241.335V692H239.375L232.795 680.2H232.715C232.741 680.547 232.761 680.96 232.775 681.44C232.801 681.907 232.821 682.373 232.835 682.84C232.861 683.307 232.875 683.72 232.875 684.08V692H231.295ZM243.235 692V690.62H248.375V692H243.235ZM245.795 689.32C245.221 689.32 244.708 689.193 244.255 688.94C243.815 688.673 243.468 688.287 243.215 687.78C242.961 687.273 242.835 686.653 242.835 685.92C242.835 684.827 243.101 683.993 243.635 683.42C244.181 682.833 244.921 682.54 245.855 682.54C246.428 682.54 246.935 682.673 247.375 682.94C247.828 683.193 248.181 683.573 248.435 684.08C248.701 684.573 248.835 685.187 248.835 685.92C248.835 687.013 248.561 687.853 248.015 688.44C247.468 689.027 246.728 689.32 245.795 689.32ZM245.835 688.16C246.421 688.16 246.841 687.973 247.095 687.6C247.348 687.213 247.475 686.653 247.475 685.92C247.475 685.173 247.348 684.627 247.095 684.28C246.841 683.92 246.421 683.74 245.835 683.74C245.261 683.74 244.841 683.92 244.575 684.28C244.308 684.627 244.175 685.173 244.175 685.92C244.175 686.653 244.301 687.213 244.555 687.6C244.821 687.973 245.248 688.16 245.835 688.16ZM256.287 678.694V692H254.821V682.516C254.821 681.68 254.844 680.935 254.891 680.281C254.763 680.409 254.615 680.547 254.446 680.696C254.278 680.837 253.56 681.424 252.293 682.455L251.494 681.414L255.013 678.694H256.287ZM263.614 680.635C263.142 681.188 262.906 681.936 262.906 682.88C262.906 683.823 263.129 684.541 263.574 685.033C264.018 685.525 264.679 685.771 265.555 685.771C266.364 685.798 267.072 685.556 267.679 685.043C268.292 684.531 268.592 683.951 268.579 683.304C268.592 682.334 268.316 681.501 267.75 680.807C267.183 680.113 266.476 679.776 265.626 679.796C264.763 679.796 264.093 680.075 263.614 680.635ZM264.059 692.182C263.365 692.182 262.809 692.121 262.391 692V690.696C262.876 690.857 263.425 690.938 264.039 690.938C265.495 690.938 266.593 690.487 267.335 689.583C268.083 688.68 268.491 687.298 268.558 685.438H268.447C268.124 685.937 267.685 686.321 267.133 686.59C266.58 686.853 265.953 686.985 265.252 686.985C264.086 686.985 263.152 686.634 262.451 685.933C261.757 685.232 261.41 684.218 261.41 682.89C261.41 681.562 261.797 680.5 262.573 679.705C263.355 678.903 264.372 678.502 265.626 678.502C266.988 678.481 268.076 679.004 268.892 680.069C269.714 681.134 270.119 682.57 270.105 684.376C270.105 689.58 268.09 692.182 264.059 692.182Z" fill="black"/>
<mask id="path-19-inside-7_1184_2652" fill="white">
<path d="M1030.3 853.412H79.2969L64.2969 750.732H327.297L334.297 696.754H525.345L530.297 750.732H1045.3L1030.3 853.412Z"/>
</mask>
<path d="M1030.3 853.412H79.2969L64.2969 750.732H327.297L334.297 696.754H525.345L530.297 750.732H1045.3L1030.3 853.412Z" fill="white"/>
<path d="M1030.3 853.412V855.412H1032.03L1032.28 853.701L1030.3 853.412ZM79.2969 853.412L77.3179 853.701L77.5678 855.412H79.2969V853.412ZM64.2969 750.732V748.732H61.9835L62.3179 751.022L64.2969 750.732ZM327.297 750.732V752.732H329.054L329.28 750.99L327.297 750.732ZM334.297 696.754V694.754H332.539L332.313 696.497L334.297 696.754ZM525.345 696.754L527.336 696.571L527.17 694.754H525.345V696.754ZM530.297 750.732L528.305 750.915L528.472 752.732H530.297V750.732ZM1045.3 750.732L1047.28 751.022L1047.61 748.732H1045.3V750.732ZM1030.3 853.412V851.412H79.2969V853.412V855.412H1030.3V853.412ZM79.2969 853.412L81.2759 853.123L66.2759 750.443L64.2969 750.732L62.3179 751.022L77.3179 853.701L79.2969 853.412ZM64.2969 750.732V752.732H327.297V750.732V748.732H64.2969V750.732ZM327.297 750.732L329.28 750.99L336.28 697.011L334.297 696.754L332.313 696.497L325.313 750.475L327.297 750.732ZM334.297 696.754V698.754H525.345V696.754V694.754H334.297V696.754ZM525.345 696.754L523.353 696.937L528.305 750.915L530.297 750.732L532.289 750.55L527.336 696.571L525.345 696.754ZM530.297 750.732V752.732H1045.3V750.732V748.732H530.297V750.732ZM1045.3 750.732L1043.32 750.443L1028.32 853.123L1030.3 853.412L1032.28 853.701L1047.28 751.022L1045.3 750.732Z" fill="black" mask="url(#path-19-inside-7_1184_2652)"/>
<path d="M390.857 721.72V734.4H392.677V739.76H390.957V736H381.137V739.76H379.417V734.4H380.517C380.997 733.573 381.45 732.647 381.877 731.62C382.317 730.593 382.704 729.52 383.037 728.4C383.37 727.267 383.644 726.133 383.857 725C384.07 723.867 384.204 722.773 384.257 721.72H390.857ZM385.837 723.34C385.784 724.113 385.65 724.987 385.437 725.96C385.237 726.933 384.977 727.933 384.657 728.96C384.35 729.973 384.004 730.953 383.617 731.9C383.244 732.847 382.844 733.68 382.417 734.4H389.077V723.34H385.837ZM403.045 736H395.065V721.72H403.045V723.3H396.865V727.76H402.685V729.32H396.865V734.42H403.045V736ZM416.458 736H414.658V723.3H410.138C410.045 724.033 409.945 724.807 409.838 725.62C409.732 726.42 409.618 727.213 409.498 728C409.392 728.787 409.285 729.527 409.178 730.22C409.072 730.913 408.965 731.52 408.858 732.04C408.685 732.933 408.472 733.693 408.218 734.32C407.965 734.947 407.625 735.42 407.198 735.74C406.785 736.06 406.238 736.22 405.558 736.22C405.332 736.22 405.098 736.193 404.858 736.14C404.632 736.1 404.432 736.047 404.258 735.98V734.48C404.405 734.547 404.572 734.607 404.758 734.66C404.945 734.7 405.145 734.72 405.358 734.72C405.758 734.72 406.072 734.56 406.298 734.24C406.538 733.907 406.725 733.5 406.858 733.02C406.992 732.527 407.105 732.04 407.198 731.56C407.278 731.173 407.372 730.66 407.478 730.02C407.585 729.367 407.698 728.607 407.818 727.74C407.952 726.873 408.085 725.933 408.218 724.92C408.365 723.893 408.505 722.827 408.638 721.72H416.458V736ZM432.798 728.84C432.798 729.947 432.658 730.953 432.378 731.86C432.098 732.753 431.678 733.527 431.118 734.18C430.572 734.833 429.885 735.333 429.058 735.68C428.245 736.027 427.298 736.2 426.218 736.2C425.098 736.2 424.125 736.027 423.298 735.68C422.472 735.32 421.785 734.82 421.238 734.18C420.692 733.527 420.285 732.747 420.018 731.84C419.752 730.933 419.618 729.927 419.618 728.82C419.618 727.353 419.858 726.073 420.338 724.98C420.818 723.887 421.545 723.033 422.518 722.42C423.505 721.807 424.745 721.5 426.238 721.5C427.665 721.5 428.865 721.807 429.838 722.42C430.812 723.02 431.545 723.873 432.038 724.98C432.545 726.073 432.798 727.36 432.798 728.84ZM421.518 728.84C421.518 730.04 421.685 731.073 422.018 731.94C422.352 732.807 422.865 733.473 423.558 733.94C424.265 734.407 425.152 734.64 426.218 734.64C427.298 734.64 428.178 734.407 428.858 733.94C429.552 733.473 430.065 732.807 430.398 731.94C430.732 731.073 430.898 730.04 430.898 728.84C430.898 727.04 430.525 725.633 429.778 724.62C429.032 723.593 427.852 723.08 426.238 723.08C425.158 723.08 424.265 723.313 423.558 723.78C422.865 724.233 422.352 724.893 422.018 725.76C421.685 726.613 421.518 727.64 421.518 728.84ZM441.295 736V721.72H443.315L449.815 733.48H449.895C449.881 733.133 449.861 732.733 449.835 732.28C449.808 731.827 449.788 731.373 449.775 730.92C449.761 730.453 449.755 730.053 449.755 729.72V721.72H451.335V736H449.375L442.795 724.2H442.715C442.741 724.547 442.761 724.96 442.775 725.44C442.801 725.907 442.821 726.373 442.835 726.84C442.861 727.307 442.875 727.72 442.875 728.08V736H441.295ZM453.235 736V734.62H458.375V736H453.235ZM455.795 733.32C455.221 733.32 454.708 733.193 454.255 732.94C453.815 732.673 453.468 732.287 453.215 731.78C452.961 731.273 452.835 730.653 452.835 729.92C452.835 728.827 453.101 727.993 453.635 727.42C454.181 726.833 454.921 726.54 455.855 726.54C456.428 726.54 456.935 726.673 457.375 726.94C457.828 727.193 458.181 727.573 458.435 728.08C458.701 728.573 458.835 729.187 458.835 729.92C458.835 731.013 458.561 731.853 458.015 732.44C457.468 733.027 456.728 733.32 455.795 733.32ZM455.835 732.16C456.421 732.16 456.841 731.973 457.095 731.6C457.348 731.213 457.475 730.653 457.475 729.92C457.475 729.173 457.348 728.627 457.095 728.28C456.841 727.92 456.421 727.74 455.835 727.74C455.261 727.74 454.841 727.92 454.575 728.28C454.308 728.627 454.175 729.173 454.175 729.92C454.175 730.653 454.301 731.213 454.555 731.6C454.821 731.973 455.248 732.16 455.835 732.16ZM469.441 734.595V736H460.695V734.696L464.194 731.177C465.279 730.085 465.983 729.316 466.307 728.872C466.988 727.948 467.328 727.028 467.328 726.111C467.328 725.397 467.112 724.834 466.681 724.423C466.25 724.005 465.653 723.796 464.891 723.796C464.332 723.796 463.809 723.887 463.324 724.069C462.839 724.244 462.286 724.574 461.666 725.06L460.867 724.038C462.094 723.014 463.429 722.502 464.871 722.502C466.111 722.502 467.089 722.822 467.803 723.462C468.518 724.096 468.875 724.955 468.875 726.04C468.875 726.897 468.632 727.743 468.147 728.578C467.669 729.407 466.789 730.442 465.508 731.683L462.596 734.524V734.595H469.441ZM480.105 734.595V736H471.359V734.696L474.858 731.177C475.943 730.085 476.647 729.316 476.971 728.872C477.652 727.948 477.992 727.028 477.992 726.111C477.992 725.397 477.776 724.834 477.345 724.423C476.914 724.005 476.317 723.796 475.555 723.796C474.996 723.796 474.473 723.887 473.988 724.069C473.503 724.244 472.95 724.574 472.33 725.06L471.531 724.038C472.758 723.014 474.093 722.502 475.535 722.502C476.775 722.502 477.753 722.822 478.467 723.462C479.182 724.096 479.539 724.955 479.539 726.04C479.539 726.897 479.297 727.743 478.811 728.578C478.333 729.407 477.453 730.442 476.172 731.683L473.26 734.524V734.595H480.105Z" fill="black"/>
<path d="M1086.3 943.52H28.2969L1.29688 820.012H1113.3L1086.3 943.52ZM1113.3 819.706H1.29688L4.69727 806.768H1109.9L1113.3 819.706Z" fill="white"/>
<path d="M1086.3 943.52V944.52H1087.1L1087.27 943.733L1086.3 943.52ZM28.2969 943.52L27.3199 943.733L27.4919 944.52H28.2969V943.52ZM1.29688 820.012V819.012H0.0546491L0.319946 820.225L1.29688 820.012ZM1113.3 820.012L1114.27 820.225L1114.54 819.012H1113.3V820.012ZM1113.3 819.706V820.706H1114.59L1114.26 819.452L1113.3 819.706ZM1.29688 819.706L0.329718 819.452L0.000104155 820.706H1.29688V819.706ZM4.69727 806.768V805.768H3.92612L3.73011 806.513L4.69727 806.768ZM1109.9 806.768L1110.86 806.513L1110.67 805.768H1109.9V806.768ZM1086.3 943.52V942.52H28.2969V943.52V944.52H1086.3V943.52ZM28.2969 943.52L29.2738 943.306L2.2738 819.798L1.29688 820.012L0.319946 820.225L27.3199 943.733L28.2969 943.52ZM1.29688 820.012V821.012H1113.3V820.012V819.012H1.29688V820.012ZM1113.3 820.012L1112.32 819.798L1085.32 943.306L1086.3 943.52L1087.27 943.733L1114.27 820.225L1113.3 820.012ZM1113.3 819.706V818.706H1.29688V819.706V820.706H1113.3V819.706ZM1.29688 819.706L2.26403 819.96L5.66442 807.022L4.69727 806.768L3.73011 806.513L0.329718 819.452L1.29688 819.706ZM4.69727 806.768V807.768H1109.9V806.768V805.768H4.69727V806.768ZM1109.9 806.768L1108.93 807.022L1112.33 819.96L1113.3 819.706L1114.26 819.452L1110.86 806.513L1109.9 806.768Z" fill="black"/>
<rect x="433.297" y="855.406" width="243" height="39.7573" stroke="black" stroke-width="2"/>
</svg>
