<svg width="1648" height="91" viewBox="0 0 1648 91" fill="none" xmlns="http://www.w3.org/2000/svg">
<rect x="0.5" y="0.5" width="1647" height="90" rx="45" fill="white" stroke="black"/>
<path d="M1577.31 46.1191H1586.26V48.8422H1582.09L1588.08 64.1904V75.0001H1575.62V61.261H1580.48L1577.31 53.0918V46.1191ZM1581.14 62.9526V72.2771H1584.77L1581.14 62.9526Z" fill="black"/>
<path d="M1574.02 75.0001H1568.49V61.261H1567.09V75.0001H1561.56V53.8758L1565.31 46.1191H1574.02V75.0001ZM1567.09 48.8422V58.538H1568.49V48.8422H1567.09Z" fill="black"/>
<path d="M1554.35 57.1764H1559.88V75.0001H1547.42V46.1191H1552.95V72.2771H1554.35V57.1764Z" fill="black"/>
<path d="M1536.6 46.1191H1546.26V48.8422H1544.19V75.0001H1538.66V48.8422H1536.6V46.1191Z" fill="black"/>
<path d="M1535.46 75.0001H1529.93V61.261H1528.53V75.0001H1523V53.8758L1526.75 46.1191H1535.46V75.0001ZM1528.53 48.8422V58.538H1529.93V48.8422H1528.53Z" fill="black"/>
<path d="M1565.27 16H1577.73V18.7231L1575.79 28.4188H1577.73V31.1419H1570.8V42.1579H1577.73V44.881H1565.27V16ZM1572.37 18.7231H1570.8V28.1713L1572.37 18.7231Z" fill="black"/>
<path d="M1552.97 16H1561.92V18.7231H1557.76L1563.74 34.0713V44.881H1551.28V31.1419H1556.15L1552.97 22.9727V16ZM1556.81 32.8335V42.1579H1560.44L1556.81 32.8335Z" fill="black"/>
<path d="M1549.68 44.881H1544.15V31.1419H1542.75V44.881H1537.22V23.7566L1540.98 16H1549.68V44.881ZM1542.75 18.7231V28.4188H1544.15V18.7231H1542.75Z" fill="black"/>
<path d="M1523.08 16H1535.54V31.5957H1530.01V18.7231H1528.61V42.1579H1535.5V44.881H1523.08V16Z" fill="black"/>
<rect x="52.5" y="33.5" width="414" height="24" rx="12" stroke="black"/>
<path d="M72.8369 38.5C75.8131 38.5 78.1748 40.7662 78.1748 43.5C78.1748 46.2338 75.8131 48.5 72.8369 48.5C69.8609 48.4998 67.5 46.2337 67.5 43.5C67.5 40.7663 69.8609 38.5002 72.8369 38.5Z" stroke="black"/>
<line y1="-0.5" x2="7.2911" y2="-0.5" transform="matrix(0.727823 0.685765 -0.727823 0.685765 76.6934 48)" stroke="black"/>
<rect x="477.5" y="33.5" width="160" height="23" rx="11.5" fill="white"/>
<rect x="477.5" y="33.5" width="160" height="23" rx="11.5" stroke="black"/>
<path d="M498.88 40.352V50H497.458V43.844C497.458 43.592 497.464 43.328 497.476 43.052C497.5 42.776 497.524 42.506 497.548 42.242H497.494L494.344 50H493.012L489.952 42.242H489.898C489.922 42.506 489.934 42.776 489.934 43.052C489.946 43.328 489.952 43.61 489.952 43.898V50H488.53V40.352H490.636L493.678 48.11L496.774 40.352H498.88ZM505.614 40.19C506.79 40.19 507.66 40.448 508.224 40.964C508.788 41.48 509.07 42.302 509.07 43.43V50H507.918L507.612 48.632H507.54C507.264 48.98 506.976 49.274 506.676 49.514C506.388 49.742 506.052 49.91 505.668 50.018C505.296 50.126 504.84 50.18 504.3 50.18C503.724 50.18 503.202 50.078 502.734 49.874C502.278 49.67 501.918 49.358 501.654 48.938C501.39 48.506 501.258 47.966 501.258 47.318C501.258 46.358 501.636 45.62 502.392 45.104C503.148 44.576 504.312 44.288 505.884 44.24L507.522 44.186V43.61C507.522 42.806 507.348 42.248 507 41.936C506.652 41.624 506.16 41.468 505.524 41.468C505.02 41.468 504.54 41.546 504.084 41.702C503.628 41.846 503.202 42.014 502.806 42.206L502.32 41.018C502.74 40.79 503.238 40.598 503.814 40.442C504.39 40.274 504.99 40.19 505.614 40.19ZM506.082 45.338C504.882 45.386 504.048 45.578 503.58 45.914C503.124 46.25 502.896 46.724 502.896 47.336C502.896 47.876 503.058 48.272 503.382 48.524C503.718 48.776 504.144 48.902 504.66 48.902C505.476 48.902 506.154 48.68 506.694 48.236C507.234 47.78 507.504 47.084 507.504 46.148V45.284L506.082 45.338ZM525.118 40.352V48.686H526.522V53.33H524.938V50H512.05V40.352H513.634V48.668H517.792V40.352H519.376V48.668H523.552V40.352H525.118ZM532.088 40.172C532.916 40.172 533.624 40.352 534.212 40.712C534.812 41.072 535.268 41.582 535.58 42.242C535.904 42.89 536.066 43.652 536.066 44.528V45.482H529.46C529.484 46.574 529.76 47.408 530.288 47.984C530.828 48.548 531.578 48.83 532.538 48.83C533.15 48.83 533.69 48.776 534.158 48.668C534.638 48.548 535.13 48.38 535.634 48.164V49.55C535.142 49.766 534.656 49.922 534.176 50.018C533.696 50.126 533.126 50.18 532.466 50.18C531.554 50.18 530.744 49.994 530.036 49.622C529.34 49.25 528.794 48.698 528.398 47.966C528.014 47.222 527.822 46.316 527.822 45.248C527.822 44.192 527.996 43.286 528.344 42.53C528.704 41.774 529.202 41.192 529.838 40.784C530.486 40.376 531.236 40.172 532.088 40.172ZM532.07 41.468C531.314 41.468 530.714 41.714 530.27 42.206C529.838 42.686 529.58 43.358 529.496 44.222H534.41C534.41 43.67 534.326 43.19 534.158 42.782C533.99 42.374 533.732 42.056 533.384 41.828C533.048 41.588 532.61 41.468 532.07 41.468ZM540.106 40.352V44.366H545.344V40.352H546.928V50H545.344V45.698H540.106V50H538.522V40.352H540.106ZM555.689 40.352H557.417L553.295 44.996L557.759 50H555.923L551.567 45.104V50H549.983V40.352H551.567V45.032L555.689 40.352ZM567.547 45.158C567.547 45.962 567.439 46.676 567.223 47.3C567.019 47.912 566.719 48.434 566.323 48.866C565.939 49.298 565.465 49.628 564.901 49.856C564.349 50.072 563.731 50.18 563.047 50.18C562.411 50.18 561.823 50.072 561.283 49.856C560.743 49.628 560.275 49.298 559.879 48.866C559.483 48.434 559.171 47.912 558.943 47.3C558.727 46.676 558.619 45.962 558.619 45.158C558.619 44.09 558.799 43.19 559.159 42.458C559.519 41.714 560.035 41.15 560.707 40.766C561.379 40.37 562.177 40.172 563.101 40.172C563.977 40.172 564.745 40.37 565.405 40.766C566.077 41.15 566.599 41.714 566.971 42.458C567.355 43.19 567.547 44.09 567.547 45.158ZM560.257 45.158C560.257 45.914 560.353 46.574 560.545 47.138C560.749 47.69 561.061 48.116 561.481 48.416C561.901 48.716 562.435 48.866 563.083 48.866C563.731 48.866 564.265 48.716 564.685 48.416C565.105 48.116 565.411 47.69 565.603 47.138C565.807 46.574 565.909 45.914 565.909 45.158C565.909 44.39 565.807 43.736 565.603 43.196C565.399 42.656 565.087 42.242 564.667 41.954C564.259 41.654 563.725 41.504 563.065 41.504C562.081 41.504 561.367 41.828 560.923 42.476C560.479 43.124 560.257 44.018 560.257 45.158ZM578.761 50.18C577.909 50.18 577.147 50.006 576.475 49.658C575.815 49.31 575.293 48.77 574.909 48.038C574.537 47.306 574.351 46.37 574.351 45.23C574.351 44.042 574.549 43.076 574.945 42.332C575.341 41.588 575.875 41.042 576.547 40.694C577.231 40.346 578.005 40.172 578.869 40.172C579.361 40.172 579.835 40.226 580.291 40.334C580.747 40.43 581.119 40.55 581.407 40.694L580.921 42.008C580.633 41.9 580.297 41.798 579.913 41.702C579.529 41.606 579.169 41.558 578.833 41.558C578.185 41.558 577.651 41.696 577.231 41.972C576.811 42.248 576.499 42.656 576.295 43.196C576.091 43.736 575.989 44.408 575.989 45.212C575.989 45.98 576.091 46.634 576.295 47.174C576.499 47.714 576.805 48.122 577.213 48.398C577.621 48.674 578.131 48.812 578.743 48.812C579.271 48.812 579.733 48.758 580.129 48.65C580.537 48.542 580.909 48.41 581.245 48.254V49.658C580.921 49.826 580.561 49.952 580.165 50.036C579.781 50.132 579.313 50.18 578.761 50.18ZM591.928 45.158C591.928 45.962 591.82 46.676 591.604 47.3C591.4 47.912 591.1 48.434 590.704 48.866C590.32 49.298 589.846 49.628 589.282 49.856C588.73 50.072 588.112 50.18 587.428 50.18C586.792 50.18 586.204 50.072 585.664 49.856C585.124 49.628 584.656 49.298 584.26 48.866C583.864 48.434 583.552 47.912 583.324 47.3C583.108 46.676 583 45.962 583 45.158C583 44.09 583.18 43.19 583.54 42.458C583.9 41.714 584.416 41.15 585.088 40.766C585.76 40.37 586.558 40.172 587.482 40.172C588.358 40.172 589.126 40.37 589.786 40.766C590.458 41.15 590.98 41.714 591.352 42.458C591.736 43.19 591.928 44.09 591.928 45.158ZM584.638 45.158C584.638 45.914 584.734 46.574 584.926 47.138C585.13 47.69 585.442 48.116 585.862 48.416C586.282 48.716 586.816 48.866 587.464 48.866C588.112 48.866 588.646 48.716 589.066 48.416C589.486 48.116 589.792 47.69 589.984 47.138C590.188 46.574 590.29 45.914 590.29 45.158C590.29 44.39 590.188 43.736 589.984 43.196C589.78 42.656 589.468 42.242 589.048 41.954C588.64 41.654 588.106 41.504 587.446 41.504C586.462 41.504 585.748 41.828 585.304 42.476C584.86 43.124 584.638 44.018 584.638 45.158ZM600.198 40.208C601.158 40.292 601.992 40.544 602.7 40.964C603.42 41.384 603.978 41.948 604.374 42.656C604.77 43.364 604.968 44.204 604.968 45.176C604.968 46.148 604.776 46.994 604.392 47.714C604.008 48.422 603.462 48.986 602.754 49.406C602.046 49.814 601.194 50.06 600.198 50.144V54.32H598.65V50.144C597.702 50.06 596.868 49.814 596.148 49.406C595.428 48.986 594.87 48.422 594.474 47.714C594.078 46.994 593.88 46.148 593.88 45.176C593.88 44.192 594.072 43.346 594.456 42.638C594.84 41.918 595.392 41.354 596.112 40.946C596.832 40.526 597.696 40.28 598.704 40.208V36.32H600.198V40.208ZM598.704 41.522C597.972 41.594 597.372 41.78 596.904 42.08C596.436 42.38 596.088 42.788 595.86 43.304C595.644 43.82 595.536 44.444 595.536 45.176C595.536 45.896 595.644 46.52 595.86 47.048C596.088 47.564 596.436 47.978 596.904 48.29C597.372 48.59 597.972 48.776 598.704 48.848V41.522ZM600.198 48.848C600.918 48.764 601.506 48.572 601.962 48.272C602.43 47.972 602.772 47.564 602.988 47.048C603.216 46.52 603.33 45.896 603.33 45.176C603.33 44.456 603.216 43.838 602.988 43.322C602.76 42.806 602.412 42.398 601.944 42.098C601.488 41.798 600.906 41.612 600.198 41.54V48.848ZM608.975 46.238C608.975 46.346 608.969 46.502 608.957 46.706C608.957 46.898 608.951 47.108 608.939 47.336C608.927 47.552 608.915 47.762 608.903 47.966C608.891 48.158 608.879 48.314 608.867 48.434L614.033 40.352H615.977V50H614.501V44.312C614.501 44.12 614.501 43.868 614.501 43.556C614.513 43.244 614.525 42.938 614.537 42.638C614.549 42.326 614.561 42.092 614.573 41.936L609.443 50H607.481V40.352H608.975V46.238ZM619.642 50H617.806L620.56 45.95C620.188 45.854 619.828 45.704 619.48 45.5C619.132 45.284 618.85 44.99 618.634 44.618C618.418 44.234 618.31 43.76 618.31 43.196C618.31 42.272 618.622 41.57 619.246 41.09C619.87 40.598 620.698 40.352 621.73 40.352H626.05V50H624.466V46.166H622.126L619.642 50ZM619.84 43.214C619.84 43.766 620.044 44.18 620.452 44.456C620.872 44.72 621.454 44.852 622.198 44.852H624.466V41.666H621.892C621.16 41.666 620.632 41.81 620.308 42.098C619.996 42.386 619.84 42.758 619.84 43.214Z" fill="black"/>
<rect x="648.5" y="33.5" width="149" height="23" rx="11.5" fill="white"/>
<rect x="648.5" y="33.5" width="149" height="23" rx="11.5" stroke="black"/>
<path d="M663.184 40.19C664.36 40.19 665.23 40.448 665.794 40.964C666.358 41.48 666.64 42.302 666.64 43.43V50H665.488L665.182 48.632H665.11C664.834 48.98 664.546 49.274 664.246 49.514C663.958 49.742 663.622 49.91 663.238 50.018C662.866 50.126 662.41 50.18 661.87 50.18C661.294 50.18 660.772 50.078 660.304 49.874C659.848 49.67 659.488 49.358 659.224 48.938C658.96 48.506 658.828 47.966 658.828 47.318C658.828 46.358 659.206 45.62 659.962 45.104C660.718 44.576 661.882 44.288 663.454 44.24L665.092 44.186V43.61C665.092 42.806 664.918 42.248 664.57 41.936C664.222 41.624 663.73 41.468 663.094 41.468C662.59 41.468 662.11 41.546 661.654 41.702C661.198 41.846 660.772 42.014 660.376 42.206L659.89 41.018C660.31 40.79 660.808 40.598 661.384 40.442C661.96 40.274 662.56 40.19 663.184 40.19ZM663.652 45.338C662.452 45.386 661.618 45.578 661.15 45.914C660.694 46.25 660.466 46.724 660.466 47.336C660.466 47.876 660.628 48.272 660.952 48.524C661.288 48.776 661.714 48.902 662.23 48.902C663.046 48.902 663.724 48.68 664.264 48.236C664.804 47.78 665.074 47.084 665.074 46.148V45.284L663.652 45.338ZM675.326 40.352H677.054L672.932 44.996L677.396 50H675.56L671.204 45.104V50H669.62V40.352H671.204V45.032L675.326 40.352ZM686.311 40.352V48.668H687.715V53.348H686.185V50H679.471V53.348H677.959V48.668H678.733C679.285 47.9 679.741 47.066 680.101 46.166C680.473 45.254 680.749 44.306 680.929 43.322C681.121 42.326 681.223 41.336 681.235 40.352H686.311ZM682.639 41.594C682.591 42.41 682.465 43.256 682.261 44.132C682.057 44.996 681.793 45.824 681.469 46.616C681.157 47.408 680.791 48.092 680.371 48.668H684.781V41.594H682.639ZM688.094 40.352H689.786L691.874 45.842C691.994 46.166 692.102 46.478 692.198 46.778C692.306 47.078 692.402 47.372 692.486 47.66C692.57 47.936 692.636 48.206 692.684 48.47H692.756C692.828 48.17 692.942 47.78 693.098 47.3C693.254 46.808 693.416 46.316 693.584 45.824L695.546 40.352H697.256L693.098 51.332C692.87 51.932 692.6 52.454 692.288 52.898C691.988 53.354 691.616 53.702 691.172 53.942C690.74 54.194 690.212 54.32 689.588 54.32C689.3 54.32 689.048 54.302 688.832 54.266C688.616 54.242 688.43 54.212 688.274 54.176V52.916C688.406 52.94 688.562 52.964 688.742 52.988C688.934 53.012 689.132 53.024 689.336 53.024C689.708 53.024 690.026 52.952 690.29 52.808C690.566 52.676 690.8 52.478 690.992 52.214C691.184 51.962 691.346 51.662 691.478 51.314L691.982 50.036L688.094 40.352ZM705.774 50H704.172V41.666H701.328C701.208 43.19 701.058 44.492 700.878 45.572C700.698 46.64 700.47 47.51 700.194 48.182C699.918 48.854 699.588 49.346 699.204 49.658C698.82 49.97 698.37 50.126 697.854 50.126C697.698 50.126 697.542 50.114 697.386 50.09C697.242 50.078 697.122 50.048 697.026 50V48.812C697.098 48.836 697.176 48.854 697.26 48.866C697.344 48.878 697.428 48.884 697.512 48.884C697.776 48.884 698.016 48.776 698.232 48.56C698.448 48.344 698.64 48.014 698.808 47.57C698.988 47.126 699.15 46.568 699.294 45.896C699.438 45.212 699.564 44.408 699.672 43.484C699.78 42.56 699.876 41.516 699.96 40.352H705.774V50ZM707.325 40.352H709.017L711.105 45.842C711.225 46.166 711.333 46.478 711.429 46.778C711.537 47.078 711.633 47.372 711.717 47.66C711.801 47.936 711.867 48.206 711.915 48.47H711.987C712.059 48.17 712.173 47.78 712.329 47.3C712.485 46.808 712.647 46.316 712.815 45.824L714.777 40.352H716.487L712.329 51.332C712.101 51.932 711.831 52.454 711.519 52.898C711.219 53.354 710.847 53.702 710.403 53.942C709.971 54.194 709.443 54.32 708.819 54.32C708.531 54.32 708.279 54.302 708.063 54.266C707.847 54.242 707.661 54.212 707.505 54.176V52.916C707.637 52.94 707.793 52.964 707.973 52.988C708.165 53.012 708.363 53.024 708.567 53.024C708.939 53.024 709.257 52.952 709.521 52.808C709.797 52.676 710.031 52.478 710.223 52.214C710.415 51.962 710.577 51.662 710.709 51.314L711.213 50.036L707.325 40.352ZM719.596 40.352V44.366H724.834V40.352H726.418V50H724.834V45.698H719.596V50H718.012V40.352H719.596ZM742.461 40.352V50H740.877V41.702H735.891V50H734.307V40.352H742.461ZM749.266 40.172C750.094 40.172 750.802 40.352 751.39 40.712C751.99 41.072 752.446 41.582 752.758 42.242C753.082 42.89 753.244 43.652 753.244 44.528V45.482H746.638C746.662 46.574 746.938 47.408 747.466 47.984C748.006 48.548 748.756 48.83 749.716 48.83C750.328 48.83 750.868 48.776 751.336 48.668C751.816 48.548 752.308 48.38 752.812 48.164V49.55C752.32 49.766 751.834 49.922 751.354 50.018C750.874 50.126 750.304 50.18 749.644 50.18C748.732 50.18 747.922 49.994 747.214 49.622C746.518 49.25 745.972 48.698 745.576 47.966C745.192 47.222 745 46.316 745 45.248C745 44.192 745.174 43.286 745.522 42.53C745.882 41.774 746.38 41.192 747.016 40.784C747.664 40.376 748.414 40.172 749.266 40.172ZM749.248 41.468C748.492 41.468 747.892 41.714 747.448 42.206C747.016 42.686 746.758 43.358 746.674 44.222H751.588C751.588 43.67 751.504 43.19 751.336 42.782C751.168 42.374 750.91 42.056 750.562 41.828C750.226 41.588 749.788 41.468 749.248 41.468ZM763.044 50H761.442V41.666H758.598C758.478 43.19 758.328 44.492 758.148 45.572C757.968 46.64 757.74 47.51 757.464 48.182C757.188 48.854 756.858 49.346 756.474 49.658C756.09 49.97 755.64 50.126 755.124 50.126C754.968 50.126 754.812 50.114 754.656 50.09C754.512 50.078 754.392 50.048 754.296 50V48.812C754.368 48.836 754.446 48.854 754.53 48.866C754.614 48.878 754.698 48.884 754.782 48.884C755.046 48.884 755.286 48.776 755.502 48.56C755.718 48.344 755.91 48.014 756.078 47.57C756.258 47.126 756.42 46.568 756.564 45.896C756.708 45.212 756.834 44.408 756.942 43.484C757.05 42.56 757.146 41.516 757.23 40.352H763.044V50ZM767.6 46.238C767.6 46.346 767.594 46.502 767.582 46.706C767.582 46.898 767.576 47.108 767.564 47.336C767.552 47.552 767.54 47.762 767.528 47.966C767.516 48.158 767.504 48.314 767.492 48.434L772.658 40.352H774.602V50H773.126V44.312C773.126 44.12 773.126 43.868 773.126 43.556C773.138 43.244 773.15 42.938 773.162 42.638C773.174 42.326 773.186 42.092 773.198 41.936L768.068 50H766.106V40.352H767.6V46.238ZM779.257 40.352V44.366H784.495V40.352H786.079V50H784.495V45.698H779.257V50H777.673V40.352H779.257Z" fill="black"/>
<rect x="808.5" y="33.5" width="179" height="23" rx="11.5" fill="white"/>
<rect x="808.5" y="33.5" width="179" height="23" rx="11.5" stroke="black"/>
<path d="M821.114 40.352V44.366H826.352V40.352H827.936V50H826.352V45.698H821.114V50H819.53V40.352H821.114ZM834.717 40.172C835.545 40.172 836.253 40.352 836.841 40.712C837.441 41.072 837.897 41.582 838.209 42.242C838.533 42.89 838.695 43.652 838.695 44.528V45.482H832.089C832.113 46.574 832.389 47.408 832.917 47.984C833.457 48.548 834.207 48.83 835.167 48.83C835.779 48.83 836.319 48.776 836.787 48.668C837.267 48.548 837.759 48.38 838.263 48.164V49.55C837.771 49.766 837.285 49.922 836.805 50.018C836.325 50.126 835.755 50.18 835.095 50.18C834.183 50.18 833.373 49.994 832.665 49.622C831.969 49.25 831.423 48.698 831.027 47.966C830.643 47.222 830.451 46.316 830.451 45.248C830.451 44.192 830.625 43.286 830.973 42.53C831.333 41.774 831.831 41.192 832.467 40.784C833.115 40.376 833.865 40.172 834.717 40.172ZM834.699 41.468C833.943 41.468 833.343 41.714 832.899 42.206C832.467 42.686 832.209 43.358 832.125 44.222H837.039C837.039 43.67 836.955 43.19 836.787 42.782C836.619 42.374 836.361 42.056 836.013 41.828C835.677 41.588 835.239 41.468 834.699 41.468ZM845.021 50.18C844.169 50.18 843.407 50.006 842.735 49.658C842.075 49.31 841.553 48.77 841.169 48.038C840.797 47.306 840.611 46.37 840.611 45.23C840.611 44.042 840.809 43.076 841.205 42.332C841.601 41.588 842.135 41.042 842.807 40.694C843.491 40.346 844.265 40.172 845.129 40.172C845.621 40.172 846.095 40.226 846.551 40.334C847.007 40.43 847.379 40.55 847.667 40.694L847.181 42.008C846.893 41.9 846.557 41.798 846.173 41.702C845.789 41.606 845.429 41.558 845.093 41.558C844.445 41.558 843.911 41.696 843.491 41.972C843.071 42.248 842.759 42.656 842.555 43.196C842.351 43.736 842.249 44.408 842.249 45.212C842.249 45.98 842.351 46.634 842.555 47.174C842.759 47.714 843.065 48.122 843.473 48.398C843.881 48.674 844.391 48.812 845.003 48.812C845.531 48.812 845.993 48.758 846.389 48.65C846.797 48.542 847.169 48.41 847.505 48.254V49.658C847.181 49.826 846.821 49.952 846.425 50.036C846.041 50.132 845.573 50.18 845.021 50.18ZM856.46 41.684H853.31V50H851.744V41.684H848.63V40.352H856.46V41.684ZM861.91 40.172C862.738 40.172 863.446 40.352 864.034 40.712C864.634 41.072 865.09 41.582 865.402 42.242C865.726 42.89 865.888 43.652 865.888 44.528V45.482H859.282C859.306 46.574 859.582 47.408 860.11 47.984C860.65 48.548 861.4 48.83 862.36 48.83C862.972 48.83 863.512 48.776 863.98 48.668C864.46 48.548 864.952 48.38 865.456 48.164V49.55C864.964 49.766 864.478 49.922 863.998 50.018C863.518 50.126 862.948 50.18 862.288 50.18C861.376 50.18 860.566 49.994 859.858 49.622C859.162 49.25 858.616 48.698 858.22 47.966C857.836 47.222 857.644 46.316 857.644 45.248C857.644 44.192 857.818 43.286 858.166 42.53C858.526 41.774 859.024 41.192 859.66 40.784C860.308 40.376 861.058 40.172 861.91 40.172ZM861.892 41.468C861.136 41.468 860.536 41.714 860.092 42.206C859.66 42.686 859.402 43.358 859.318 44.222H864.232C864.232 43.67 864.148 43.19 863.98 42.782C863.812 42.374 863.554 42.056 863.206 41.828C862.87 41.588 862.432 41.468 861.892 41.468ZM872.934 40.172C874.122 40.172 875.076 40.586 875.796 41.414C876.528 42.242 876.894 43.49 876.894 45.158C876.894 46.25 876.726 47.174 876.39 47.93C876.066 48.674 875.604 49.238 875.004 49.622C874.416 49.994 873.72 50.18 872.916 50.18C872.424 50.18 871.986 50.114 871.602 49.982C871.218 49.85 870.888 49.682 870.612 49.478C870.348 49.262 870.12 49.028 869.928 48.776H869.82C869.844 48.98 869.868 49.238 869.892 49.55C869.916 49.862 869.928 50.132 869.928 50.36V54.32H868.344V40.352H869.64L869.856 41.666H869.928C870.12 41.39 870.348 41.138 870.612 40.91C870.888 40.682 871.212 40.502 871.584 40.37C871.968 40.238 872.418 40.172 872.934 40.172ZM872.646 41.504C871.998 41.504 871.476 41.63 871.08 41.882C870.684 42.122 870.396 42.488 870.216 42.98C870.036 43.472 869.94 44.096 869.928 44.852V45.158C869.928 45.95 870.012 46.622 870.18 47.174C870.348 47.726 870.63 48.146 871.026 48.434C871.434 48.722 871.986 48.866 872.682 48.866C873.27 48.866 873.75 48.704 874.122 48.38C874.506 48.056 874.788 47.618 874.968 47.066C875.16 46.502 875.256 45.86 875.256 45.14C875.256 44.036 875.04 43.154 874.608 42.494C874.188 41.834 873.534 41.504 872.646 41.504ZM885.125 40.352H886.853L882.731 44.996L887.195 50H885.359L881.003 45.104V50H879.419V40.352H881.003V45.032L885.125 40.352ZM890.44 46.238C890.44 46.346 890.434 46.502 890.422 46.706C890.422 46.898 890.416 47.108 890.404 47.336C890.392 47.552 890.38 47.762 890.368 47.966C890.356 48.158 890.344 48.314 890.332 48.434L895.498 40.352H897.442V50H895.966V44.312C895.966 44.12 895.966 43.868 895.966 43.556C895.978 43.244 895.99 42.938 896.002 42.638C896.014 42.326 896.026 42.092 896.038 41.936L890.908 50H888.946V40.352H890.44V46.238ZM902.096 40.352V44.366H907.334V40.352H908.918V50H907.334V45.698H902.096V50H900.512V40.352H902.096ZM915.627 40.19C916.803 40.19 917.673 40.448 918.237 40.964C918.801 41.48 919.083 42.302 919.083 43.43V50H917.931L917.625 48.632H917.553C917.277 48.98 916.989 49.274 916.689 49.514C916.401 49.742 916.065 49.91 915.681 50.018C915.309 50.126 914.853 50.18 914.313 50.18C913.737 50.18 913.215 50.078 912.747 49.874C912.291 49.67 911.931 49.358 911.667 48.938C911.403 48.506 911.271 47.966 911.271 47.318C911.271 46.358 911.649 45.62 912.405 45.104C913.161 44.576 914.325 44.288 915.897 44.24L917.535 44.186V43.61C917.535 42.806 917.361 42.248 917.013 41.936C916.665 41.624 916.173 41.468 915.537 41.468C915.033 41.468 914.553 41.546 914.097 41.702C913.641 41.846 913.215 42.014 912.819 42.206L912.333 41.018C912.753 40.79 913.251 40.598 913.827 40.442C914.403 40.274 915.003 40.19 915.627 40.19ZM916.095 45.338C914.895 45.386 914.061 45.578 913.593 45.914C913.137 46.25 912.909 46.724 912.909 47.336C912.909 47.876 913.071 48.272 913.395 48.524C913.731 48.776 914.157 48.902 914.673 48.902C915.489 48.902 916.167 48.68 916.707 48.236C917.247 47.78 917.517 47.084 917.517 46.148V45.284L916.095 45.338ZM934.061 40.352V48.668H935.465V53.348H933.935V50H927.221V53.348H925.709V48.668H926.483C927.035 47.9 927.491 47.066 927.851 46.166C928.223 45.254 928.499 44.306 928.679 43.322C928.871 42.326 928.973 41.336 928.985 40.352H934.061ZM930.389 41.594C930.341 42.41 930.215 43.256 930.011 44.132C929.807 44.996 929.543 45.824 929.219 46.616C928.907 47.408 928.541 48.092 928.121 48.668H932.531V41.594H930.389ZM941.01 40.19C942.186 40.19 943.056 40.448 943.62 40.964C944.184 41.48 944.466 42.302 944.466 43.43V50H943.314L943.008 48.632H942.936C942.66 48.98 942.372 49.274 942.072 49.514C941.784 49.742 941.448 49.91 941.064 50.018C940.692 50.126 940.236 50.18 939.696 50.18C939.12 50.18 938.598 50.078 938.13 49.874C937.674 49.67 937.314 49.358 937.05 48.938C936.786 48.506 936.654 47.966 936.654 47.318C936.654 46.358 937.032 45.62 937.788 45.104C938.544 44.576 939.708 44.288 941.28 44.24L942.918 44.186V43.61C942.918 42.806 942.744 42.248 942.396 41.936C942.048 41.624 941.556 41.468 940.92 41.468C940.416 41.468 939.936 41.546 939.48 41.702C939.024 41.846 938.598 42.014 938.202 42.206L937.716 41.018C938.136 40.79 938.634 40.598 939.21 40.442C939.786 40.274 940.386 40.19 941.01 40.19ZM941.478 45.338C940.278 45.386 939.444 45.578 938.976 45.914C938.52 46.25 938.292 46.724 938.292 47.336C938.292 47.876 938.454 48.272 938.778 48.524C939.114 48.776 939.54 48.902 940.056 48.902C940.872 48.902 941.55 48.68 942.09 48.236C942.63 47.78 942.9 47.084 942.9 46.148V45.284L941.478 45.338ZM952.036 40.172C953.224 40.172 954.178 40.586 954.898 41.414C955.63 42.242 955.996 43.49 955.996 45.158C955.996 46.25 955.828 47.174 955.492 47.93C955.168 48.674 954.706 49.238 954.106 49.622C953.518 49.994 952.822 50.18 952.018 50.18C951.526 50.18 951.088 50.114 950.704 49.982C950.32 49.85 949.99 49.682 949.714 49.478C949.45 49.262 949.222 49.028 949.03 48.776H948.922C948.946 48.98 948.97 49.238 948.994 49.55C949.018 49.862 949.03 50.132 949.03 50.36V54.32H947.446V40.352H948.742L948.958 41.666H949.03C949.222 41.39 949.45 41.138 949.714 40.91C949.99 40.682 950.314 40.502 950.686 40.37C951.07 40.238 951.52 40.172 952.036 40.172ZM951.748 41.504C951.1 41.504 950.578 41.63 950.182 41.882C949.786 42.122 949.498 42.488 949.318 42.98C949.138 43.472 949.042 44.096 949.03 44.852V45.158C949.03 45.95 949.114 46.622 949.282 47.174C949.45 47.726 949.732 48.146 950.128 48.434C950.536 48.722 951.088 48.866 951.784 48.866C952.372 48.866 952.852 48.704 953.224 48.38C953.608 48.056 953.89 47.618 954.07 47.066C954.262 46.502 954.358 45.86 954.358 45.14C954.358 44.036 954.142 43.154 953.71 42.494C953.29 41.834 952.636 41.504 951.748 41.504ZM962.966 44.312C963.806 44.312 964.502 44.414 965.054 44.618C965.606 44.822 966.02 45.128 966.296 45.536C966.584 45.932 966.728 46.436 966.728 47.048C966.728 47.648 966.59 48.17 966.314 48.614C966.05 49.058 965.636 49.4 965.072 49.64C964.508 49.88 963.782 50 962.894 50H958.52V40.352H960.104V44.312H962.966ZM965.144 47.138C965.144 46.55 964.934 46.154 964.514 45.95C964.106 45.734 963.53 45.626 962.786 45.626H960.104V48.722H962.822C963.494 48.722 964.046 48.602 964.478 48.362C964.922 48.122 965.144 47.714 965.144 47.138ZM969.802 50H967.966L970.72 45.95C970.348 45.854 969.988 45.704 969.64 45.5C969.292 45.284 969.01 44.99 968.794 44.618C968.578 44.234 968.47 43.76 968.47 43.196C968.47 42.272 968.782 41.57 969.406 41.09C970.03 40.598 970.858 40.352 971.89 40.352H976.21V50H974.626V46.166H972.286L969.802 50ZM970 43.214C970 43.766 970.204 44.18 970.612 44.456C971.032 44.72 971.614 44.852 972.358 44.852H974.626V41.666H972.052C971.32 41.666 970.792 41.81 970.468 42.098C970.156 42.386 970 42.758 970 43.214Z" fill="black"/>
<rect x="998.5" y="33.5" width="108" height="23" rx="11.5" fill="white"/>
<rect x="998.5" y="33.5" width="108" height="23" rx="11.5" stroke="black"/>
<path d="M1017.29 42.782C1017.29 43.382 1017.11 43.85 1016.75 44.186C1016.39 44.522 1015.93 44.75 1015.36 44.87V44.942C1015.96 45.026 1016.48 45.242 1016.93 45.59C1017.37 45.926 1017.59 46.454 1017.59 47.174C1017.59 47.582 1017.52 47.96 1017.36 48.308C1017.22 48.656 1016.99 48.956 1016.68 49.208C1016.36 49.46 1015.96 49.658 1015.47 49.802C1014.98 49.934 1014.38 50 1013.69 50H1009.53V40.352H1013.67C1014.35 40.352 1014.97 40.43 1015.51 40.586C1016.06 40.73 1016.49 40.982 1016.8 41.342C1017.13 41.69 1017.29 42.17 1017.29 42.782ZM1015.96 47.174C1015.96 46.622 1015.75 46.226 1015.33 45.986C1014.91 45.746 1014.29 45.626 1013.47 45.626H1011.11V48.722H1013.51C1014.3 48.722 1014.91 48.608 1015.33 48.38C1015.75 48.14 1015.96 47.738 1015.96 47.174ZM1015.69 42.98C1015.69 42.524 1015.52 42.194 1015.18 41.99C1014.86 41.774 1014.32 41.666 1013.58 41.666H1011.11V44.312H1013.29C1014.07 44.312 1014.67 44.204 1015.07 43.988C1015.48 43.772 1015.69 43.436 1015.69 42.98ZM1025.61 40.352H1027.34L1023.21 44.996L1027.68 50H1025.84L1021.49 45.104V50H1019.9V40.352H1021.49V45.032L1025.61 40.352ZM1037.46 45.158C1037.46 45.962 1037.36 46.676 1037.14 47.3C1036.94 47.912 1036.64 48.434 1036.24 48.866C1035.86 49.298 1035.38 49.628 1034.82 49.856C1034.27 50.072 1033.65 50.18 1032.96 50.18C1032.33 50.18 1031.74 50.072 1031.2 49.856C1030.66 49.628 1030.19 49.298 1029.8 48.866C1029.4 48.434 1029.09 47.912 1028.86 47.3C1028.64 46.676 1028.54 45.962 1028.54 45.158C1028.54 44.09 1028.72 43.19 1029.08 42.458C1029.44 41.714 1029.95 41.15 1030.62 40.766C1031.3 40.37 1032.09 40.172 1033.02 40.172C1033.89 40.172 1034.66 40.37 1035.32 40.766C1035.99 41.15 1036.52 41.714 1036.89 42.458C1037.27 43.19 1037.46 44.09 1037.46 45.158ZM1030.17 45.158C1030.17 45.914 1030.27 46.574 1030.46 47.138C1030.67 47.69 1030.98 48.116 1031.4 48.416C1031.82 48.716 1032.35 48.866 1033 48.866C1033.65 48.866 1034.18 48.716 1034.6 48.416C1035.02 48.116 1035.33 47.69 1035.52 47.138C1035.72 46.574 1035.83 45.914 1035.83 45.158C1035.83 44.39 1035.72 43.736 1035.52 43.196C1035.32 42.656 1035 42.242 1034.58 41.954C1034.18 41.654 1033.64 41.504 1032.98 41.504C1032 41.504 1031.28 41.828 1030.84 42.476C1030.4 43.124 1030.17 44.018 1030.17 45.158ZM1041.56 40.352V44.366H1046.8V40.352H1048.38V50H1046.8V45.698H1041.56V50H1039.98V40.352H1041.56ZM1058.1 41.684H1054.95V50H1053.38V41.684H1050.27V40.352H1058.1V41.684ZM1063.65 40.19C1064.83 40.19 1065.7 40.448 1066.26 40.964C1066.82 41.48 1067.11 42.302 1067.11 43.43V50H1065.95L1065.65 48.632H1065.58C1065.3 48.98 1065.01 49.274 1064.71 49.514C1064.42 49.742 1064.09 49.91 1063.7 50.018C1063.33 50.126 1062.88 50.18 1062.34 50.18C1061.76 50.18 1061.24 50.078 1060.77 49.874C1060.31 49.67 1059.95 49.358 1059.69 48.938C1059.43 48.506 1059.29 47.966 1059.29 47.318C1059.29 46.358 1059.67 45.62 1060.43 45.104C1061.18 44.576 1062.35 44.288 1063.92 44.24L1065.56 44.186V43.61C1065.56 42.806 1065.38 42.248 1065.04 41.936C1064.69 41.624 1064.2 41.468 1063.56 41.468C1063.06 41.468 1062.58 41.546 1062.12 41.702C1061.66 41.846 1061.24 42.014 1060.84 42.206L1060.36 41.018C1060.78 40.79 1061.27 40.598 1061.85 40.442C1062.43 40.274 1063.03 40.19 1063.65 40.19ZM1064.12 45.338C1062.92 45.386 1062.08 45.578 1061.62 45.914C1061.16 46.25 1060.93 46.724 1060.93 47.336C1060.93 47.876 1061.09 48.272 1061.42 48.524C1061.75 48.776 1062.18 48.902 1062.7 48.902C1063.51 48.902 1064.19 48.68 1064.73 48.236C1065.27 47.78 1065.54 47.084 1065.54 46.148V45.284L1064.12 45.338ZM1075.79 40.352H1077.52L1073.4 44.996L1077.86 50H1076.03L1071.67 45.104V50H1070.09V40.352H1071.67V45.032L1075.79 40.352ZM1086.27 41.684H1083.12V50H1081.56V41.684H1078.44V40.352H1086.27V41.684ZM1091.72 40.172C1092.55 40.172 1093.26 40.352 1093.85 40.712C1094.45 41.072 1094.9 41.582 1095.22 42.242C1095.54 42.89 1095.7 43.652 1095.7 44.528V45.482H1089.1C1089.12 46.574 1089.4 47.408 1089.92 47.984C1090.46 48.548 1091.21 48.83 1092.17 48.83C1092.79 48.83 1093.33 48.776 1093.79 48.668C1094.27 48.548 1094.77 48.38 1095.27 48.164V49.55C1094.78 49.766 1094.29 49.922 1093.81 50.018C1093.33 50.126 1092.76 50.18 1092.1 50.18C1091.19 50.18 1090.38 49.994 1089.67 49.622C1088.98 49.25 1088.43 48.698 1088.03 47.966C1087.65 47.222 1087.46 46.316 1087.46 45.248C1087.46 44.192 1087.63 43.286 1087.98 42.53C1088.34 41.774 1088.84 41.192 1089.47 40.784C1090.12 40.376 1090.87 40.172 1091.72 40.172ZM1091.71 41.468C1090.95 41.468 1090.35 41.714 1089.91 42.206C1089.47 42.686 1089.22 43.358 1089.13 44.222H1094.05C1094.05 43.67 1093.96 43.19 1093.79 42.782C1093.63 42.374 1093.37 42.056 1093.02 41.828C1092.68 41.588 1092.25 41.468 1091.71 41.468Z" fill="black"/>
<rect x="1117.5" y="33.5" width="114" height="23" rx="11.5" fill="white"/>
<rect x="1117.5" y="33.5" width="114" height="23" rx="11.5" stroke="black"/>
<path d="M1135.19 41.684H1132.04V50H1130.47V41.684H1127.36V40.352H1135.19V41.684ZM1140.64 40.172C1141.47 40.172 1142.18 40.352 1142.76 40.712C1143.36 41.072 1143.82 41.582 1144.13 42.242C1144.46 42.89 1144.62 43.652 1144.62 44.528V45.482H1138.01C1138.04 46.574 1138.31 47.408 1138.84 47.984C1139.38 48.548 1140.13 48.83 1141.09 48.83C1141.7 48.83 1142.24 48.776 1142.71 48.668C1143.19 48.548 1143.68 48.38 1144.19 48.164V49.55C1143.69 49.766 1143.21 49.922 1142.73 50.018C1142.25 50.126 1141.68 50.18 1141.02 50.18C1140.11 50.18 1139.3 49.994 1138.59 49.622C1137.89 49.25 1137.35 48.698 1136.95 47.966C1136.57 47.222 1136.37 46.316 1136.37 45.248C1136.37 44.192 1136.55 43.286 1136.9 42.53C1137.26 41.774 1137.75 41.192 1138.39 40.784C1139.04 40.376 1139.79 40.172 1140.64 40.172ZM1140.62 41.468C1139.87 41.468 1139.27 41.714 1138.82 42.206C1138.39 42.686 1138.13 43.358 1138.05 44.222H1142.96C1142.96 43.67 1142.88 43.19 1142.71 42.782C1142.54 42.374 1142.28 42.056 1141.94 41.828C1141.6 41.588 1141.16 41.468 1140.62 41.468ZM1154.42 50H1152.82V41.666H1149.97C1149.85 43.19 1149.7 44.492 1149.52 45.572C1149.34 46.64 1149.11 47.51 1148.84 48.182C1148.56 48.854 1148.23 49.346 1147.85 49.658C1147.46 49.97 1147.01 50.126 1146.5 50.126C1146.34 50.126 1146.19 50.114 1146.03 50.09C1145.89 50.078 1145.77 50.048 1145.67 50V48.812C1145.74 48.836 1145.82 48.854 1145.9 48.866C1145.99 48.878 1146.07 48.884 1146.16 48.884C1146.42 48.884 1146.66 48.776 1146.88 48.56C1147.09 48.344 1147.28 48.014 1147.45 47.57C1147.63 47.126 1147.79 46.568 1147.94 45.896C1148.08 45.212 1148.21 44.408 1148.32 43.484C1148.42 42.56 1148.52 41.516 1148.6 40.352H1154.42V50ZM1161.21 40.172C1162.04 40.172 1162.74 40.352 1163.33 40.712C1163.93 41.072 1164.39 41.582 1164.7 42.242C1165.02 42.89 1165.19 43.652 1165.19 44.528V45.482H1158.58C1158.6 46.574 1158.88 47.408 1159.41 47.984C1159.95 48.548 1160.7 48.83 1161.66 48.83C1162.27 48.83 1162.81 48.776 1163.28 48.668C1163.76 48.548 1164.25 48.38 1164.75 48.164V49.55C1164.26 49.766 1163.78 49.922 1163.3 50.018C1162.82 50.126 1162.25 50.18 1161.59 50.18C1160.67 50.18 1159.86 49.994 1159.16 49.622C1158.46 49.25 1157.91 48.698 1157.52 47.966C1157.13 47.222 1156.94 46.316 1156.94 45.248C1156.94 44.192 1157.12 43.286 1157.46 42.53C1157.82 41.774 1158.32 41.192 1158.96 40.784C1159.61 40.376 1160.36 40.172 1161.21 40.172ZM1161.19 41.468C1160.43 41.468 1159.83 41.714 1159.39 42.206C1158.96 42.686 1158.7 43.358 1158.62 44.222H1163.53C1163.53 43.67 1163.45 43.19 1163.28 42.782C1163.11 42.374 1162.85 42.056 1162.5 41.828C1162.17 41.588 1161.73 41.468 1161.19 41.468ZM1173.53 40.352V41.684H1169.23V50H1167.64V40.352H1173.53ZM1180.02 40.172C1181.21 40.172 1182.16 40.586 1182.88 41.414C1183.61 42.242 1183.98 43.49 1183.98 45.158C1183.98 46.25 1183.81 47.174 1183.47 47.93C1183.15 48.674 1182.69 49.238 1182.09 49.622C1181.5 49.994 1180.8 50.18 1180 50.18C1179.51 50.18 1179.07 50.114 1178.69 49.982C1178.3 49.85 1177.97 49.682 1177.7 49.478C1177.43 49.262 1177.2 49.028 1177.01 48.776H1176.9C1176.93 48.98 1176.95 49.238 1176.98 49.55C1177 49.862 1177.01 50.132 1177.01 50.36V54.32H1175.43V40.352H1176.72L1176.94 41.666H1177.01C1177.2 41.39 1177.43 41.138 1177.7 40.91C1177.97 40.682 1178.3 40.502 1178.67 40.37C1179.05 40.238 1179.5 40.172 1180.02 40.172ZM1179.73 41.504C1179.08 41.504 1178.56 41.63 1178.16 41.882C1177.77 42.122 1177.48 42.488 1177.3 42.98C1177.12 43.472 1177.02 44.096 1177.01 44.852V45.158C1177.01 45.95 1177.1 46.622 1177.26 47.174C1177.43 47.726 1177.71 48.146 1178.11 48.434C1178.52 48.722 1179.07 48.866 1179.77 48.866C1180.35 48.866 1180.83 48.704 1181.21 48.38C1181.59 48.056 1181.87 47.618 1182.05 47.066C1182.24 46.502 1182.34 45.86 1182.34 45.14C1182.34 44.036 1182.12 43.154 1181.69 42.494C1181.27 41.834 1180.62 41.504 1179.73 41.504ZM1190.16 40.19C1191.33 40.19 1192.2 40.448 1192.77 40.964C1193.33 41.48 1193.61 42.302 1193.61 43.43V50H1192.46L1192.15 48.632H1192.08C1191.81 48.98 1191.52 49.274 1191.22 49.514C1190.93 49.742 1190.59 49.91 1190.21 50.018C1189.84 50.126 1189.38 50.18 1188.84 50.18C1188.27 50.18 1187.74 50.078 1187.28 49.874C1186.82 49.67 1186.46 49.358 1186.2 48.938C1185.93 48.506 1185.8 47.966 1185.8 47.318C1185.8 46.358 1186.18 45.62 1186.93 45.104C1187.69 44.576 1188.85 44.288 1190.43 44.24L1192.06 44.186V43.61C1192.06 42.806 1191.89 42.248 1191.54 41.936C1191.19 41.624 1190.7 41.468 1190.07 41.468C1189.56 41.468 1189.08 41.546 1188.63 41.702C1188.17 41.846 1187.74 42.014 1187.35 42.206L1186.86 41.018C1187.28 40.79 1187.78 40.598 1188.36 40.442C1188.93 40.274 1189.53 40.19 1190.16 40.19ZM1190.62 45.338C1189.42 45.386 1188.59 45.578 1188.12 45.914C1187.67 46.25 1187.44 46.724 1187.44 47.336C1187.44 47.876 1187.6 48.272 1187.92 48.524C1188.26 48.776 1188.69 48.902 1189.2 48.902C1190.02 48.902 1190.7 48.68 1191.24 48.236C1191.78 47.78 1192.05 47.084 1192.05 46.148V45.284L1190.62 45.338ZM1206.94 40.352V50H1205.52V43.844C1205.52 43.592 1205.53 43.328 1205.54 43.052C1205.56 42.776 1205.59 42.506 1205.61 42.242H1205.56L1202.41 50H1201.07L1198.01 42.242H1197.96C1197.98 42.506 1198 42.776 1198 43.052C1198.01 43.328 1198.01 43.61 1198.01 43.898V50H1196.59V40.352H1198.7L1201.74 48.11L1204.84 40.352H1206.94ZM1220.37 40.352V50H1218.95V43.844C1218.95 43.592 1218.96 43.328 1218.97 43.052C1218.99 42.776 1219.02 42.506 1219.04 42.242H1218.99L1215.84 50H1214.5L1211.44 42.242H1211.39C1211.41 42.506 1211.43 42.776 1211.43 43.052C1211.44 43.328 1211.44 43.61 1211.44 43.898V50H1210.02V40.352H1212.13L1215.17 48.11L1218.27 40.352H1220.37Z" fill="black"/>
<rect x="1242.5" y="33.5" width="43" height="23" rx="11.5" stroke="black"/>
<rect width="15" height="2" rx="1" transform="matrix(0.707107 -0.707107 -0.707107 -0.707107 1259.4 51.0107)" fill="black"/>
<rect width="15" height="2" rx="1" transform="matrix(0.707107 0.707107 0.707107 -0.707107 1257.99 40.4043)" fill="black"/>
</svg>
