<svg width="1649" height="89" viewBox="0 0 1649 89" fill="none" xmlns="http://www.w3.org/2000/svg">
<rect x="0.5" y="0.5" width="1647.08" height="88.0001" rx="44.0001" fill="white"/>
<rect x="0.5" y="0.5" width="1647.08" height="88.0001" rx="44.0001" stroke="black"/>
<rect x="56.5" y="32.5" width="414" height="24" rx="12" stroke="black"/>
<path d="M76.8369 37.5C79.8131 37.5 82.1748 39.7662 82.1748 42.5C82.1748 45.2338 79.8131 47.5 76.8369 47.5C73.8609 47.4998 71.5 45.2337 71.5 42.5C71.5 39.7663 73.8609 37.5002 76.8369 37.5Z" stroke="black"/>
<line y1="-0.5" x2="7.2911" y2="-0.5" transform="matrix(0.727823 0.685765 -0.727823 0.685765 80.6934 47)" stroke="black"/>
<rect x="481.5" y="32.5" width="169" height="23" rx="11.5" fill="white"/>
<rect x="481.5" y="32.5" width="169" height="23" rx="11.5" stroke="black"/>
<path d="M498.236 39.352H499.964L495.842 43.996L500.306 49H498.47L494.114 44.104V49H492.53V39.352H494.114V44.032L498.236 39.352ZM506.647 39.172C507.835 39.172 508.789 39.586 509.509 40.414C510.241 41.242 510.607 42.49 510.607 44.158C510.607 45.25 510.439 46.174 510.103 46.93C509.779 47.674 509.317 48.238 508.717 48.622C508.129 48.994 507.433 49.18 506.629 49.18C506.137 49.18 505.699 49.114 505.315 48.982C504.931 48.85 504.601 48.682 504.325 48.478C504.061 48.262 503.833 48.028 503.641 47.776H503.533C503.557 47.98 503.581 48.238 503.605 48.55C503.629 48.862 503.641 49.132 503.641 49.36V53.32H502.057V39.352H503.353L503.569 40.666H503.641C503.833 40.39 504.061 40.138 504.325 39.91C504.601 39.682 504.925 39.502 505.297 39.37C505.681 39.238 506.131 39.172 506.647 39.172ZM506.359 40.504C505.711 40.504 505.189 40.63 504.793 40.882C504.397 41.122 504.109 41.488 503.929 41.98C503.749 42.472 503.653 43.096 503.641 43.852V44.158C503.641 44.95 503.725 45.622 503.893 46.174C504.061 46.726 504.343 47.146 504.739 47.434C505.147 47.722 505.699 47.866 506.395 47.866C506.983 47.866 507.463 47.704 507.835 47.38C508.219 47.056 508.501 46.618 508.681 46.066C508.873 45.502 508.969 44.86 508.969 44.14C508.969 43.036 508.753 42.154 508.321 41.494C507.901 40.834 507.247 40.504 506.359 40.504ZM514.626 45.238C514.626 45.346 514.62 45.502 514.608 45.706C514.608 45.898 514.602 46.108 514.59 46.336C514.578 46.552 514.566 46.762 514.554 46.966C514.542 47.158 514.53 47.314 514.518 47.434L519.684 39.352H521.628V49H520.152V43.312C520.152 43.12 520.152 42.868 520.152 42.556C520.164 42.244 520.176 41.938 520.188 41.638C520.2 41.326 520.212 41.092 520.224 40.936L515.094 49H513.132V39.352H514.626V45.238ZM535.048 39.352V49H533.626V42.844C533.626 42.592 533.632 42.328 533.644 42.052C533.668 41.776 533.692 41.506 533.716 41.242H533.662L530.512 49H529.18L526.12 41.242H526.066C526.09 41.506 526.102 41.776 526.102 42.052C526.114 42.328 526.12 42.61 526.12 42.898V49H524.698V39.352H526.804L529.846 47.11L532.942 39.352H535.048ZM539.622 45.238C539.622 45.346 539.616 45.502 539.604 45.706C539.604 45.898 539.598 46.108 539.586 46.336C539.574 46.552 539.562 46.762 539.55 46.966C539.538 47.158 539.526 47.314 539.514 47.434L544.68 39.352H546.624V49H545.148V43.312C545.148 43.12 545.148 42.868 545.148 42.556C545.16 42.244 545.172 41.938 545.184 41.638C545.196 41.326 545.208 41.092 545.22 40.936L540.09 49H538.128V39.352H539.622V45.238ZM551.278 39.352V43.366H556.516V39.352H558.1V49H556.516V44.698H551.278V49H549.694V39.352H551.278ZM564.809 39.19C565.985 39.19 566.855 39.448 567.419 39.964C567.983 40.48 568.265 41.302 568.265 42.43V49H567.113L566.807 47.632H566.735C566.459 47.98 566.171 48.274 565.871 48.514C565.583 48.742 565.247 48.91 564.863 49.018C564.491 49.126 564.035 49.18 563.495 49.18C562.919 49.18 562.397 49.078 561.929 48.874C561.473 48.67 561.113 48.358 560.849 47.938C560.585 47.506 560.453 46.966 560.453 46.318C560.453 45.358 560.831 44.62 561.587 44.104C562.343 43.576 563.507 43.288 565.079 43.24L566.717 43.186V42.61C566.717 41.806 566.543 41.248 566.195 40.936C565.847 40.624 565.355 40.468 564.719 40.468C564.215 40.468 563.735 40.546 563.279 40.702C562.823 40.846 562.397 41.014 562.001 41.206L561.515 40.018C561.935 39.79 562.433 39.598 563.009 39.442C563.585 39.274 564.185 39.19 564.809 39.19ZM565.277 44.338C564.077 44.386 563.243 44.578 562.775 44.914C562.319 45.25 562.091 45.724 562.091 46.336C562.091 46.876 562.253 47.272 562.577 47.524C562.913 47.776 563.339 47.902 563.855 47.902C564.671 47.902 565.349 47.68 565.889 47.236C566.429 46.78 566.699 46.084 566.699 45.148V44.284L565.277 44.338ZM578.589 49H576.987V40.666H574.143C574.023 42.19 573.873 43.492 573.693 44.572C573.513 45.64 573.285 46.51 573.009 47.182C572.733 47.854 572.403 48.346 572.019 48.658C571.635 48.97 571.185 49.126 570.669 49.126C570.513 49.126 570.357 49.114 570.201 49.09C570.057 49.078 569.937 49.048 569.841 49V47.812C569.913 47.836 569.991 47.854 570.075 47.866C570.159 47.878 570.243 47.884 570.327 47.884C570.591 47.884 570.831 47.776 571.047 47.56C571.263 47.344 571.455 47.014 571.623 46.57C571.803 46.126 571.965 45.568 572.109 44.896C572.253 44.212 572.379 43.408 572.487 42.484C572.595 41.56 572.691 40.516 572.775 39.352H578.589V49ZM583.145 45.238C583.145 45.346 583.139 45.502 583.127 45.706C583.127 45.898 583.121 46.108 583.109 46.336C583.097 46.552 583.085 46.762 583.073 46.966C583.061 47.158 583.049 47.314 583.037 47.434L588.203 39.352H590.147V49H588.671V43.312C588.671 43.12 588.671 42.868 588.671 42.556C588.683 42.244 588.695 41.938 588.707 41.638C588.719 41.326 588.731 41.092 588.743 40.936L583.613 49H581.651V39.352H583.145V45.238ZM597.088 49.18C596.236 49.18 595.474 49.006 594.802 48.658C594.142 48.31 593.62 47.77 593.236 47.038C592.864 46.306 592.678 45.37 592.678 44.23C592.678 43.042 592.876 42.076 593.272 41.332C593.668 40.588 594.202 40.042 594.874 39.694C595.558 39.346 596.332 39.172 597.196 39.172C597.688 39.172 598.162 39.226 598.618 39.334C599.074 39.43 599.446 39.55 599.734 39.694L599.248 41.008C598.96 40.9 598.624 40.798 598.24 40.702C597.856 40.606 597.496 40.558 597.16 40.558C596.512 40.558 595.978 40.696 595.558 40.972C595.138 41.248 594.826 41.656 594.622 42.196C594.418 42.736 594.316 43.408 594.316 44.212C594.316 44.98 594.418 45.634 594.622 46.174C594.826 46.714 595.132 47.122 595.54 47.398C595.948 47.674 596.458 47.812 597.07 47.812C597.598 47.812 598.06 47.758 598.456 47.65C598.864 47.542 599.236 47.41 599.572 47.254V48.658C599.248 48.826 598.888 48.952 598.492 49.036C598.108 49.132 597.64 49.18 597.088 49.18ZM608.526 40.684H605.376V49H603.81V40.684H600.696V39.352H608.526V40.684ZM611.92 45.238C611.92 45.346 611.914 45.502 611.902 45.706C611.902 45.898 611.896 46.108 611.884 46.336C611.872 46.552 611.86 46.762 611.848 46.966C611.836 47.158 611.824 47.314 611.812 47.434L616.978 39.352H618.922V49H617.446V43.312C617.446 43.12 617.446 42.868 617.446 42.556C617.458 42.244 617.47 41.938 617.482 41.638C617.494 41.326 617.506 41.092 617.518 40.936L612.388 49H610.426V39.352H611.92V45.238ZM627.699 39.352H629.427L625.305 43.996L629.769 49H627.933L623.577 44.104V49H621.993V39.352H623.577V44.032L627.699 39.352ZM635.174 39.19C636.35 39.19 637.22 39.448 637.784 39.964C638.348 40.48 638.63 41.302 638.63 42.43V49H637.478L637.172 47.632H637.1C636.824 47.98 636.536 48.274 636.236 48.514C635.948 48.742 635.612 48.91 635.228 49.018C634.856 49.126 634.4 49.18 633.86 49.18C633.284 49.18 632.762 49.078 632.294 48.874C631.838 48.67 631.478 48.358 631.214 47.938C630.95 47.506 630.818 46.966 630.818 46.318C630.818 45.358 631.196 44.62 631.952 44.104C632.708 43.576 633.872 43.288 635.444 43.24L637.082 43.186V42.61C637.082 41.806 636.908 41.248 636.56 40.936C636.212 40.624 635.72 40.468 635.084 40.468C634.58 40.468 634.1 40.546 633.644 40.702C633.188 40.846 632.762 41.014 632.366 41.206L631.88 40.018C632.3 39.79 632.798 39.598 633.374 39.442C633.95 39.274 634.55 39.19 635.174 39.19ZM635.642 44.338C634.442 44.386 633.608 44.578 633.14 44.914C632.684 45.25 632.456 45.724 632.456 46.336C632.456 46.876 632.618 47.272 632.942 47.524C633.278 47.776 633.704 47.902 634.22 47.902C635.036 47.902 635.714 47.68 636.254 47.236C636.794 46.78 637.064 46.084 637.064 45.148V44.284L635.642 44.338Z" fill="black"/>
<rect x="661.5" y="32.5" width="182" height="23" rx="11.5" fill="white"/>
<rect x="661.5" y="32.5" width="182" height="23" rx="11.5" stroke="black"/>
<path d="M675.068 39.172C675.8 39.172 676.436 39.274 676.976 39.478C677.516 39.67 677.936 39.958 678.236 40.342C678.536 40.714 678.686 41.17 678.686 41.71C678.686 42.298 678.524 42.766 678.2 43.114C677.876 43.45 677.432 43.696 676.868 43.852V43.924C677.252 44.032 677.606 44.182 677.93 44.374C678.254 44.566 678.512 44.818 678.704 45.13C678.908 45.442 679.01 45.844 679.01 46.336C679.01 46.864 678.86 47.344 678.56 47.776C678.272 48.208 677.822 48.55 677.21 48.802C676.61 49.054 675.836 49.18 674.888 49.18C674.432 49.18 673.994 49.156 673.574 49.108C673.166 49.06 672.794 48.988 672.458 48.892C672.134 48.796 671.846 48.682 671.594 48.55V47.128C672.002 47.32 672.482 47.494 673.034 47.65C673.598 47.806 674.21 47.884 674.87 47.884C675.35 47.884 675.782 47.83 676.166 47.722C676.562 47.614 676.874 47.446 677.102 47.218C677.33 46.978 677.444 46.654 677.444 46.246C677.444 45.874 677.342 45.574 677.138 45.346C676.934 45.106 676.628 44.926 676.22 44.806C675.824 44.686 675.314 44.626 674.69 44.626H673.394V43.33H674.438C675.266 43.33 675.926 43.222 676.418 43.006C676.922 42.778 677.174 42.394 677.174 41.854C677.174 41.398 676.982 41.056 676.598 40.828C676.226 40.6 675.686 40.486 674.978 40.486C674.45 40.486 673.982 40.54 673.574 40.648C673.178 40.744 672.74 40.894 672.26 41.098L671.702 39.838C672.218 39.61 672.758 39.442 673.322 39.334C673.886 39.226 674.468 39.172 675.068 39.172ZM685.008 39.19C686.184 39.19 687.054 39.448 687.618 39.964C688.182 40.48 688.464 41.302 688.464 42.43V49H687.312L687.006 47.632H686.934C686.658 47.98 686.37 48.274 686.07 48.514C685.782 48.742 685.446 48.91 685.062 49.018C684.69 49.126 684.234 49.18 683.694 49.18C683.118 49.18 682.596 49.078 682.128 48.874C681.672 48.67 681.312 48.358 681.048 47.938C680.784 47.506 680.652 46.966 680.652 46.318C680.652 45.358 681.03 44.62 681.786 44.104C682.542 43.576 683.706 43.288 685.278 43.24L686.916 43.186V42.61C686.916 41.806 686.742 41.248 686.394 40.936C686.046 40.624 685.554 40.468 684.918 40.468C684.414 40.468 683.934 40.546 683.478 40.702C683.022 40.846 682.596 41.014 682.2 41.206L681.714 40.018C682.134 39.79 682.632 39.598 683.208 39.442C683.784 39.274 684.384 39.19 685.008 39.19ZM685.476 44.338C684.276 44.386 683.442 44.578 682.974 44.914C682.518 45.25 682.29 45.724 682.29 46.336C682.29 46.876 682.452 47.272 682.776 47.524C683.112 47.776 683.538 47.902 684.054 47.902C684.87 47.902 685.548 47.68 686.088 47.236C686.628 46.78 686.898 46.084 686.898 45.148V44.284L685.476 44.338ZM697.33 39.352V40.684H693.028V49H691.444V39.352H697.33ZM702.885 39.19C704.061 39.19 704.931 39.448 705.495 39.964C706.059 40.48 706.341 41.302 706.341 42.43V49H705.189L704.883 47.632H704.811C704.535 47.98 704.247 48.274 703.947 48.514C703.659 48.742 703.323 48.91 702.939 49.018C702.567 49.126 702.111 49.18 701.571 49.18C700.995 49.18 700.473 49.078 700.005 48.874C699.549 48.67 699.189 48.358 698.925 47.938C698.661 47.506 698.529 46.966 698.529 46.318C698.529 45.358 698.907 44.62 699.663 44.104C700.419 43.576 701.583 43.288 703.155 43.24L704.793 43.186V42.61C704.793 41.806 704.619 41.248 704.271 40.936C703.923 40.624 703.431 40.468 702.795 40.468C702.291 40.468 701.811 40.546 701.355 40.702C700.899 40.846 700.473 41.014 700.077 41.206L699.591 40.018C700.011 39.79 700.509 39.598 701.085 39.442C701.661 39.274 702.261 39.19 702.885 39.19ZM703.353 44.338C702.153 44.386 701.319 44.578 700.851 44.914C700.395 45.25 700.167 45.724 700.167 46.336C700.167 46.876 700.329 47.272 700.653 47.524C700.989 47.776 701.415 47.902 701.931 47.902C702.747 47.902 703.425 47.68 703.965 47.236C704.505 46.78 704.775 46.084 704.775 45.148V44.284L703.353 44.338ZM716.485 39.352V47.668H717.889V52.348H716.359V49H709.645V52.348H708.133V47.668H708.907C709.459 46.9 709.915 46.066 710.275 45.166C710.647 44.254 710.923 43.306 711.103 42.322C711.295 41.326 711.397 40.336 711.409 39.352H716.485ZM712.813 40.594C712.765 41.41 712.639 42.256 712.435 43.132C712.231 43.996 711.967 44.824 711.643 45.616C711.331 46.408 710.965 47.092 710.545 47.668H714.955V40.594H712.813ZM725.486 39.352H727.214L723.092 43.996L727.556 49H725.72L721.364 44.104V49H719.78V39.352H721.364V44.032L725.486 39.352ZM730.801 45.238C730.801 45.346 730.795 45.502 730.783 45.706C730.783 45.898 730.777 46.108 730.765 46.336C730.753 46.552 730.741 46.762 730.729 46.966C730.717 47.158 730.705 47.314 730.693 47.434L735.859 39.352H737.803V49H736.327V43.312C736.327 43.12 736.327 42.868 736.327 42.556C736.339 42.244 736.351 41.938 736.363 41.638C736.375 41.326 736.387 41.092 736.399 40.936L731.269 49H729.307V39.352H730.801V45.238ZM753.862 39.352V49H752.278V40.702H747.292V49H745.708V39.352H753.862ZM761.53 39.172C762.718 39.172 763.672 39.586 764.392 40.414C765.124 41.242 765.49 42.49 765.49 44.158C765.49 45.25 765.322 46.174 764.986 46.93C764.662 47.674 764.2 48.238 763.6 48.622C763.012 48.994 762.316 49.18 761.512 49.18C761.02 49.18 760.582 49.114 760.198 48.982C759.814 48.85 759.484 48.682 759.208 48.478C758.944 48.262 758.716 48.028 758.524 47.776H758.416C758.44 47.98 758.464 48.238 758.488 48.55C758.512 48.862 758.524 49.132 758.524 49.36V53.32H756.94V39.352H758.236L758.452 40.666H758.524C758.716 40.39 758.944 40.138 759.208 39.91C759.484 39.682 759.808 39.502 760.18 39.37C760.564 39.238 761.014 39.172 761.53 39.172ZM761.242 40.504C760.594 40.504 760.072 40.63 759.676 40.882C759.28 41.122 758.992 41.488 758.812 41.98C758.632 42.472 758.536 43.096 758.524 43.852V44.158C758.524 44.95 758.608 45.622 758.776 46.174C758.944 46.726 759.226 47.146 759.622 47.434C760.03 47.722 760.582 47.866 761.278 47.866C761.866 47.866 762.346 47.704 762.718 47.38C763.102 47.056 763.384 46.618 763.564 46.066C763.756 45.502 763.852 44.86 763.852 44.14C763.852 43.036 763.636 42.154 763.204 41.494C762.784 40.834 762.13 40.504 761.242 40.504ZM776.402 44.158C776.402 44.962 776.294 45.676 776.078 46.3C775.874 46.912 775.574 47.434 775.178 47.866C774.794 48.298 774.32 48.628 773.756 48.856C773.204 49.072 772.586 49.18 771.902 49.18C771.266 49.18 770.678 49.072 770.138 48.856C769.598 48.628 769.13 48.298 768.734 47.866C768.338 47.434 768.026 46.912 767.798 46.3C767.582 45.676 767.474 44.962 767.474 44.158C767.474 43.09 767.654 42.19 768.014 41.458C768.374 40.714 768.89 40.15 769.562 39.766C770.234 39.37 771.032 39.172 771.956 39.172C772.832 39.172 773.6 39.37 774.26 39.766C774.932 40.15 775.454 40.714 775.826 41.458C776.21 42.19 776.402 43.09 776.402 44.158ZM769.112 44.158C769.112 44.914 769.208 45.574 769.4 46.138C769.604 46.69 769.916 47.116 770.336 47.416C770.756 47.716 771.29 47.866 771.938 47.866C772.586 47.866 773.12 47.716 773.54 47.416C773.96 47.116 774.266 46.69 774.458 46.138C774.662 45.574 774.764 44.914 774.764 44.158C774.764 43.39 774.662 42.736 774.458 42.196C774.254 41.656 773.942 41.242 773.522 40.954C773.114 40.654 772.58 40.504 771.92 40.504C770.936 40.504 770.222 40.828 769.778 41.476C769.334 42.124 769.112 43.018 769.112 44.158ZM791.999 39.352V49H778.913V39.352H780.497V47.668H784.655V39.352H786.239V47.668H790.415V39.352H791.999ZM802.429 49H800.827V40.666H797.983C797.863 42.19 797.713 43.492 797.533 44.572C797.353 45.64 797.125 46.51 796.849 47.182C796.573 47.854 796.243 48.346 795.859 48.658C795.475 48.97 795.025 49.126 794.509 49.126C794.353 49.126 794.197 49.114 794.041 49.09C793.897 49.078 793.777 49.048 793.681 49V47.812C793.753 47.836 793.831 47.854 793.915 47.866C793.999 47.878 794.083 47.884 794.167 47.884C794.431 47.884 794.671 47.776 794.887 47.56C795.103 47.344 795.295 47.014 795.463 46.57C795.643 46.126 795.805 45.568 795.949 44.896C796.093 44.212 796.219 43.408 796.327 42.484C796.435 41.56 796.531 40.516 796.615 39.352H802.429V49ZM813.879 44.158C813.879 44.962 813.771 45.676 813.555 46.3C813.351 46.912 813.051 47.434 812.655 47.866C812.271 48.298 811.797 48.628 811.233 48.856C810.681 49.072 810.063 49.18 809.379 49.18C808.743 49.18 808.155 49.072 807.615 48.856C807.075 48.628 806.607 48.298 806.211 47.866C805.815 47.434 805.503 46.912 805.275 46.3C805.059 45.676 804.951 44.962 804.951 44.158C804.951 43.09 805.131 42.19 805.491 41.458C805.851 40.714 806.367 40.15 807.039 39.766C807.711 39.37 808.509 39.172 809.433 39.172C810.309 39.172 811.077 39.37 811.737 39.766C812.409 40.15 812.931 40.714 813.303 41.458C813.687 42.19 813.879 43.09 813.879 44.158ZM806.589 44.158C806.589 44.914 806.685 45.574 806.877 46.138C807.081 46.69 807.393 47.116 807.813 47.416C808.233 47.716 808.767 47.866 809.415 47.866C810.063 47.866 810.597 47.716 811.017 47.416C811.437 47.116 811.743 46.69 811.935 46.138C812.139 45.574 812.241 44.914 812.241 44.158C812.241 43.39 812.139 42.736 811.935 42.196C811.731 41.656 811.419 41.242 810.999 40.954C810.591 40.654 810.057 40.504 809.397 40.504C808.413 40.504 807.699 40.828 807.255 41.476C806.811 42.124 806.589 43.018 806.589 44.158ZM822.275 39.352V40.684H817.973V49H816.389V39.352H822.275ZM832.389 44.158C832.389 44.962 832.281 45.676 832.065 46.3C831.861 46.912 831.561 47.434 831.165 47.866C830.781 48.298 830.307 48.628 829.743 48.856C829.191 49.072 828.573 49.18 827.889 49.18C827.253 49.18 826.665 49.072 826.125 48.856C825.585 48.628 825.117 48.298 824.721 47.866C824.325 47.434 824.013 46.912 823.785 46.3C823.569 45.676 823.461 44.962 823.461 44.158C823.461 43.09 823.641 42.19 824.001 41.458C824.361 40.714 824.877 40.15 825.549 39.766C826.221 39.37 827.019 39.172 827.943 39.172C828.819 39.172 829.587 39.37 830.247 39.766C830.919 40.15 831.441 40.714 831.813 41.458C832.197 42.19 832.389 43.09 832.389 44.158ZM825.099 44.158C825.099 44.914 825.195 45.574 825.387 46.138C825.591 46.69 825.903 47.116 826.323 47.416C826.743 47.716 827.277 47.866 827.925 47.866C828.573 47.866 829.107 47.716 829.527 47.416C829.947 47.116 830.253 46.69 830.445 46.138C830.649 45.574 830.751 44.914 830.751 44.158C830.751 43.39 830.649 42.736 830.445 42.196C830.241 41.656 829.929 41.242 829.509 40.954C829.101 40.654 828.567 40.504 827.907 40.504C826.923 40.504 826.209 40.828 825.765 41.476C825.321 42.124 825.099 43.018 825.099 44.158Z" fill="black"/>
<rect x="854.5" y="32.5" width="92" height="23" rx="11.5" fill="white"/>
<rect x="854.5" y="32.5" width="92" height="23" rx="11.5" stroke="black"/>
<path d="M867.114 39.352V43.366H872.352V39.352H873.936V49H872.352V44.698H867.114V49H865.53V39.352H867.114ZM885.379 44.158C885.379 44.962 885.271 45.676 885.055 46.3C884.851 46.912 884.551 47.434 884.155 47.866C883.771 48.298 883.297 48.628 882.733 48.856C882.181 49.072 881.563 49.18 880.879 49.18C880.243 49.18 879.655 49.072 879.115 48.856C878.575 48.628 878.107 48.298 877.711 47.866C877.315 47.434 877.003 46.912 876.775 46.3C876.559 45.676 876.451 44.962 876.451 44.158C876.451 43.09 876.631 42.19 876.991 41.458C877.351 40.714 877.867 40.15 878.539 39.766C879.211 39.37 880.009 39.172 880.933 39.172C881.809 39.172 882.577 39.37 883.237 39.766C883.909 40.15 884.431 40.714 884.803 41.458C885.187 42.19 885.379 43.09 885.379 44.158ZM878.089 44.158C878.089 44.914 878.185 45.574 878.377 46.138C878.581 46.69 878.893 47.116 879.313 47.416C879.733 47.716 880.267 47.866 880.915 47.866C881.563 47.866 882.097 47.716 882.517 47.416C882.937 47.116 883.243 46.69 883.435 46.138C883.639 45.574 883.741 44.914 883.741 44.158C883.741 43.39 883.639 42.736 883.435 42.196C883.231 41.656 882.919 41.242 882.499 40.954C882.091 40.654 881.557 40.504 880.897 40.504C879.913 40.504 879.199 40.828 878.755 41.476C878.311 42.124 878.089 43.018 878.089 44.158ZM895.647 41.782C895.647 42.382 895.467 42.85 895.107 43.186C894.747 43.522 894.285 43.75 893.721 43.87V43.942C894.321 44.026 894.843 44.242 895.287 44.59C895.731 44.926 895.953 45.454 895.953 46.174C895.953 46.582 895.875 46.96 895.719 47.308C895.575 47.656 895.347 47.956 895.035 48.208C894.723 48.46 894.321 48.658 893.829 48.802C893.337 48.934 892.743 49 892.047 49H887.889V39.352H892.029C892.713 39.352 893.325 39.43 893.865 39.586C894.417 39.73 894.849 39.982 895.161 40.342C895.485 40.69 895.647 41.17 895.647 41.782ZM894.315 46.174C894.315 45.622 894.105 45.226 893.685 44.986C893.265 44.746 892.647 44.626 891.831 44.626H889.473V47.722H891.867C892.659 47.722 893.265 47.608 893.685 47.38C894.105 47.14 894.315 46.738 894.315 46.174ZM894.045 41.98C894.045 41.524 893.877 41.194 893.541 40.99C893.217 40.774 892.683 40.666 891.939 40.666H889.473V43.312H891.651C892.431 43.312 893.025 43.204 893.433 42.988C893.841 42.772 894.045 42.436 894.045 41.98ZM906.648 44.158C906.648 44.962 906.54 45.676 906.324 46.3C906.12 46.912 905.82 47.434 905.424 47.866C905.04 48.298 904.566 48.628 904.002 48.856C903.45 49.072 902.832 49.18 902.148 49.18C901.512 49.18 900.924 49.072 900.384 48.856C899.844 48.628 899.376 48.298 898.98 47.866C898.584 47.434 898.272 46.912 898.044 46.3C897.828 45.676 897.72 44.962 897.72 44.158C897.72 43.09 897.9 42.19 898.26 41.458C898.62 40.714 899.136 40.15 899.808 39.766C900.48 39.37 901.278 39.172 902.202 39.172C903.078 39.172 903.846 39.37 904.506 39.766C905.178 40.15 905.7 40.714 906.072 41.458C906.456 42.19 906.648 43.09 906.648 44.158ZM899.358 44.158C899.358 44.914 899.454 45.574 899.646 46.138C899.85 46.69 900.162 47.116 900.582 47.416C901.002 47.716 901.536 47.866 902.184 47.866C902.832 47.866 903.366 47.716 903.786 47.416C904.206 47.116 904.512 46.69 904.704 46.138C904.908 45.574 905.01 44.914 905.01 44.158C905.01 43.39 904.908 42.736 904.704 42.196C904.5 41.656 904.188 41.242 903.768 40.954C903.36 40.654 902.826 40.504 902.166 40.504C901.182 40.504 900.468 40.828 900.024 41.476C899.58 42.124 899.358 43.018 899.358 44.158ZM913.029 49.18C912.177 49.18 911.415 49.006 910.743 48.658C910.083 48.31 909.561 47.77 909.177 47.038C908.805 46.306 908.619 45.37 908.619 44.23C908.619 43.042 908.817 42.076 909.213 41.332C909.609 40.588 910.143 40.042 910.815 39.694C911.499 39.346 912.273 39.172 913.137 39.172C913.629 39.172 914.103 39.226 914.559 39.334C915.015 39.43 915.387 39.55 915.675 39.694L915.189 41.008C914.901 40.9 914.565 40.798 914.181 40.702C913.797 40.606 913.437 40.558 913.101 40.558C912.453 40.558 911.919 40.696 911.499 40.972C911.079 41.248 910.767 41.656 910.563 42.196C910.359 42.736 910.257 43.408 910.257 44.212C910.257 44.98 910.359 45.634 910.563 46.174C910.767 46.714 911.073 47.122 911.481 47.398C911.889 47.674 912.399 47.812 913.011 47.812C913.539 47.812 914.001 47.758 914.397 47.65C914.805 47.542 915.177 47.41 915.513 47.254V48.658C915.189 48.826 914.829 48.952 914.433 49.036C914.049 49.132 913.581 49.18 913.029 49.18ZM924.467 40.684H921.317V49H919.751V40.684H916.637V39.352H924.467V40.684ZM927.862 45.238C927.862 45.346 927.856 45.502 927.844 45.706C927.844 45.898 927.838 46.108 927.826 46.336C927.814 46.552 927.802 46.762 927.79 46.966C927.778 47.158 927.766 47.314 927.754 47.434L932.92 39.352H934.864V49H933.388V43.312C933.388 43.12 933.388 42.868 933.388 42.556C933.4 42.244 933.412 41.938 933.424 41.638C933.436 41.326 933.448 41.092 933.46 40.936L928.33 49H926.368V39.352H927.862V45.238Z" fill="black"/>
<rect x="957.5" y="32.5" width="75" height="23" rx="11.5" fill="white"/>
<rect x="957.5" y="32.5" width="75" height="23" rx="11.5" stroke="black"/>
<path d="M974.29 39.208C975.25 39.292 976.084 39.544 976.792 39.964C977.512 40.384 978.07 40.948 978.466 41.656C978.862 42.364 979.06 43.204 979.06 44.176C979.06 45.148 978.868 45.994 978.484 46.714C978.1 47.422 977.554 47.986 976.846 48.406C976.138 48.814 975.286 49.06 974.29 49.144V53.32H972.742V49.144C971.794 49.06 970.96 48.814 970.24 48.406C969.52 47.986 968.962 47.422 968.566 46.714C968.17 45.994 967.972 45.148 967.972 44.176C967.972 43.192 968.164 42.346 968.548 41.638C968.932 40.918 969.484 40.354 970.204 39.946C970.924 39.526 971.788 39.28 972.796 39.208V35.32H974.29V39.208ZM972.796 40.522C972.064 40.594 971.464 40.78 970.996 41.08C970.528 41.38 970.18 41.788 969.952 42.304C969.736 42.82 969.628 43.444 969.628 44.176C969.628 44.896 969.736 45.52 969.952 46.048C970.18 46.564 970.528 46.978 970.996 47.29C971.464 47.59 972.064 47.776 972.796 47.848V40.522ZM974.29 47.848C975.01 47.764 975.598 47.572 976.054 47.272C976.522 46.972 976.864 46.564 977.08 46.048C977.308 45.52 977.422 44.896 977.422 44.176C977.422 43.456 977.308 42.838 977.08 42.322C976.852 41.806 976.504 41.398 976.036 41.098C975.58 40.798 974.998 40.612 974.29 40.54V47.848ZM985.227 39.19C986.403 39.19 987.273 39.448 987.837 39.964C988.401 40.48 988.683 41.302 988.683 42.43V49H987.531L987.225 47.632H987.153C986.877 47.98 986.589 48.274 986.289 48.514C986.001 48.742 985.665 48.91 985.281 49.018C984.909 49.126 984.453 49.18 983.913 49.18C983.337 49.18 982.815 49.078 982.347 48.874C981.891 48.67 981.531 48.358 981.267 47.938C981.003 47.506 980.871 46.966 980.871 46.318C980.871 45.358 981.249 44.62 982.005 44.104C982.761 43.576 983.925 43.288 985.497 43.24L987.135 43.186V42.61C987.135 41.806 986.961 41.248 986.613 40.936C986.265 40.624 985.773 40.468 985.137 40.468C984.633 40.468 984.153 40.546 983.697 40.702C983.241 40.846 982.815 41.014 982.419 41.206L981.933 40.018C982.353 39.79 982.851 39.598 983.427 39.442C984.003 39.274 984.603 39.19 985.227 39.19ZM985.695 44.338C984.495 44.386 983.661 44.578 983.193 44.914C982.737 45.25 982.509 45.724 982.509 46.336C982.509 46.876 982.671 47.272 982.995 47.524C983.331 47.776 983.757 47.902 984.273 47.902C985.089 47.902 985.767 47.68 986.307 47.236C986.847 46.78 987.117 46.084 987.117 45.148V44.284L985.695 44.338ZM997.369 39.352H999.097L994.975 43.996L999.439 49H997.603L993.247 44.104V49H991.663V39.352H993.247V44.032L997.369 39.352ZM1007.85 40.684H1004.7V49H1003.13V40.684H1000.02V39.352H1007.85V40.684ZM1009.75 49V39.352H1011.33V43.312H1013.84C1014.68 43.312 1015.37 43.414 1015.91 43.618C1016.45 43.822 1016.85 44.128 1017.11 44.536C1017.38 44.932 1017.51 45.436 1017.51 46.048C1017.51 46.648 1017.38 47.17 1017.11 47.614C1016.86 48.058 1016.46 48.4 1015.91 48.64C1015.37 48.88 1014.65 49 1013.76 49H1009.75ZM1013.62 47.722C1014.3 47.722 1014.86 47.608 1015.29 47.38C1015.73 47.14 1015.94 46.726 1015.94 46.138C1015.94 45.55 1015.74 45.154 1015.35 44.95C1014.95 44.734 1014.38 44.626 1013.64 44.626H1011.33V47.722H1013.62ZM1019.11 49V39.352H1020.69V49H1019.11Z" fill="black"/>
<rect x="1043.5" y="32.5" width="69" height="23" rx="11.5" fill="white"/>
<rect x="1043.5" y="32.5" width="69" height="23" rx="11.5" stroke="black"/>
<path d="M1061.19 40.684H1058.04V49H1056.47V40.684H1053.36V39.352H1061.19V40.684ZM1066.64 39.172C1067.47 39.172 1068.18 39.352 1068.76 39.712C1069.36 40.072 1069.82 40.582 1070.13 41.242C1070.46 41.89 1070.62 42.652 1070.62 43.528V44.482H1064.01C1064.04 45.574 1064.31 46.408 1064.84 46.984C1065.38 47.548 1066.13 47.83 1067.09 47.83C1067.7 47.83 1068.24 47.776 1068.71 47.668C1069.19 47.548 1069.68 47.38 1070.19 47.164V48.55C1069.69 48.766 1069.21 48.922 1068.73 49.018C1068.25 49.126 1067.68 49.18 1067.02 49.18C1066.11 49.18 1065.3 48.994 1064.59 48.622C1063.89 48.25 1063.35 47.698 1062.95 46.966C1062.57 46.222 1062.37 45.316 1062.37 44.248C1062.37 43.192 1062.55 42.286 1062.9 41.53C1063.26 40.774 1063.75 40.192 1064.39 39.784C1065.04 39.376 1065.79 39.172 1066.64 39.172ZM1066.62 40.468C1065.87 40.468 1065.27 40.714 1064.82 41.206C1064.39 41.686 1064.13 42.358 1064.05 43.222H1068.96C1068.96 42.67 1068.88 42.19 1068.71 41.782C1068.54 41.374 1068.28 41.056 1067.94 40.828C1067.6 40.588 1067.16 40.468 1066.62 40.468ZM1076.94 49.18C1076.09 49.18 1075.33 49.006 1074.66 48.658C1074 48.31 1073.48 47.77 1073.09 47.038C1072.72 46.306 1072.53 45.37 1072.53 44.23C1072.53 43.042 1072.73 42.076 1073.13 41.332C1073.52 40.588 1074.06 40.042 1074.73 39.694C1075.41 39.346 1076.19 39.172 1077.05 39.172C1077.54 39.172 1078.02 39.226 1078.47 39.334C1078.93 39.43 1079.3 39.55 1079.59 39.694L1079.1 41.008C1078.82 40.9 1078.48 40.798 1078.1 40.702C1077.71 40.606 1077.35 40.558 1077.02 40.558C1076.37 40.558 1075.83 40.696 1075.41 40.972C1074.99 41.248 1074.68 41.656 1074.48 42.196C1074.27 42.736 1074.17 43.408 1074.17 44.212C1074.17 44.98 1074.27 45.634 1074.48 46.174C1074.68 46.714 1074.99 47.122 1075.4 47.398C1075.8 47.674 1076.31 47.812 1076.93 47.812C1077.45 47.812 1077.92 47.758 1078.31 47.65C1078.72 47.542 1079.09 47.41 1079.43 47.254V48.658C1079.1 48.826 1078.74 48.952 1078.35 49.036C1077.96 49.132 1077.5 49.18 1076.94 49.18ZM1088.38 40.684H1085.23V49H1083.67V40.684H1080.55V39.352H1088.38V40.684ZM1090.28 49V39.352H1091.87V43.312H1094.37C1095.21 43.312 1095.9 43.414 1096.44 43.618C1096.98 43.822 1097.38 44.128 1097.65 44.536C1097.91 44.932 1098.04 45.436 1098.04 46.048C1098.04 46.648 1097.91 47.17 1097.65 47.614C1097.39 48.058 1096.99 48.4 1096.44 48.64C1095.9 48.88 1095.19 49 1094.3 49H1090.28ZM1094.15 47.722C1094.84 47.722 1095.4 47.608 1095.83 47.38C1096.26 47.14 1096.48 46.726 1096.48 46.138C1096.48 45.55 1096.28 45.154 1095.88 44.95C1095.49 44.734 1094.92 44.626 1094.17 44.626H1091.87V47.722H1094.15ZM1099.64 49V39.352H1101.23V49H1099.64Z" fill="black"/>
<rect x="1123.5" y="32.5" width="125" height="23" rx="11.5" fill="white"/>
<rect x="1123.5" y="32.5" width="125" height="23" rx="11.5" stroke="black"/>
<path d="M1136.11 39.352V43.366H1141.35V39.352H1142.94V49H1141.35V44.698H1136.11V49H1134.53V39.352H1136.11ZM1149.72 39.172C1150.54 39.172 1151.25 39.352 1151.84 39.712C1152.44 40.072 1152.9 40.582 1153.21 41.242C1153.53 41.89 1153.69 42.652 1153.69 43.528V44.482H1147.09C1147.11 45.574 1147.39 46.408 1147.92 46.984C1148.46 47.548 1149.21 47.83 1150.17 47.83C1150.78 47.83 1151.32 47.776 1151.79 47.668C1152.27 47.548 1152.76 47.38 1153.26 47.164V48.55C1152.77 48.766 1152.28 48.922 1151.8 49.018C1151.32 49.126 1150.75 49.18 1150.09 49.18C1149.18 49.18 1148.37 48.994 1147.66 48.622C1146.97 48.25 1146.42 47.698 1146.03 46.966C1145.64 46.222 1145.45 45.316 1145.45 44.248C1145.45 43.192 1145.62 42.286 1145.97 41.53C1146.33 40.774 1146.83 40.192 1147.47 39.784C1148.11 39.376 1148.86 39.172 1149.72 39.172ZM1149.7 40.468C1148.94 40.468 1148.34 40.714 1147.9 41.206C1147.47 41.686 1147.21 42.358 1147.12 43.222H1152.04C1152.04 42.67 1151.95 42.19 1151.79 41.782C1151.62 41.374 1151.36 41.056 1151.01 40.828C1150.68 40.588 1150.24 40.468 1149.7 40.468ZM1160.74 39.172C1161.93 39.172 1162.88 39.586 1163.6 40.414C1164.34 41.242 1164.7 42.49 1164.7 44.158C1164.7 45.25 1164.53 46.174 1164.2 46.93C1163.87 47.674 1163.41 48.238 1162.81 48.622C1162.22 48.994 1161.53 49.18 1160.72 49.18C1160.23 49.18 1159.79 49.114 1159.41 48.982C1159.03 48.85 1158.7 48.682 1158.42 48.478C1158.16 48.262 1157.93 48.028 1157.74 47.776H1157.63C1157.65 47.98 1157.68 48.238 1157.7 48.55C1157.72 48.862 1157.74 49.132 1157.74 49.36V53.32H1156.15V39.352H1157.45L1157.66 40.666H1157.74C1157.93 40.39 1158.16 40.138 1158.42 39.91C1158.7 39.682 1159.02 39.502 1159.39 39.37C1159.78 39.238 1160.23 39.172 1160.74 39.172ZM1160.45 40.504C1159.81 40.504 1159.28 40.63 1158.89 40.882C1158.49 41.122 1158.2 41.488 1158.02 41.98C1157.84 42.472 1157.75 43.096 1157.74 43.852V44.158C1157.74 44.95 1157.82 45.622 1157.99 46.174C1158.16 46.726 1158.44 47.146 1158.83 47.434C1159.24 47.722 1159.79 47.866 1160.49 47.866C1161.08 47.866 1161.56 47.704 1161.93 47.38C1162.31 47.056 1162.6 46.618 1162.78 46.066C1162.97 45.502 1163.06 44.86 1163.06 44.14C1163.06 43.036 1162.85 42.154 1162.42 41.494C1162 40.834 1161.34 40.504 1160.45 40.504ZM1170.88 39.19C1172.06 39.19 1172.93 39.448 1173.49 39.964C1174.05 40.48 1174.34 41.302 1174.34 42.43V49H1173.18L1172.88 47.632H1172.81C1172.53 47.98 1172.24 48.274 1171.94 48.514C1171.65 48.742 1171.32 48.91 1170.93 49.018C1170.56 49.126 1170.11 49.18 1169.57 49.18C1168.99 49.18 1168.47 49.078 1168 48.874C1167.54 48.67 1167.18 48.358 1166.92 47.938C1166.66 47.506 1166.52 46.966 1166.52 46.318C1166.52 45.358 1166.9 44.62 1167.66 44.104C1168.41 43.576 1169.58 43.288 1171.15 43.24L1172.79 43.186V42.61C1172.79 41.806 1172.61 41.248 1172.27 40.936C1171.92 40.624 1171.43 40.468 1170.79 40.468C1170.29 40.468 1169.81 40.546 1169.35 40.702C1168.89 40.846 1168.47 41.014 1168.07 41.206L1167.59 40.018C1168.01 39.79 1168.5 39.598 1169.08 39.442C1169.66 39.274 1170.26 39.19 1170.88 39.19ZM1171.35 44.338C1170.15 44.386 1169.31 44.578 1168.85 44.914C1168.39 45.25 1168.16 45.724 1168.16 46.336C1168.16 46.876 1168.32 47.272 1168.65 47.524C1168.98 47.776 1169.41 47.902 1169.93 47.902C1170.74 47.902 1171.42 47.68 1171.96 47.236C1172.5 46.78 1172.77 46.084 1172.77 45.148V44.284L1171.35 44.338ZM1181.19 49.18C1180.33 49.18 1179.57 49.006 1178.9 48.658C1178.24 48.31 1177.72 47.77 1177.33 47.038C1176.96 46.306 1176.78 45.37 1176.78 44.23C1176.78 43.042 1176.97 42.076 1177.37 41.332C1177.77 40.588 1178.3 40.042 1178.97 39.694C1179.66 39.346 1180.43 39.172 1181.29 39.172C1181.79 39.172 1182.26 39.226 1182.72 39.334C1183.17 39.43 1183.54 39.55 1183.83 39.694L1183.35 41.008C1183.06 40.9 1182.72 40.798 1182.34 40.702C1181.95 40.606 1181.59 40.558 1181.26 40.558C1180.61 40.558 1180.08 40.696 1179.66 40.972C1179.24 41.248 1178.92 41.656 1178.72 42.196C1178.52 42.736 1178.41 43.408 1178.41 44.212C1178.41 44.98 1178.52 45.634 1178.72 46.174C1178.92 46.714 1179.23 47.122 1179.64 47.398C1180.05 47.674 1180.56 47.812 1181.17 47.812C1181.7 47.812 1182.16 47.758 1182.55 47.65C1182.96 47.542 1183.33 47.41 1183.67 47.254V48.658C1183.35 48.826 1182.99 48.952 1182.59 49.036C1182.21 49.132 1181.74 49.18 1181.19 49.18ZM1191.67 39.352H1193.4L1189.28 43.996L1193.74 49H1191.9L1187.55 44.104V49H1185.96V39.352H1187.55V44.032L1191.67 39.352ZM1200.08 39.172C1201.27 39.172 1202.22 39.586 1202.94 40.414C1203.67 41.242 1204.04 42.49 1204.04 44.158C1204.04 45.25 1203.87 46.174 1203.54 46.93C1203.21 47.674 1202.75 48.238 1202.15 48.622C1201.56 48.994 1200.87 49.18 1200.06 49.18C1199.57 49.18 1199.13 49.114 1198.75 48.982C1198.36 48.85 1198.03 48.682 1197.76 48.478C1197.49 48.262 1197.27 48.028 1197.07 47.776H1196.97C1196.99 47.98 1197.01 48.238 1197.04 48.55C1197.06 48.862 1197.07 49.132 1197.07 49.36V53.32H1195.49V39.352H1196.79L1197 40.666H1197.07C1197.27 40.39 1197.49 40.138 1197.76 39.91C1198.03 39.682 1198.36 39.502 1198.73 39.37C1199.11 39.238 1199.56 39.172 1200.08 39.172ZM1199.79 40.504C1199.14 40.504 1198.62 40.63 1198.23 40.882C1197.83 41.122 1197.54 41.488 1197.36 41.98C1197.18 42.472 1197.09 43.096 1197.07 43.852V44.158C1197.07 44.95 1197.16 45.622 1197.33 46.174C1197.49 46.726 1197.78 47.146 1198.17 47.434C1198.58 47.722 1199.13 47.866 1199.83 47.866C1200.42 47.866 1200.9 47.704 1201.27 47.38C1201.65 47.056 1201.93 46.618 1202.11 46.066C1202.31 45.502 1202.4 44.86 1202.4 44.14C1202.4 43.036 1202.19 42.154 1201.75 41.494C1201.33 40.834 1200.68 40.504 1199.79 40.504ZM1206.57 49V39.352H1208.15V43.312H1210.65C1211.49 43.312 1212.18 43.414 1212.72 43.618C1213.26 43.822 1213.66 44.128 1213.93 44.536C1214.19 44.932 1214.32 45.436 1214.32 46.048C1214.32 46.648 1214.19 47.17 1213.93 47.614C1213.68 48.058 1213.27 48.4 1212.72 48.64C1212.18 48.88 1211.47 49 1210.58 49H1206.57ZM1210.44 47.722C1211.12 47.722 1211.68 47.608 1212.11 47.38C1212.54 47.14 1212.76 46.726 1212.76 46.138C1212.76 45.55 1212.56 45.154 1212.16 44.95C1211.77 44.734 1211.2 44.626 1210.45 44.626H1208.15V47.722H1210.44ZM1215.93 49V39.352H1217.51V49H1215.93ZM1227.23 40.684H1224.08V49H1222.52V40.684H1219.4V39.352H1227.23V40.684ZM1237.35 44.158C1237.35 44.962 1237.24 45.676 1237.02 46.3C1236.82 46.912 1236.52 47.434 1236.12 47.866C1235.74 48.298 1235.27 48.628 1234.7 48.856C1234.15 49.072 1233.53 49.18 1232.85 49.18C1232.21 49.18 1231.62 49.072 1231.08 48.856C1230.54 48.628 1230.08 48.298 1229.68 47.866C1229.28 47.434 1228.97 46.912 1228.74 46.3C1228.53 45.676 1228.42 44.962 1228.42 44.158C1228.42 43.09 1228.6 42.19 1228.96 41.458C1229.32 40.714 1229.84 40.15 1230.51 39.766C1231.18 39.37 1231.98 39.172 1232.9 39.172C1233.78 39.172 1234.55 39.37 1235.21 39.766C1235.88 40.15 1236.4 40.714 1236.77 41.458C1237.16 42.19 1237.35 43.09 1237.35 44.158ZM1230.06 44.158C1230.06 44.914 1230.15 45.574 1230.35 46.138C1230.55 46.69 1230.86 47.116 1231.28 47.416C1231.7 47.716 1232.24 47.866 1232.88 47.866C1233.53 47.866 1234.07 47.716 1234.49 47.416C1234.91 47.116 1235.21 46.69 1235.4 46.138C1235.61 45.574 1235.71 44.914 1235.71 44.158C1235.71 43.39 1235.61 42.736 1235.4 42.196C1235.2 41.656 1234.89 41.242 1234.47 40.954C1234.06 40.654 1233.53 40.504 1232.87 40.504C1231.88 40.504 1231.17 40.828 1230.72 41.476C1230.28 42.124 1230.06 43.018 1230.06 44.158Z" fill="black"/>
<rect x="1259.5" y="32.5" width="153" height="23" rx="11.5" fill="white"/>
<rect x="1259.5" y="32.5" width="153" height="23" rx="11.5" stroke="black"/>
<path d="M1275.12 39.172C1276.31 39.172 1277.26 39.586 1277.98 40.414C1278.71 41.242 1279.08 42.49 1279.08 44.158C1279.08 45.25 1278.91 46.174 1278.58 46.93C1278.25 47.674 1277.79 48.238 1277.19 48.622C1276.6 48.994 1275.91 49.18 1275.1 49.18C1274.61 49.18 1274.17 49.114 1273.79 48.982C1273.4 48.85 1273.07 48.682 1272.8 48.478C1272.53 48.262 1272.31 48.028 1272.11 47.776H1272.01C1272.03 47.98 1272.05 48.238 1272.08 48.55C1272.1 48.862 1272.11 49.132 1272.11 49.36V53.32H1270.53V39.352H1271.83L1272.04 40.666H1272.11C1272.31 40.39 1272.53 40.138 1272.8 39.91C1273.07 39.682 1273.4 39.502 1273.77 39.37C1274.15 39.238 1274.6 39.172 1275.12 39.172ZM1274.83 40.504C1274.18 40.504 1273.66 40.63 1273.27 40.882C1272.87 41.122 1272.58 41.488 1272.4 41.98C1272.22 42.472 1272.13 43.096 1272.11 43.852V44.158C1272.11 44.95 1272.2 45.622 1272.37 46.174C1272.53 46.726 1272.82 47.146 1273.21 47.434C1273.62 47.722 1274.17 47.866 1274.87 47.866C1275.46 47.866 1275.94 47.704 1276.31 47.38C1276.69 47.056 1276.97 46.618 1277.15 46.066C1277.35 45.502 1277.44 44.86 1277.44 44.14C1277.44 43.036 1277.23 42.154 1276.79 41.494C1276.37 40.834 1275.72 40.504 1274.83 40.504ZM1285.26 39.19C1286.43 39.19 1287.3 39.448 1287.87 39.964C1288.43 40.48 1288.71 41.302 1288.71 42.43V49H1287.56L1287.26 47.632H1287.18C1286.91 47.98 1286.62 48.274 1286.32 48.514C1286.03 48.742 1285.7 48.91 1285.31 49.018C1284.94 49.126 1284.48 49.18 1283.94 49.18C1283.37 49.18 1282.85 49.078 1282.38 48.874C1281.92 48.67 1281.56 48.358 1281.3 47.938C1281.03 47.506 1280.9 46.966 1280.9 46.318C1280.9 45.358 1281.28 44.62 1282.04 44.104C1282.79 43.576 1283.96 43.288 1285.53 43.24L1287.17 43.186V42.61C1287.17 41.806 1286.99 41.248 1286.64 40.936C1286.3 40.624 1285.8 40.468 1285.17 40.468C1284.66 40.468 1284.18 40.546 1283.73 40.702C1283.27 40.846 1282.85 41.014 1282.45 41.206L1281.96 40.018C1282.38 39.79 1282.88 39.598 1283.46 39.442C1284.03 39.274 1284.63 39.19 1285.26 39.19ZM1285.73 44.338C1284.53 44.386 1283.69 44.578 1283.22 44.914C1282.77 45.25 1282.54 45.724 1282.54 46.336C1282.54 46.876 1282.7 47.272 1283.03 47.524C1283.36 47.776 1283.79 47.902 1284.3 47.902C1285.12 47.902 1285.8 47.68 1286.34 47.236C1286.88 46.78 1287.15 46.084 1287.15 45.148V44.284L1285.73 44.338ZM1295.56 49.18C1294.71 49.18 1293.95 49.006 1293.28 48.658C1292.62 48.31 1292.1 47.77 1291.71 47.038C1291.34 46.306 1291.15 45.37 1291.15 44.23C1291.15 43.042 1291.35 42.076 1291.75 41.332C1292.14 40.588 1292.68 40.042 1293.35 39.694C1294.03 39.346 1294.81 39.172 1295.67 39.172C1296.16 39.172 1296.64 39.226 1297.09 39.334C1297.55 39.43 1297.92 39.55 1298.21 39.694L1297.72 41.008C1297.44 40.9 1297.1 40.798 1296.72 40.702C1296.33 40.606 1295.97 40.558 1295.64 40.558C1294.99 40.558 1294.45 40.696 1294.03 40.972C1293.61 41.248 1293.3 41.656 1293.1 42.196C1292.89 42.736 1292.79 43.408 1292.79 44.212C1292.79 44.98 1292.89 45.634 1293.1 46.174C1293.3 46.714 1293.61 47.122 1294.02 47.398C1294.42 47.674 1294.93 47.812 1295.55 47.812C1296.07 47.812 1296.54 47.758 1296.93 47.65C1297.34 47.542 1297.71 47.41 1298.05 47.254V48.658C1297.72 48.826 1297.36 48.952 1296.97 49.036C1296.58 49.132 1296.12 49.18 1295.56 49.18ZM1304.21 49.18C1303.36 49.18 1302.6 49.006 1301.93 48.658C1301.27 48.31 1300.74 47.77 1300.36 47.038C1299.99 46.306 1299.8 45.37 1299.8 44.23C1299.8 43.042 1300 42.076 1300.4 41.332C1300.79 40.588 1301.33 40.042 1302 39.694C1302.68 39.346 1303.46 39.172 1304.32 39.172C1304.81 39.172 1305.29 39.226 1305.74 39.334C1306.2 39.43 1306.57 39.55 1306.86 39.694L1306.37 41.008C1306.08 40.9 1305.75 40.798 1305.36 40.702C1304.98 40.606 1304.62 40.558 1304.28 40.558C1303.64 40.558 1303.1 40.696 1302.68 40.972C1302.26 41.248 1301.95 41.656 1301.75 42.196C1301.54 42.736 1301.44 43.408 1301.44 44.212C1301.44 44.98 1301.54 45.634 1301.75 46.174C1301.95 46.714 1302.26 47.122 1302.66 47.398C1303.07 47.674 1303.58 47.812 1304.19 47.812C1304.72 47.812 1305.18 47.758 1305.58 47.65C1305.99 47.542 1306.36 47.41 1306.7 47.254V48.658C1306.37 48.826 1306.01 48.952 1305.62 49.036C1305.23 49.132 1304.76 49.18 1304.21 49.18ZM1316.33 49H1314.73V40.666H1311.89C1311.77 42.19 1311.62 43.492 1311.44 44.572C1311.26 45.64 1311.03 46.51 1310.75 47.182C1310.48 47.854 1310.15 48.346 1309.76 48.658C1309.38 48.97 1308.93 49.126 1308.41 49.126C1308.26 49.126 1308.1 49.114 1307.95 49.09C1307.8 49.078 1307.68 49.048 1307.59 49V47.812C1307.66 47.836 1307.74 47.854 1307.82 47.866C1307.9 47.878 1307.99 47.884 1308.07 47.884C1308.34 47.884 1308.58 47.776 1308.79 47.56C1309.01 47.344 1309.2 47.014 1309.37 46.57C1309.55 46.126 1309.71 45.568 1309.85 44.896C1310 44.212 1310.12 43.408 1310.23 42.484C1310.34 41.56 1310.44 40.516 1310.52 39.352H1316.33V49ZM1323.12 39.172C1323.95 39.172 1324.66 39.352 1325.25 39.712C1325.85 40.072 1326.3 40.582 1326.62 41.242C1326.94 41.89 1327.1 42.652 1327.1 43.528V44.482H1320.5C1320.52 45.574 1320.8 46.408 1321.32 46.984C1321.86 47.548 1322.61 47.83 1323.57 47.83C1324.19 47.83 1324.73 47.776 1325.19 47.668C1325.67 47.548 1326.17 47.38 1326.67 47.164V48.55C1326.18 48.766 1325.69 48.922 1325.21 49.018C1324.73 49.126 1324.16 49.18 1323.5 49.18C1322.59 49.18 1321.78 48.994 1321.07 48.622C1320.38 48.25 1319.83 47.698 1319.43 46.966C1319.05 46.222 1318.86 45.316 1318.86 44.248C1318.86 43.192 1319.03 42.286 1319.38 41.53C1319.74 40.774 1320.24 40.192 1320.87 39.784C1321.52 39.376 1322.27 39.172 1323.12 39.172ZM1323.11 40.468C1322.35 40.468 1321.75 40.714 1321.31 41.206C1320.87 41.686 1320.62 42.358 1320.53 43.222H1325.45C1325.45 42.67 1325.36 42.19 1325.19 41.782C1325.03 41.374 1324.77 41.056 1324.42 40.828C1324.08 40.588 1323.65 40.468 1323.11 40.468ZM1336.72 39.352V47.668H1338.13V52.348H1336.6V49H1329.88V52.348H1328.37V47.668H1329.14C1329.7 46.9 1330.15 46.066 1330.51 45.166C1330.88 44.254 1331.16 43.306 1331.34 42.322C1331.53 41.326 1331.63 40.336 1331.65 39.352H1336.72ZM1333.05 40.594C1333 41.41 1332.88 42.256 1332.67 43.132C1332.47 43.996 1332.2 44.824 1331.88 45.616C1331.57 46.408 1331.2 47.092 1330.78 47.668H1335.19V40.594H1333.05ZM1348.4 44.158C1348.4 44.962 1348.3 45.676 1348.08 46.3C1347.88 46.912 1347.58 47.434 1347.18 47.866C1346.8 48.298 1346.32 48.628 1345.76 48.856C1345.21 49.072 1344.59 49.18 1343.9 49.18C1343.27 49.18 1342.68 49.072 1342.14 48.856C1341.6 48.628 1341.13 48.298 1340.74 47.866C1340.34 47.434 1340.03 46.912 1339.8 46.3C1339.58 45.676 1339.48 44.962 1339.48 44.158C1339.48 43.09 1339.66 42.19 1340.02 41.458C1340.38 40.714 1340.89 40.15 1341.56 39.766C1342.24 39.37 1343.03 39.172 1343.96 39.172C1344.83 39.172 1345.6 39.37 1346.26 39.766C1346.93 40.15 1347.46 40.714 1347.83 41.458C1348.21 42.19 1348.4 43.09 1348.4 44.158ZM1341.11 44.158C1341.11 44.914 1341.21 45.574 1341.4 46.138C1341.61 46.69 1341.92 47.116 1342.34 47.416C1342.76 47.716 1343.29 47.866 1343.94 47.866C1344.59 47.866 1345.12 47.716 1345.54 47.416C1345.96 47.116 1346.27 46.69 1346.46 46.138C1346.66 45.574 1346.77 44.914 1346.77 44.158C1346.77 43.39 1346.66 42.736 1346.46 42.196C1346.26 41.656 1345.94 41.242 1345.52 40.954C1345.12 40.654 1344.58 40.504 1343.92 40.504C1342.94 40.504 1342.22 40.828 1341.78 41.476C1341.34 42.124 1341.11 43.018 1341.11 44.158ZM1358.67 41.782C1358.67 42.382 1358.49 42.85 1358.13 43.186C1357.77 43.522 1357.31 43.75 1356.75 43.87V43.942C1357.35 44.026 1357.87 44.242 1358.31 44.59C1358.76 44.926 1358.98 45.454 1358.98 46.174C1358.98 46.582 1358.9 46.96 1358.74 47.308C1358.6 47.656 1358.37 47.956 1358.06 48.208C1357.75 48.46 1357.35 48.658 1356.85 48.802C1356.36 48.934 1355.77 49 1355.07 49H1350.91V39.352H1355.05C1355.74 39.352 1356.35 39.43 1356.89 39.586C1357.44 39.73 1357.87 39.982 1358.19 40.342C1358.51 40.69 1358.67 41.17 1358.67 41.782ZM1357.34 46.174C1357.34 45.622 1357.13 45.226 1356.71 44.986C1356.29 44.746 1355.67 44.626 1354.86 44.626H1352.5V47.722H1354.89C1355.68 47.722 1356.29 47.608 1356.71 47.38C1357.13 47.14 1357.34 46.738 1357.34 46.174ZM1357.07 41.98C1357.07 41.524 1356.9 41.194 1356.57 40.99C1356.24 40.774 1355.71 40.666 1354.96 40.666H1352.5V43.312H1354.68C1355.46 43.312 1356.05 43.204 1356.46 42.988C1356.87 42.772 1357.07 42.436 1357.07 41.98ZM1364.94 39.19C1366.12 39.19 1366.99 39.448 1367.55 39.964C1368.11 40.48 1368.4 41.302 1368.4 42.43V49H1367.24L1366.94 47.632H1366.87C1366.59 47.98 1366.3 48.274 1366 48.514C1365.71 48.742 1365.38 48.91 1364.99 49.018C1364.62 49.126 1364.17 49.18 1363.63 49.18C1363.05 49.18 1362.53 49.078 1362.06 48.874C1361.6 48.67 1361.24 48.358 1360.98 47.938C1360.72 47.506 1360.58 46.966 1360.58 46.318C1360.58 45.358 1360.96 44.62 1361.72 44.104C1362.47 43.576 1363.64 43.288 1365.21 43.24L1366.85 43.186V42.61C1366.85 41.806 1366.67 41.248 1366.33 40.936C1365.98 40.624 1365.49 40.468 1364.85 40.468C1364.35 40.468 1363.87 40.546 1363.41 40.702C1362.95 40.846 1362.53 41.014 1362.13 41.206L1361.65 40.018C1362.07 39.79 1362.56 39.598 1363.14 39.442C1363.72 39.274 1364.32 39.19 1364.94 39.19ZM1365.41 44.338C1364.21 44.386 1363.37 44.578 1362.91 44.914C1362.45 45.25 1362.22 45.724 1362.22 46.336C1362.22 46.876 1362.38 47.272 1362.71 47.524C1363.04 47.776 1363.47 47.902 1363.99 47.902C1364.8 47.902 1365.48 47.68 1366.02 47.236C1366.56 46.78 1366.83 46.084 1366.83 45.148V44.284L1365.41 44.338ZM1372.96 39.352V43.366H1378.2V39.352H1379.78V49H1378.2V44.698H1372.96V49H1371.38V39.352H1372.96ZM1384.33 45.238C1384.33 45.346 1384.32 45.502 1384.31 45.706C1384.31 45.898 1384.31 46.108 1384.29 46.336C1384.28 46.552 1384.27 46.762 1384.26 46.966C1384.25 47.158 1384.23 47.314 1384.22 47.434L1389.39 39.352H1391.33V49H1389.86V43.312C1389.86 43.12 1389.86 42.868 1389.86 42.556C1389.87 42.244 1389.88 41.938 1389.89 41.638C1389.9 41.326 1389.92 41.092 1389.93 40.936L1384.8 49H1382.84V39.352H1384.33V45.238ZM1395 49H1393.16L1395.92 44.95C1395.54 44.854 1395.18 44.704 1394.84 44.5C1394.49 44.284 1394.21 43.99 1393.99 43.618C1393.77 43.234 1393.67 42.76 1393.67 42.196C1393.67 41.272 1393.98 40.57 1394.6 40.09C1395.23 39.598 1396.05 39.352 1397.09 39.352H1401.41V49H1399.82V45.166H1397.48L1395 49ZM1395.2 42.214C1395.2 42.766 1395.4 43.18 1395.81 43.456C1396.23 43.72 1396.81 43.852 1397.55 43.852H1399.82V40.666H1397.25C1396.52 40.666 1395.99 40.81 1395.66 41.098C1395.35 41.386 1395.2 41.758 1395.2 42.214Z" fill="black"/>
<rect x="1423.5" y="32.5" width="43" height="23" rx="11.5" stroke="black"/>
<rect width="15" height="2" rx="1" transform="matrix(0.707107 -0.707107 -0.707107 -0.707107 1440.4 50.0107)" fill="black"/>
<rect width="15" height="2" rx="1" transform="matrix(0.707107 0.707107 0.707107 -0.707107 1438.99 39.4043)" fill="black"/>
<path d="M1581.31 45.1191H1590.26V47.8422H1586.09L1592.08 63.1904V74.0001H1579.62V60.261H1584.48L1581.31 52.0918V45.1191ZM1585.14 61.9526V71.2771H1588.77L1585.14 61.9526Z" fill="black"/>
<path d="M1578.02 74.0001H1572.49V60.261H1571.09V74.0001H1565.56V52.8758L1569.31 45.1191H1578.02V74.0001ZM1571.09 47.8422V57.538H1572.49V47.8422H1571.09Z" fill="black"/>
<path d="M1558.35 56.1764H1563.88V74.0001H1551.42V45.1191H1556.95V71.2771H1558.35V56.1764Z" fill="black"/>
<path d="M1540.6 45.1191H1550.26V47.8422H1548.19V74.0001H1542.66V47.8422H1540.6V45.1191Z" fill="black"/>
<path d="M1539.46 74.0001H1533.93V60.261H1532.53V74.0001H1527V52.8758L1530.75 45.1191H1539.46V74.0001ZM1532.53 47.8422V57.538H1533.93V47.8422H1532.53Z" fill="black"/>
<path d="M1569.27 15H1581.73V17.7231L1579.79 27.4188H1581.73V30.1419H1574.8V41.1579H1581.73V43.881H1569.27V15ZM1576.37 17.7231H1574.8V27.1713L1576.37 17.7231Z" fill="black"/>
<path d="M1556.97 15H1565.92V17.7231H1561.76L1567.74 33.0713V43.881H1555.28V30.1419H1560.15L1556.97 21.9727V15ZM1560.81 31.8335V41.1579H1564.44L1560.81 31.8335Z" fill="black"/>
<path d="M1553.68 43.881H1548.15V30.1419H1546.75V43.881H1541.22V22.7566L1544.98 15H1553.68V43.881ZM1546.75 17.7231V27.4188H1548.15V17.7231H1546.75Z" fill="black"/>
<path d="M1527.08 15H1539.54V30.5957H1534.01V17.7231H1532.61V41.1579H1539.5V43.881H1527.08V15Z" fill="black"/>
</svg>
