<svg width="430" height="561" viewBox="0 0 430 561" fill="none" xmlns="http://www.w3.org/2000/svg">
<g clip-path="url(#clip0_1051_2697)">
<rect width="361.819" height="515.552" transform="translate(0 49.8252) rotate(-7.91521)" fill="white"/>
<rect x="99.9316" y="64.2007" width="303" height="61" transform="rotate(-7.91521 99.9316 64.2007)" fill="#D9D9D9"/>
<line x1="42.0132" y1="141.412" x2="474.85" y2="81.2344" stroke="white"/>
<rect x="43.1836" y="149.832" width="30" height="10" transform="rotate(-7.91521 43.1836 149.832)" fill="#D9D9D9"/>
<rect x="76.8594" y="145.149" width="30" height="10" transform="rotate(-7.91521 76.8594 145.149)" fill="#D9D9D9"/>
<rect x="110.535" y="140.467" width="30" height="10" transform="rotate(-7.91521 110.535 140.467)" fill="#D9D9D9"/>
<rect x="144.211" y="135.785" width="30" height="10" transform="rotate(-7.91521 144.211 135.785)" fill="#D9D9D9"/>
<rect x="177.887" y="131.103" width="30" height="10" transform="rotate(-7.91521 177.887 131.103)" fill="#D9D9D9"/>
<rect x="211.562" y="126.421" width="30" height="10" transform="rotate(-7.91521 211.562 126.421)" fill="#D9D9D9"/>
<rect x="245.24" y="121.739" width="30" height="10" transform="rotate(-7.91521 245.24 121.739)" fill="#D9D9D9"/>
<rect x="278.916" y="117.057" width="30" height="10" transform="rotate(-7.91521 278.916 117.057)" fill="#D9D9D9"/>
<rect x="57.7793" y="254.822" width="320" height="187" transform="rotate(-7.91521 57.7793 254.822)" fill="#D9D9D9"/>
<rect x="191.742" y="434.082" width="212" height="29" transform="rotate(-7.91521 191.742 434.082)" fill="#D9D9D9"/>
<rect x="47.4512" y="180.536" width="320" height="62" transform="rotate(-7.91521 47.4512 180.536)" fill="#D9D9D9"/>
<rect x="84.6328" y="447.964" width="30" height="10" transform="rotate(-7.91521 84.6328 447.964)" fill="#D9D9D9"/>
<rect x="118.309" y="443.282" width="30" height="10" transform="rotate(-7.91521 118.309 443.282)" fill="#D9D9D9"/>
<rect x="151.984" y="438.6" width="30" height="10" transform="rotate(-7.91521 151.984 438.6)" fill="#D9D9D9"/>
<rect x="410.08" y="363.341" width="103" height="69" transform="rotate(-7.91521 410.08 363.341)" fill="#D9D9D9"/>
<rect x="378.27" y="134.542" width="103" height="36" transform="rotate(-7.91521 378.27 134.542)" fill="#D9D9D9"/>
<rect x="385.154" y="184.065" width="103" height="151" transform="rotate(-7.91521 385.154 184.065)" fill="#D9D9D9"/>
<rect x="426.695" y="344.877" width="30" height="10" transform="rotate(-7.91521 426.695 344.877)" fill="#D9D9D9"/>
<rect x="198.627" y="483.605" width="103" height="36" transform="rotate(-7.91521 198.627 483.605)" fill="#D9D9D9"/>
<rect x="204.961" y="529.167" width="103" height="114" transform="rotate(-7.91521 204.961 529.167)" fill="#D9D9D9"/>
<rect x="91.6562" y="498.478" width="103" height="36" transform="rotate(-7.91521 91.6562 498.478)" fill="#D9D9D9"/>
<rect x="97.9902" y="544.04" width="103" height="114" transform="rotate(-7.91521 97.9902 544.04)" fill="#D9D9D9"/>
<rect x="32.5801" y="73.5649" width="64" height="12" transform="rotate(-7.91521 32.5801 73.5649)" fill="#D9D9D9"/>
<rect x="34.7832" y="89.4126" width="64" height="12" transform="rotate(-7.91521 34.7832 89.4126)" fill="#D9D9D9"/>
<rect x="37.123" y="106.25" width="64" height="12" transform="rotate(-7.91521 37.123 106.25)" fill="#D9D9D9"/>
<rect x="39.3281" y="122.098" width="64" height="12" transform="rotate(-7.91521 39.3281 122.098)" fill="#D9D9D9"/>
<rect x="406.979" y="21.5117" width="59" height="61" transform="rotate(-7.91521 406.979 21.5117)" fill="#D9D9D9"/>
<rect x="314.512" y="467.494" width="212" height="51" transform="rotate(-7.91521 314.512 467.494)" fill="#D9D9D9"/>
<rect x="323.738" y="533.855" width="124" height="165" transform="rotate(-7.91521 323.738 533.855)" fill="#D9D9D9"/>
</g>
<defs>
<clipPath id="clip0_1051_2697">
<rect width="361.819" height="515.552" fill="white" transform="translate(0 49.8252) rotate(-7.91521)"/>
</clipPath>
</defs>
</svg>
