<svg width="171" height="161" viewBox="0 0 171 161" fill="none" xmlns="http://www.w3.org/2000/svg">
<g filter="url(#filter0_d_1155_2646)">
<path d="M24.1191 0L170.37 11.4938L159.881 144.956L13.9001 130.031C13.9001 130.031 20.7198 90.9179 22.7263 65.4892C24.7329 40.0606 24.1191 0 24.1191 0Z" fill="#D9D9D9"/>
</g>
<path d="M52.4447 26.9986L71.7002 28.6708L69.6073 52.7721L61.0634 52.0301L62.7909 32.137L60.6231 31.9487L57.4781 68.1644L68.1261 69.0891L67.7606 73.2973L48.5689 71.6307L52.4447 26.9986ZM89.6767 75.2004L81.1328 74.4585L82.9766 53.2264L80.8088 53.0382L78.965 74.2702L70.4211 73.5283L73.256 40.8832L80.0991 29.4001L93.5525 30.5684L89.6767 75.2004ZM82.4754 33.8464L81.1742 48.83L83.342 49.0182L84.6432 34.0346L82.4754 33.8464ZM98.6344 31.0097L112.47 32.2112L112.105 36.4194L105.665 35.8602L112.851 60.3818L111.4 77.0869L92.1444 75.4147L93.9882 54.1826L101.512 54.836L97.6986 41.7852L98.6344 31.0097ZM102.305 57.5388L101.054 71.9485L106.665 72.4358L102.305 57.5388ZM117.637 32.6599L136.892 34.332L136.527 38.5402L132.229 53.2636L135.226 53.5238L134.86 57.732L124.149 56.8018L122.67 73.8257L133.382 74.7559L133.017 78.9641L113.761 77.2919L117.637 32.6599ZM128.238 37.8204L125.815 37.61L124.547 52.211L128.238 37.8204ZM63.6307 120.116L55.0869 119.374L56.9307 98.1415L54.7628 97.9532L52.919 119.185L44.3752 118.443L47.2101 85.7982L54.0532 74.3152L67.5065 75.4835L63.6307 120.116ZM56.4294 78.7614L55.1283 93.7451L57.2961 93.9333L58.5973 78.9497L56.4294 78.7614ZM69.2729 75.6369L84.1928 76.9325L83.8273 81.1407L80.6393 80.8638L77.1289 121.288L68.5851 120.546L72.0955 80.1219L68.9075 79.845L69.2729 75.6369ZM95.2148 95.1062L103.759 95.8481L101.367 123.392L82.1112 121.72L85.987 77.0883L94.5308 77.8303L91.0204 118.254L93.1883 118.442L95.2148 95.1062ZM123.219 125.29L114.675 124.548L116.519 103.316L114.351 103.128L112.507 124.36L103.963 123.618L106.798 90.9728L113.641 79.4898L127.095 80.6581L123.219 125.29ZM116.018 83.9361L114.716 98.9197L116.884 99.1079L118.186 84.1243L116.018 83.9361ZM132.177 81.0994L146.013 82.3009L145.647 86.5091L139.207 85.9499L146.393 110.471L144.942 127.177L125.687 125.504L127.53 104.272L135.054 104.926L131.241 91.8749L132.177 81.0994ZM135.847 107.628L134.596 122.038L140.207 122.525L135.847 107.628Z" fill="black"/>
<defs>
<filter id="filter0_d_1155_2646" x="0.00039053" y="0" width="170.369" height="160.856" filterUnits="userSpaceOnUse" color-interpolation-filters="sRGB">
<feFlood flood-opacity="0" result="BackgroundImageFix"/>
<feColorMatrix in="SourceAlpha" type="matrix" values="0 0 0 0 0 0 0 0 0 0 0 0 0 0 0 0 0 0 127 0" result="hardAlpha"/>
<feOffset dx="-8" dy="10"/>
<feGaussianBlur stdDeviation="2.95"/>
<feComposite in2="hardAlpha" operator="out"/>
<feColorMatrix type="matrix" values="0 0 0 0 0 0 0 0 0 0 0 0 0 0 0 0 0 0 0.25 0"/>
<feBlend mode="normal" in2="BackgroundImageFix" result="effect1_dropShadow_1155_2646"/>
<feBlend mode="normal" in="SourceGraphic" in2="effect1_dropShadow_1155_2646" result="shape"/>
</filter>
</defs>
</svg>
