<svg width="184" height="168" viewBox="0 0 184 168" fill="none" xmlns="http://www.w3.org/2000/svg">
<path d="M0.499034 0.499984L0.49902 166.845L182.845 162.566C182.844 162.557 182.843 162.548 182.842 162.538C182.808 162.168 182.758 161.621 182.694 160.914C182.567 159.5 182.384 157.444 182.165 154.878C181.727 149.745 181.143 142.57 180.559 134.397C179.39 118.056 178.219 97.7162 178.214 81.7539C178.209 65.7915 179.38 45.3384 180.551 28.8838C181.136 20.6548 181.723 13.422 182.162 8.24707C182.382 5.65979 182.565 3.58662 182.693 2.16016C182.757 1.44723 182.807 0.895796 182.842 0.522461C182.842 0.515076 182.843 0.507245 182.844 0.5L0.499034 0.499984Z" fill="#D5D5D5" stroke="white"/>
</svg>
