<svg width="462" height="429" viewBox="0 0 462 429" fill="none" xmlns="http://www.w3.org/2000/svg">
<g filter="url(#filter0_d_550_276)">
<path d="M439.495 0L13.9002 23.8604L35.6742 412.241L460.709 378.395C460.709 378.395 443.447 264.33 439.275 190.332C435.102 116.333 439.495 0 439.495 0Z" fill="#D5D5D5"/>
<path d="M14.427 24.3316L36.1443 411.701L460.135 377.938C460.105 377.737 460.066 377.481 460.02 377.17C459.892 376.316 459.705 375.054 459.465 373.422C458.985 370.158 458.293 365.412 457.451 359.486C455.768 347.635 453.48 331.062 451.061 312.176C446.223 274.408 440.863 227.378 438.776 190.36C436.688 153.342 436.744 105.744 437.321 67.409C437.609 48.2397 438.028 31.3828 438.375 19.3186C438.548 13.2866 438.703 8.45237 438.815 5.12618C438.871 3.46316 438.916 2.17657 438.947 1.30615C438.958 0.992986 438.968 0.733642 438.975 0.529937L14.427 24.3316Z" stroke="white"/>
</g>
<path d="M123.323 160.778C124.168 160.634 124.909 160.839 125.546 161.394C126.223 161.903 126.591 162.584 126.65 163.435C126.708 164.286 126.438 165.011 125.837 165.608C125.28 166.203 124.574 166.508 123.72 166.524C122.434 166.485 121.298 166.456 120.314 166.439C119.332 166.464 118.372 166.509 117.436 166.573C116.542 166.635 115.628 166.72 114.695 166.827C113.764 166.977 112.686 167.158 111.461 167.371C110.655 167.469 109.914 167.264 109.237 166.755C108.603 166.243 108.256 165.561 108.198 164.709C108.139 163.858 108.368 163.158 108.887 162.609C109.402 162.017 110.042 161.695 110.809 161.642C111.149 161.619 111.47 161.618 111.771 161.64C112.114 161.659 112.436 161.68 112.737 161.702L112.865 161.693C113.078 161.678 113.201 161.605 113.235 161.475C113.266 161.302 113.211 161.134 113.072 160.973L100.153 143.902C99.9165 143.577 99.6596 143.573 99.3823 143.891L92.6305 151.094C92.4324 151.321 92.3421 151.563 92.3598 151.818L93.105 162.608C93.1285 162.949 93.2893 163.109 93.5872 163.088C94.1831 163.047 94.7563 162.986 95.3067 162.905C95.8967 162.779 96.4471 162.698 96.9579 162.663C97.7241 162.61 98.403 162.841 98.9945 163.356C99.5832 163.829 99.9054 164.47 99.9613 165.278C100.02 166.13 99.7493 166.854 99.1491 167.451C98.5914 168.046 97.8854 168.351 97.0312 168.368C95.8305 168.322 94.759 168.289 93.8167 168.269C92.9199 168.288 92.0459 168.327 91.1945 168.386C90.3858 168.442 89.5147 168.523 88.5812 168.63C87.6932 168.777 86.6364 168.957 85.4108 169.17C84.605 169.269 83.8638 169.063 83.1871 168.554C82.553 168.042 82.2065 167.36 82.1477 166.509C82.0889 165.657 82.3384 164.934 82.8961 164.34C83.4963 163.743 84.2038 163.458 85.0184 163.488L86.8149 163.492L86.9426 163.483C87.2406 163.463 87.3778 163.282 87.3543 162.941L84.8363 126.484C84.8128 126.144 84.652 125.984 84.3541 126.004C83.9284 126.034 83.5483 126.103 83.2136 126.211C82.9186 126.275 82.6008 126.318 82.2603 126.341C81.4516 126.397 80.7514 126.168 80.1599 125.653C79.6109 125.134 79.3084 124.471 79.2526 123.662C79.1938 122.811 79.4432 122.088 80.0009 121.494C80.5557 120.857 81.2616 120.551 82.1188 120.577C83.362 120.62 84.4335 120.653 85.3333 120.676C86.2726 120.654 87.1467 120.615 87.9554 120.559C88.8068 120.5 89.6779 120.419 90.5688 120.315C91.4994 120.165 92.5561 119.985 93.7391 119.775C94.5846 119.631 95.3258 119.836 95.9629 120.391C96.6396 120.9 97.0073 121.581 97.0661 122.432C97.1249 123.283 96.8542 124.008 96.2539 124.605C95.6962 125.2 94.9903 125.505 94.136 125.521C93.6619 125.468 93.1695 125.46 92.6587 125.495C92.145 125.488 91.6313 125.48 91.1175 125.473L90.9898 125.482C90.6919 125.502 90.5547 125.683 90.5782 126.024L91.7512 143.007C91.7688 143.262 91.8444 143.428 91.978 143.505C92.1512 143.535 92.3171 143.46 92.4756 143.278L109.746 124.892C109.865 124.756 109.92 124.624 109.911 124.496C109.899 124.326 109.766 124.249 109.51 124.267C109.17 124.29 108.789 124.359 108.37 124.474C107.947 124.546 107.565 124.594 107.225 124.617C106.416 124.673 105.716 124.443 105.124 123.928C104.533 123.413 104.209 122.751 104.153 121.942C104.094 121.091 104.344 120.368 104.902 119.774C105.499 119.134 106.226 118.827 107.083 118.853C108.412 118.89 109.568 118.917 110.553 118.934C111.535 118.909 112.494 118.864 113.431 118.8C114.325 118.738 115.238 118.654 116.172 118.546C117.102 118.396 118.159 118.217 119.342 118.007C120.188 117.863 120.929 118.068 121.566 118.623C122.2 119.135 122.546 119.817 122.605 120.668C122.661 121.477 122.432 122.177 121.916 122.769C121.444 123.357 120.803 123.679 119.994 123.735C119.824 123.747 119.654 123.759 119.484 123.771C119.31 123.74 119.16 123.729 119.032 123.738L118.841 123.751C118.628 123.765 118.442 123.864 118.284 124.046L104.049 139.014C103.766 139.248 103.764 139.526 104.043 139.849L119.934 160.948C120.077 161.152 120.254 161.246 120.467 161.232C120.978 161.197 121.466 161.141 121.931 161.067C122.436 160.946 122.9 160.85 123.323 160.778ZM136.561 126.055C135.412 126.135 134.384 125.799 133.477 125.049C132.609 124.254 132.136 123.282 132.056 122.132C131.974 120.941 132.309 119.912 133.062 119.048C133.857 118.18 134.83 117.707 135.979 117.627C137.128 117.548 138.135 117.885 139 118.638C139.907 119.388 140.402 120.358 140.484 121.55C140.563 122.7 140.207 123.729 139.414 124.639C138.661 125.504 137.71 125.976 136.561 126.055ZM133.791 165.829C132.943 165.93 132.18 165.726 131.503 165.217C130.869 164.705 130.523 164.023 130.464 163.172C130.405 162.32 130.655 161.597 131.212 161.003C131.81 160.363 132.537 160.056 133.394 160.082C134.042 160.166 134.748 160.181 135.514 160.128L135.642 160.12C135.94 160.099 136.077 159.918 136.054 159.578L134.502 137.103C134.478 136.763 134.317 136.603 134.019 136.624C133.253 136.676 132.513 136.792 131.798 136.969C130.949 137.071 130.187 136.867 129.51 136.358C128.876 135.845 128.53 135.164 128.471 134.312C128.412 133.461 128.683 132.737 129.283 132.139C129.88 131.499 130.586 131.194 131.401 131.223C132.556 131.229 133.371 131.258 133.845 131.311C134.359 131.318 134.701 131.316 134.871 131.304C135.041 131.292 135.254 131.278 135.509 131.26C136.659 131.181 137.667 131.539 138.534 132.334C139.442 133.084 139.935 134.034 140.014 135.183L141.672 159.19C141.696 159.53 141.857 159.69 142.155 159.67C142.963 159.614 143.704 159.499 144.376 159.324C145.221 159.18 145.963 159.385 146.6 159.94C147.234 160.452 147.58 161.134 147.639 161.985C147.698 162.837 147.449 163.56 146.891 164.154C146.333 164.749 145.627 165.054 144.773 165.07C143.916 165.044 142.995 165.022 142.01 165.004C141.068 164.984 140.149 165.005 139.256 165.066C138.362 165.128 137.428 165.235 136.455 165.388C135.525 165.538 134.637 165.685 133.791 165.829ZM200.639 126.441C201.36 126.348 202.014 126.538 202.603 127.011C203.192 127.484 203.512 128.103 203.565 128.869C203.621 129.678 203.39 130.357 202.872 130.906C202.351 131.412 201.706 131.671 200.937 131.681L199.332 131.663L199.14 131.677C198.927 131.691 198.767 131.852 198.66 132.159L191.697 159.52C191.531 160.215 191.165 160.797 190.599 161.264C190.032 161.73 189.387 161.989 188.663 162.039C187.982 162.086 187.329 161.917 186.704 161.533C186.079 161.148 185.636 160.623 185.376 159.956L177.096 138.524C177.035 138.271 176.899 138.153 176.686 138.167C176.516 138.179 176.397 138.316 176.329 138.577L171.006 160.885C170.84 161.58 170.474 162.162 169.907 162.629C169.344 163.138 168.7 163.418 167.977 163.468C167.253 163.518 166.577 163.329 165.949 162.902C165.324 162.517 164.881 161.992 164.621 161.326L154.031 135.241C153.876 134.867 153.632 134.734 153.297 134.843L151.902 135.068C151.138 135.163 150.464 134.996 149.878 134.566C149.29 134.093 148.967 133.453 148.911 132.644C148.859 131.878 149.091 131.22 149.609 130.671C150.127 130.122 150.75 129.844 151.476 129.837C152.589 129.845 153.552 129.864 154.367 129.893C155.221 129.877 156.031 129.843 156.798 129.79C157.564 129.737 158.35 129.661 159.156 129.563C160.001 129.419 160.974 129.266 162.075 129.105C162.796 129.012 163.45 129.202 164.039 129.675C164.627 130.147 164.948 130.766 165.001 131.533C165.054 132.299 164.843 132.955 164.367 133.501C163.931 134.002 163.352 134.277 162.628 134.327C162.202 134.356 161.754 134.366 161.283 134.356C160.854 134.342 160.404 134.331 159.933 134.32L159.806 134.329C159.422 134.356 159.309 134.577 159.467 134.994L167.051 153.78C167.154 154.03 167.29 154.149 167.461 154.137C167.631 154.125 167.748 153.967 167.813 153.664L172.711 131.706C172.914 130.922 173.318 130.274 173.924 129.762C174.528 129.207 175.234 128.901 176.042 128.846C176.851 128.79 177.592 128.995 178.266 129.462C178.937 129.886 179.426 130.472 179.735 131.221L187.606 152.296C187.708 152.546 187.845 152.665 188.015 152.653C188.228 152.638 188.347 152.502 188.372 152.244L193.242 132.661C193.239 132.619 193.238 132.598 193.238 132.598C193.277 132.552 193.296 132.508 193.293 132.465C193.272 132.168 193.113 132.029 192.815 132.049C192.389 132.079 191.967 132.151 191.547 132.265C191.124 132.337 190.679 132.389 190.21 132.422C189.529 132.469 188.917 132.276 188.374 131.843C187.828 131.367 187.529 130.747 187.476 129.98C187.423 129.214 187.655 128.557 188.173 128.008C188.691 127.459 189.314 127.18 190.04 127.173C191.153 127.182 192.116 127.201 192.931 127.23C193.785 127.214 194.596 127.179 195.362 127.126C196.128 127.073 196.935 126.996 197.784 126.895C198.629 126.751 199.581 126.6 200.639 126.441ZM215.685 120.59C214.536 120.67 213.508 120.334 212.601 119.585C211.733 118.789 211.26 117.817 211.18 116.667C211.098 115.476 211.433 114.447 212.186 113.583C212.981 112.715 213.954 112.242 215.103 112.162C216.252 112.083 217.259 112.42 218.124 113.173C219.031 113.923 219.526 114.894 219.608 116.085C219.687 117.235 219.331 118.264 218.538 119.174C217.785 120.039 216.834 120.511 215.685 120.59ZM212.915 160.364C212.067 160.465 211.304 160.261 210.627 159.752C209.993 159.24 209.647 158.558 209.588 157.707C209.529 156.855 209.779 156.132 210.336 155.538C210.934 154.898 211.661 154.591 212.518 154.617C213.166 154.701 213.872 154.716 214.638 154.663L214.766 154.655C215.064 154.634 215.201 154.454 215.178 154.113L213.626 131.639C213.602 131.298 213.441 131.138 213.143 131.159C212.377 131.212 211.637 131.327 210.922 131.505C210.073 131.606 209.311 131.402 208.634 130.893C208 130.38 207.654 129.699 207.595 128.847C207.536 127.996 207.807 127.272 208.407 126.674C209.004 126.034 209.71 125.729 210.525 125.758C211.68 125.764 212.495 125.793 212.969 125.846C213.483 125.853 213.825 125.851 213.995 125.839C214.165 125.828 214.378 125.813 214.633 125.795C215.783 125.716 216.791 126.074 217.658 126.869C218.566 127.619 219.059 128.569 219.138 129.718L220.796 153.725C220.82 154.065 220.981 154.225 221.279 154.205C222.087 154.149 222.828 154.034 223.5 153.859C224.345 153.715 225.087 153.92 225.724 154.475C226.358 154.987 226.704 155.669 226.763 156.52C226.822 157.372 226.573 158.095 226.015 158.689C225.457 159.284 224.751 159.589 223.897 159.605C223.04 159.579 222.119 159.557 221.134 159.539C220.192 159.519 219.273 159.54 218.38 159.601C217.486 159.663 216.552 159.77 215.579 159.923C214.649 160.073 213.761 160.22 212.915 160.364ZM300.4 148.548C301.209 148.492 301.909 148.721 302.5 149.237C303.089 149.709 303.413 150.371 303.471 151.222C303.53 152.074 303.26 152.798 302.659 153.396C302.102 153.99 301.396 154.295 300.541 154.312C299.341 154.266 298.269 154.233 297.327 154.213C296.43 154.232 295.556 154.271 294.705 154.33C293.896 154.386 293.025 154.467 292.091 154.574C291.203 154.721 290.147 154.901 288.921 155.114C288.073 155.216 287.331 155.01 286.697 154.498C286.063 153.986 285.717 153.304 285.658 152.453C285.599 151.601 285.849 150.879 286.406 150.284C286.961 149.647 287.667 149.342 288.524 149.368C288.995 149.378 289.488 149.387 290.001 149.394C290.558 149.399 291.093 149.404 291.606 149.412L291.734 149.403C292.032 149.382 292.169 149.202 292.146 148.861L289.919 116.618C289.898 116.32 289.803 116.177 289.633 116.189C289.459 116.158 289.339 116.273 289.272 116.534L278.218 147.834C277.967 148.536 277.558 149.12 276.992 149.587C276.465 150.008 275.84 150.244 275.116 150.294C274.435 150.341 273.761 150.174 273.093 149.792C272.467 149.408 272.005 148.905 271.705 148.284L257.471 118.667C257.411 118.414 257.295 118.294 257.125 118.306C256.912 118.32 256.818 118.498 256.841 118.838L259.073 151.145C259.096 151.486 259.257 151.646 259.555 151.625C260.108 151.587 260.639 151.529 261.147 151.451C261.694 151.328 262.222 151.227 262.73 151.149C263.575 151.006 264.316 151.211 264.953 151.766C265.587 152.278 265.934 152.96 265.993 153.811C266.052 154.662 265.802 155.385 265.244 155.98C264.687 156.574 263.981 156.88 263.126 156.896C261.926 156.85 260.854 156.817 259.912 156.797C259.015 156.816 258.141 156.855 257.29 156.914C256.439 156.973 255.567 157.054 254.677 157.159C253.789 157.306 252.732 157.485 251.506 157.698C250.658 157.8 249.895 157.596 249.219 157.087C248.584 156.574 248.238 155.893 248.179 155.041C248.12 154.19 248.35 153.49 248.868 152.941C249.383 152.349 250.045 152.026 250.854 151.97C251.535 151.923 252.157 151.944 252.719 152.033C253.144 152.004 253.344 151.798 253.317 151.415L250.813 115.149C250.786 114.766 250.581 114.588 250.198 114.614C249.946 114.674 249.672 114.736 249.377 114.799C249.079 114.82 248.76 114.842 248.419 114.865C247.611 114.921 246.911 114.691 246.319 114.176C245.727 113.661 245.404 112.999 245.348 112.191C245.289 111.339 245.56 110.615 246.16 110.017C246.76 109.42 247.489 109.134 248.346 109.161C249.763 109.234 250.942 109.281 251.884 109.301C252.827 109.322 253.787 109.298 254.766 109.231C256.001 109.145 257.131 109.409 258.157 110.023C259.226 110.633 260.012 111.498 260.517 112.618L274.261 141.628C274.406 141.875 274.543 141.994 274.671 141.985C274.883 141.97 275.002 141.834 275.027 141.575L285.541 110.826C285.933 109.687 286.616 108.741 287.591 107.99C288.565 107.238 289.649 106.821 290.84 106.739C291.862 106.668 292.817 106.56 293.705 106.413C294.593 106.266 295.691 106.062 296.998 105.8C297.844 105.657 298.606 105.86 299.286 106.412C299.963 106.922 300.33 107.602 300.389 108.453C300.445 109.262 300.215 109.962 299.7 110.554C299.182 111.103 298.519 111.405 297.71 111.461C297.412 111.481 297.113 111.481 296.812 111.459C296.553 111.434 296.254 111.433 295.913 111.457L295.786 111.465C295.488 111.486 295.351 111.667 295.374 112.007L297.883 148.337C297.91 148.72 298.136 148.897 298.561 148.867C299.191 148.695 299.804 148.589 300.4 148.548ZM338.896 146.017C339.021 145.966 339.211 145.931 339.466 145.914C340.19 145.864 340.826 146.098 341.375 146.616C341.921 147.091 342.222 147.733 342.278 148.542C342.34 149.436 342.07 150.182 341.47 150.779C340.873 151.419 340.143 151.683 339.28 151.572C338.629 151.446 337.982 151.362 337.338 151.321C336.739 151.32 336.161 151.317 335.605 151.312C334.754 151.371 333.971 151.19 333.258 150.769C332.545 150.348 331.993 149.787 331.602 149.087C331.363 148.719 331.103 148.672 330.823 148.948C329.449 150.112 327.95 151.007 326.325 151.633C324.703 152.301 322.764 152.713 320.508 152.868C317.529 153.074 315.022 152.392 312.989 150.822C310.953 149.209 309.841 147.04 309.653 144.316C309.509 142.23 309.894 140.365 310.806 138.719C311.716 137.031 313.034 135.679 314.76 134.661C316.526 133.598 318.622 132.983 321.048 132.816C322.325 132.727 323.653 132.764 325.033 132.925C326.455 133.084 327.932 133.409 329.463 133.902C329.505 133.899 329.549 133.918 329.595 133.957C329.637 133.954 329.68 133.951 329.723 133.949C330.021 133.928 330.158 133.747 330.134 133.407L329.998 131.428C329.798 128.533 328.904 126.435 327.317 125.133C325.77 123.786 323.975 123.183 321.932 123.324C321.294 123.368 320.64 123.499 319.97 123.716C319.341 123.888 318.694 124.125 318.031 124.428C317.699 124.579 317.609 124.82 317.76 125.152C317.814 125.319 317.846 125.467 317.855 125.594C317.906 125.719 317.938 125.867 317.949 126.037C318.023 127.101 317.706 128.085 316.999 128.989C316.288 129.851 315.337 130.323 314.145 130.405C312.911 130.491 311.881 130.134 311.056 129.336C310.271 128.492 309.84 127.517 309.764 126.41C309.726 125.857 309.794 125.296 309.968 124.728C310.143 124.16 310.427 123.627 310.82 123.129C311.918 121.685 313.314 120.541 315.01 119.696C316.744 118.807 318.612 118.293 320.613 118.155C325.039 117.849 328.55 118.825 331.144 121.084C333.734 123.3 335.183 126.622 335.488 131.048L336.516 145.925C336.542 146.308 336.705 146.489 337.003 146.469C337.343 146.445 337.659 146.381 337.951 146.275C338.286 146.166 338.601 146.08 338.896 146.017ZM320.138 147.505C322.473 147.258 324.405 146.74 325.933 145.95C327.503 145.157 329.021 143.919 330.487 142.236C330.643 142.011 330.712 141.771 330.694 141.516L330.597 140.111C330.577 139.813 330.434 139.609 330.17 139.499C329.244 139.092 328.105 138.701 326.753 138.324C325.444 137.944 323.704 137.828 321.533 137.978C319.362 138.128 317.693 138.735 316.526 139.8C315.357 140.821 314.832 142.205 314.953 143.95C315.032 145.099 315.544 146.005 316.487 146.667C317.474 147.326 318.691 147.605 320.138 147.505ZM375.478 118.471C375.551 119.535 375.233 120.498 374.523 121.36C373.809 122.179 372.878 122.628 371.729 122.707C370.963 122.76 370.247 122.617 369.582 122.278C368.957 121.894 368.432 121.417 368.008 120.847C367.86 120.558 367.617 120.447 367.279 120.513C365.299 120.949 363.466 122.273 361.78 124.485C360.091 126.655 358.864 129.327 358.099 132.502C358.026 132.678 358 132.915 358.02 133.213L358.814 144.706C358.837 145.046 358.998 145.206 359.296 145.186C359.764 145.153 360.189 145.103 360.569 145.033C360.988 144.919 361.411 144.847 361.837 144.818C362.56 144.768 363.195 144.98 363.741 145.456C364.284 145.889 364.582 146.488 364.635 147.255C364.688 148.021 364.434 148.68 363.874 149.232C363.356 149.781 362.712 150.06 361.943 150.071C360.615 150.034 359.543 150.001 358.729 149.972C357.959 149.982 357.192 150.014 356.426 150.067C355.532 150.129 354.703 150.207 353.94 150.303C353.18 150.441 352.187 150.616 350.961 150.829C350.198 150.925 349.501 150.738 348.87 150.268C348.281 149.795 347.96 149.176 347.907 148.41C347.854 147.644 348.067 147.009 348.546 146.505C349.021 145.959 349.621 145.661 350.344 145.611C350.685 145.588 351.048 145.584 351.434 145.6C351.863 145.613 352.291 145.627 352.72 145.64L352.848 145.631C353.145 145.61 353.283 145.43 353.259 145.089L351.672 122.104C351.648 121.764 351.487 121.604 351.189 121.624C350.423 121.677 349.683 121.792 348.968 121.97C348.12 122.071 347.357 121.867 346.68 121.358C346.046 120.846 345.7 120.164 345.641 119.313C345.582 118.462 345.853 117.737 346.453 117.14C347.053 116.542 347.761 116.258 348.576 116.288C349.433 116.314 350.097 116.332 350.568 116.342C351.082 116.35 351.573 116.337 352.041 116.305C352.552 116.27 353.233 116.222 354.084 116.164C354.85 116.111 355.508 116.343 356.057 116.861C356.648 117.377 356.969 117.996 357.019 118.72L357.2 121.337C357.218 121.593 357.292 121.737 357.422 121.771C357.596 121.802 357.76 121.705 357.916 121.48C360.475 117.668 363.78 115.366 367.831 114.573C368.126 114.51 368.401 114.469 368.657 114.452C368.952 114.388 369.248 114.347 369.546 114.326C371.164 114.214 372.531 114.505 373.648 115.197C374.765 115.89 375.375 116.981 375.478 118.471ZM416.489 140.722C417.334 140.578 418.074 140.762 418.708 141.275C419.34 141.744 419.685 142.405 419.743 143.256C419.799 144.065 419.527 144.768 418.927 145.365C418.369 145.96 417.683 146.242 416.868 146.213C416.266 146.169 415.621 146.107 414.931 146.026C414.244 145.988 413.601 145.968 413.002 145.967C411.85 146.004 410.82 145.647 409.913 144.897C409.048 144.144 408.577 143.193 408.497 142.044C408.482 141.831 408.411 141.729 408.284 141.738C408.113 141.75 407.949 141.847 407.79 142.029C405.074 145.424 401.949 147.243 398.416 147.487C395.352 147.699 392.658 147.094 390.336 145.672C389.307 145.016 388.256 144.041 387.183 142.746C386.149 141.406 385.553 139.587 385.395 137.288L384.155 119.347C384.132 119.007 383.971 118.847 383.673 118.867C383.248 118.897 382.825 118.969 382.405 119.083C382.025 119.152 381.601 119.203 381.132 119.235C380.451 119.282 379.839 119.089 379.296 118.656C378.75 118.181 378.451 117.56 378.398 116.794C378.345 116.028 378.577 115.37 379.096 114.821C379.614 114.272 380.259 114.014 381.031 114.046C382.016 114.063 382.786 114.074 383.342 114.079C383.896 114.041 384.493 114.021 385.135 114.019C386.284 113.94 387.292 114.298 388.16 115.093C389.067 115.843 389.56 116.793 389.64 117.942L390.949 136.905C391.04 138.224 391.389 139.248 391.995 139.976C392.641 140.659 393.359 141.144 394.149 141.431C394.981 141.716 395.762 141.876 396.491 141.911C397.221 141.946 397.735 141.953 398.033 141.933C399.905 141.803 401.693 141.06 403.396 139.702C405.098 138.344 406.554 136.511 407.763 134.204C407.873 133.94 407.921 133.701 407.906 133.488L406.821 117.782C406.798 117.441 406.637 117.281 406.339 117.302C405.914 117.331 405.491 117.403 405.071 117.518C404.648 117.59 404.224 117.64 403.798 117.67C403.117 117.717 402.505 117.524 401.962 117.091C401.416 116.615 401.117 115.995 401.064 115.228C401.011 114.462 401.243 113.805 401.762 113.256C402.28 112.707 402.925 112.448 403.697 112.48C404.682 112.498 405.452 112.509 406.008 112.513C406.562 112.475 407.159 112.455 407.801 112.454C408.95 112.374 409.958 112.732 410.826 113.528C411.733 114.278 412.226 115.227 412.306 116.377L413.981 140.639C414.014 141.107 414.24 141.284 414.66 141.169L416.489 140.722Z" fill="black"/>
<path d="M101.833 345.066L100.476 304.163L108.679 303.575L120.462 332.375L120.909 332.343L128.469 302.158L136.703 301.569L141.188 342.248L136.049 342.616L134.243 325.454L132.407 307.427L131.832 307.468L123.935 338.768L118.413 339.163L106.138 309.307L105.564 309.349L106.285 327.487L106.972 344.698L101.833 345.066ZM151.988 310.163L153.375 329.538C153.492 331.176 153.818 332.597 154.354 333.799C154.909 334.978 155.732 335.871 156.823 336.477C157.913 337.062 159.341 337.291 161.107 337.165C162.767 337.046 164.171 336.646 165.32 335.965C166.468 335.263 167.376 334.353 168.044 333.236C168.734 332.117 169.17 330.877 169.35 329.517L170.539 333.121L169.421 333.201C169.203 334.628 168.71 335.958 167.942 337.189C167.174 338.399 166.091 339.407 164.694 340.213C163.317 340.996 161.575 341.463 159.469 341.613C157.022 341.789 154.999 341.474 153.402 340.668C151.824 339.84 150.621 338.568 149.792 336.852C148.962 335.115 148.457 332.991 148.277 330.48L146.849 310.531L151.988 310.163ZM172.83 308.671L175.061 339.823L169.89 340.194L169.579 332.709L169.332 332.405L167.66 309.041L172.83 308.671ZM183.66 339.208L180.632 296.916L185.771 296.548L188.799 338.84L183.66 339.208ZM197.56 338.212L195.33 307.06L200.501 306.69L202.731 337.842L197.56 338.212ZM197.55 301.768C196.486 301.844 195.668 301.625 195.096 301.11C194.544 300.572 194.233 299.813 194.163 298.835L194.152 298.675C194.08 297.675 194.28 296.88 194.751 296.29C195.244 295.699 196.022 295.365 197.086 295.289C198.15 295.213 198.967 295.432 199.539 295.947C200.111 296.462 200.432 297.22 200.504 298.22L200.515 298.38C200.587 299.38 200.376 300.176 199.884 300.767C199.392 301.358 198.613 301.692 197.55 301.768ZM220.965 337.243C218.454 337.422 216.243 337.313 214.332 336.915C212.42 336.496 210.824 336.012 209.544 335.462L208.723 330.708C210.334 331.406 212.087 331.986 213.981 332.449C215.896 332.911 218.034 333.057 220.396 332.888C222.801 332.716 224.582 332.203 225.74 331.351C226.898 330.498 227.423 329.316 227.315 327.805L227.29 327.454C227.22 326.475 226.928 325.683 226.414 325.078C225.921 324.472 225.062 323.967 223.835 323.563C222.608 323.159 220.882 322.79 218.655 322.458C215.996 322.071 213.884 321.548 212.319 320.89C210.752 320.211 209.597 319.321 208.855 318.219C208.135 317.115 207.715 315.734 207.596 314.074L207.575 313.787C207.38 311.063 208.18 308.931 209.973 307.391C211.766 305.851 214.567 304.945 218.376 304.672C220.823 304.497 222.96 304.622 224.787 305.047C226.636 305.471 228.159 305.982 229.356 306.581L230.148 310.92C228.707 310.21 227.074 309.653 225.249 309.249C223.423 308.845 221.393 308.723 219.159 308.883C217.542 308.999 216.245 309.263 215.269 309.675C214.292 310.066 213.602 310.586 213.2 311.235C212.795 311.863 212.624 312.602 212.685 313.453L212.703 313.709C212.77 314.645 213.051 315.427 213.545 316.054C214.037 316.661 214.875 317.168 216.06 317.575C217.263 317.959 218.913 318.301 221.009 318.6C223.707 318.941 225.86 319.429 227.466 320.062C229.094 320.694 230.29 321.561 231.053 322.661C231.815 323.74 232.26 325.173 232.388 326.961L232.426 327.503C232.637 330.44 231.774 332.726 229.838 334.362C227.901 335.997 224.944 336.958 220.965 337.243ZM260.2 333.728L258.813 314.353C258.692 312.672 258.355 311.242 257.8 310.063C257.266 308.882 256.454 307.999 255.364 307.414C254.294 306.806 252.865 306.566 251.078 306.694C249.44 306.811 248.047 307.221 246.899 307.924C245.752 308.626 244.844 309.536 244.175 310.653C243.526 311.748 243.101 312.976 242.899 314.338L241.487 310.749L242.828 310.653C243.046 309.226 243.54 307.908 244.309 306.698C245.076 305.466 246.148 304.459 247.525 303.676C248.922 302.87 250.652 302.394 252.717 302.246C255.185 302.069 257.208 302.395 258.786 303.223C260.385 304.049 261.599 305.321 262.427 307.037C263.255 308.731 263.76 310.855 263.942 313.409L265.371 333.358L260.2 333.728ZM239.357 335.22L236.329 292.928L241.468 292.56L242.195 302.71L242.675 311.659L242.896 312.06L244.528 334.85L239.357 335.22Z" fill="black"/>
<defs>
<filter id="filter0_d_550_276" x="0.00039053" y="0" width="460.709" height="428.14" filterUnits="userSpaceOnUse" color-interpolation-filters="sRGB">
<feFlood flood-opacity="0" result="BackgroundImageFix"/>
<feColorMatrix in="SourceAlpha" type="matrix" values="0 0 0 0 0 0 0 0 0 0 0 0 0 0 0 0 0 0 127 0" result="hardAlpha"/>
<feOffset dx="-8" dy="10"/>
<feGaussianBlur stdDeviation="2.95"/>
<feComposite in2="hardAlpha" operator="out"/>
<feColorMatrix type="matrix" values="0 0 0 0 0 0 0 0 0 0 0 0 0 0 0 0 0 0 0.25 0"/>
<feBlend mode="normal" in2="BackgroundImageFix" result="effect1_dropShadow_550_276"/>
<feBlend mode="normal" in="SourceGraphic" in2="effect1_dropShadow_550_276" result="shape"/>
</filter>
</defs>
</svg>
