<svg width="168" height="70" viewBox="0 0 168 70" fill="none" xmlns="http://www.w3.org/2000/svg">
<path d="M1.472 12.2H20.8V16.424L17.536 33.96L20.8 40.296V57H1.472V12.2ZM10.048 38.952V52.776H17.408L10.048 38.952ZM12.8 16.424H10.048V31.912H10.112L12.8 16.424ZM23.597 12.2H42.925V16.424L39.661 33.96L42.925 40.296V57H23.597V12.2ZM32.173 38.952V52.776H39.533L32.173 38.952ZM34.925 16.424H32.173V31.912H32.237L34.925 16.424ZM45.722 12.2H65.05V16.424L62.042 31.464H65.05V35.688H54.298V52.776H65.05V57H45.722V12.2ZM56.73 16.424H54.298V31.08L56.73 16.424ZM67.7845 12.2H87.1125V43.56H76.3605V57H67.7845V12.2ZM76.3605 39.336H78.5365V16.424H76.3605V39.336ZM90.423 12.2H98.999V33.512L102.327 12.2H110.711L106.935 33.512H109.751V57H101.175V35.688H101.111L97.847 57H89.463L93.239 35.688H90.423V12.2Z" fill="black"/>
<path d="M146.5 55C146.5 56.3807 147.619 57.5 149 57.5C150.381 57.5 151.5 56.3807 151.5 55L149 55L146.5 55ZM150.768 13.2322C149.791 12.2559 148.209 12.2559 147.232 13.2322L131.322 29.1421C130.346 30.1184 130.346 31.7014 131.322 32.6777C132.299 33.654 133.882 33.654 134.858 32.6777L149 18.5355L163.142 32.6777C164.118 33.654 165.701 33.654 166.678 32.6777C167.654 31.7014 167.654 30.1184 166.678 29.1421L150.768 13.2322ZM149 55L151.5 55L151.5 15L149 15L146.5 15L146.5 55L149 55Z" fill="black"/>
</svg>
