<svg width="246" height="227" viewBox="0 0 246 227" fill="none" xmlns="http://www.w3.org/2000/svg">
<g filter="url(#filter0_d_550_149)">
<path d="M245.715 22.9102L34.8064 -2.37029e-05L13.8994 192.466L225.345 210.428C225.345 210.428 226.15 153.018 230.122 116.345C234.093 79.6723 245.715 22.9102 245.715 22.9102Z" fill="#D5D5D5"/>
<path d="M35.2492 0.55102L14.4526 192.011L224.854 209.884C224.855 209.847 224.855 209.807 224.855 209.766C224.862 209.336 224.873 208.701 224.887 207.88C224.917 206.238 224.965 203.851 225.034 200.873C225.171 194.916 225.396 186.591 225.745 177.12C226.442 158.181 227.636 134.646 229.624 116.291C231.612 97.9359 235.514 74.5628 238.916 55.7862C240.617 46.3962 242.194 38.1521 243.346 32.2559C243.922 29.308 244.391 26.9468 244.717 25.3224C244.88 24.5104 245.007 23.8827 245.093 23.4576C245.101 23.4196 245.108 23.3828 245.115 23.348L35.2492 0.55102Z" stroke="white"/>
</g>
<path d="M66.3708 90.7702C66.7203 91.142 66.8705 91.5786 66.8215 92.0803C66.7888 92.4147 66.6771 92.6931 66.4866 92.9156C65.1574 94.4255 63.5492 95.5825 61.662 96.3867C59.7747 97.1909 57.7802 97.4902 55.6782 97.2847C53.9106 97.1119 52.2844 96.6032 50.7995 95.7588C49.317 94.8904 48.05 93.7899 46.9987 92.4573C45.9497 91.1008 45.1702 89.5777 44.6602 87.888C44.1502 86.1984 43.9851 84.434 44.1649 82.5947C44.3471 80.7316 44.8508 79.0326 45.676 77.4976C46.5036 75.9387 47.5622 74.6074 48.8517 73.5036C50.1436 72.376 51.5997 71.5417 53.22 71.0008C54.8403 70.4599 56.5342 70.2758 58.3018 70.4486C60.0933 70.6238 61.6417 71.0645 62.9472 71.7709C64.2766 72.4796 65.4285 73.4001 66.4029 74.5323C66.8363 75.0328 67.2172 75.5764 67.5456 76.1632C67.8741 76.7499 68.0068 77.3658 67.9438 78.0107C67.8854 78.6079 67.619 79.1123 67.1447 79.5241C66.6704 79.9359 66.1227 80.1115 65.5017 80.0508C64.8568 79.9877 64.3534 79.7094 63.9918 79.2159C63.6301 78.7223 63.4772 78.1889 63.5333 77.6157C63.5776 77.1618 63.7356 76.7794 64.0072 76.4683C64.1453 76.2889 64.1485 76.1325 64.0169 75.9991C63.3342 75.0883 62.4599 74.412 61.3938 73.9702C60.354 73.5068 59.2369 73.2168 58.0426 73.1C56.1078 72.9108 54.3413 73.2204 52.7431 74.0288C51.1449 74.8371 49.8244 76.0102 48.7819 77.548C47.7655 79.0643 47.1581 80.8376 46.9596 82.868C46.7611 84.8983 47.0255 86.7568 47.7528 88.4436C48.4801 90.1304 49.5507 91.5131 50.9644 92.5918C52.4044 93.6489 54.0679 94.2697 55.9549 94.4542C57.6747 94.6223 59.2886 94.3943 60.7964 93.77C62.3067 93.1219 63.5691 92.1722 64.5836 90.921C64.8837 90.5645 65.2488 90.4073 65.6787 90.4493C65.9654 90.4774 66.196 90.5843 66.3708 90.7702ZM103.056 81.0817C103.064 81.4924 102.897 81.8379 102.556 82.1181C102.239 82.4005 101.866 82.5208 101.436 82.4787C101.006 82.4367 100.663 82.2464 100.407 81.9079C100.15 81.5693 100.054 81.1982 100.118 80.7945L100.573 77.9815C100.594 77.7665 100.509 77.6497 100.318 77.631L94.6573 77.0775C94.4423 77.0565 94.3244 77.1535 94.3033 77.3685L92.2962 97.8986C92.2775 98.0897 92.3518 98.1934 92.519 98.2098C92.8295 98.2401 93.1412 98.2585 93.454 98.265C93.7931 98.2499 94.1071 98.2444 94.3961 98.2486C94.8068 98.2405 95.1415 98.3938 95.4001 98.7085C95.6587 99.0231 95.7682 99.3835 95.7285 99.7895C95.6911 100.172 95.5163 100.48 95.204 100.715C94.8893 100.974 94.5301 101.071 94.1264 101.007C93.4168 100.866 92.7897 100.744 92.245 100.643C91.6979 100.565 91.1736 100.502 90.672 100.453C90.1465 100.401 89.5959 100.36 89.0203 100.327C88.4663 100.321 87.8394 100.32 87.1397 100.324C86.7552 100.311 86.4217 100.146 86.1392 99.8287C85.8782 99.5379 85.7664 99.2014 85.8038 98.8192C85.8435 98.4132 86.0207 98.0808 86.3353 97.8222C86.6739 97.566 87.0319 97.4804 87.4094 97.5655C87.6698 97.6151 87.9541 97.667 88.2623 97.7213C88.5705 97.7755 88.8787 97.8297 89.1869 97.884L89.2585 97.891C89.4257 97.9073 89.5187 97.82 89.5374 97.6289L91.5445 77.0988C91.5655 76.8838 91.4685 76.7658 91.2536 76.7448L85.5567 76.1878C85.3656 76.1691 85.2596 76.2673 85.2386 76.4823L85.141 79.3303C85.149 79.741 84.9826 80.0865 84.6418 80.3666C84.3248 80.6491 83.9513 80.7693 83.5214 80.7273C83.0914 80.6853 82.7483 80.495 82.492 80.1564C82.2357 79.8179 82.1394 79.4468 82.203 79.043C82.3045 78.4983 82.4106 77.9058 82.5214 77.2656C82.6323 76.6253 82.7311 75.9839 82.8181 75.3413C82.9266 74.725 83.2037 74.2336 83.6495 73.8672C84.1191 73.5032 84.6525 73.3504 85.2497 73.4088L101.194 74.9675C101.791 75.0259 102.271 75.2899 102.635 75.7596C103.026 76.2077 103.204 76.7315 103.169 77.331C103.154 77.9805 103.138 78.6301 103.123 79.2797C103.108 79.9293 103.085 80.53 103.056 81.0817ZM139.971 102.704C140.382 102.696 140.716 102.849 140.975 103.164C141.257 103.481 141.379 103.843 141.339 104.249C141.299 104.655 141.111 104.974 140.775 105.206C140.461 105.465 140.101 105.562 139.698 105.499C138.35 105.222 137.258 105.043 136.422 104.962C135.515 104.873 134.409 104.837 133.105 104.854C132.697 104.839 132.363 104.673 132.105 104.359C131.844 104.068 131.733 103.719 131.773 103.313C131.812 102.907 131.99 102.575 132.304 102.316C132.619 102.058 132.977 101.972 133.378 102.06C133.639 102.109 133.899 102.159 134.159 102.208C134.444 102.26 134.728 102.312 135.012 102.364L135.084 102.371C135.323 102.395 135.394 102.281 135.298 102.03L133.809 97.6527C133.754 97.4785 133.643 97.3832 133.475 97.3669L120.863 96.1339C120.72 96.1199 120.593 96.1918 120.481 96.3496L118.172 100.356C118.143 100.401 118.126 100.46 118.119 100.532C118.107 100.651 118.173 100.718 118.316 100.732C118.603 100.76 118.89 100.776 119.179 100.78C119.495 100.763 119.785 100.755 120.05 100.757C120.461 100.749 120.795 100.902 121.054 101.217C121.312 101.531 121.422 101.892 121.382 102.298C121.342 102.704 121.166 103.024 120.854 103.259C120.539 103.517 120.18 103.615 119.777 103.551C118.405 103.273 117.313 103.093 116.501 103.014C115.57 102.923 114.464 102.887 113.184 102.907C112.776 102.891 112.43 102.725 112.148 102.408C111.887 102.117 111.776 101.768 111.816 101.362C111.855 100.956 112.033 100.624 112.347 100.365C112.686 100.109 113.056 100.025 113.457 100.112C113.88 100.226 114.319 100.305 114.772 100.349L114.844 100.356C114.963 100.368 115.078 100.307 115.188 100.173L127.923 77.9425C128.182 77.5096 128.563 77.3177 129.064 77.3668C129.542 77.4135 129.866 77.6743 130.037 78.1491L138.262 102.429C138.343 102.581 138.444 102.663 138.563 102.675C139.041 102.722 139.51 102.732 139.971 102.704ZM128.768 82.6189C128.758 82.4732 128.693 82.3945 128.574 82.3829C128.502 82.3759 128.424 82.4405 128.338 82.5768L122.229 93.2651C122.201 93.3106 122.184 93.3572 122.179 93.4049C122.163 93.5721 122.25 93.6651 122.441 93.6838L132.402 94.6576C132.688 94.6856 132.785 94.5624 132.691 94.288L128.768 82.6189ZM173.937 106.025C174.319 106.062 174.629 106.225 174.866 106.514C175.103 106.802 175.201 107.149 175.162 107.555C175.122 107.961 174.946 108.282 174.634 108.517C174.319 108.775 173.96 108.873 173.556 108.809C172.729 108.632 172.078 108.508 171.603 108.437C171.128 108.367 170.687 108.312 170.281 108.272C169.803 108.225 169.324 108.19 168.844 108.168C168.388 108.147 167.761 108.146 166.964 108.165C166.555 108.149 166.21 107.982 165.927 107.665C165.666 107.375 165.556 107.026 165.595 106.62C165.635 106.214 165.812 105.882 166.127 105.623C166.465 105.367 166.835 105.282 167.237 105.37C167.521 105.422 167.829 105.476 168.161 105.533C168.517 105.592 168.86 105.661 169.19 105.742C169.405 105.763 169.523 105.666 169.544 105.451L171.295 87.5362C171.309 87.3929 171.27 87.3046 171.177 87.2714C171.11 87.2166 171.021 87.2562 170.912 87.3902L156.076 105.943C155.585 106.522 154.97 106.775 154.229 106.703C153.776 106.658 153.397 106.464 153.093 106.121C152.791 105.754 152.663 105.332 152.71 104.854L154.857 82.8907C154.876 82.6996 154.802 82.5959 154.635 82.5795C154.396 82.5562 154.155 82.5567 153.911 82.5811C153.67 82.5817 153.442 82.5714 153.227 82.5504C152.845 82.513 152.535 82.3501 152.298 82.0617C152.063 81.7494 151.964 81.4021 152.002 81.02C152.042 80.6139 152.219 80.2816 152.533 80.023C152.872 79.7667 153.23 79.6811 153.607 79.7662C154.434 79.9435 155.085 80.0675 155.561 80.138C156.036 80.2086 156.477 80.2638 156.883 80.3035C157.36 80.3502 157.827 80.3838 158.284 80.4043C158.764 80.4271 159.402 80.4292 160.2 80.4108C160.611 80.4027 160.945 80.556 161.204 80.8706C161.487 81.1876 161.608 81.5492 161.568 81.9552C161.529 82.3613 161.339 82.6925 161.001 82.9487C160.689 83.1835 160.331 83.269 159.927 83.2054C159.645 83.1296 159.326 83.0623 158.97 83.0034C158.638 82.9468 158.306 82.8902 157.974 82.8336C157.759 82.8126 157.641 82.9096 157.62 83.1246L155.823 101.505C155.809 101.648 155.835 101.747 155.902 101.802C155.995 101.835 156.097 101.785 156.206 101.651L170.527 83.5545C170.939 83.0402 171.447 82.6558 172.051 82.4013C172.678 82.1492 173.327 82.0438 173.999 82.0853C174.338 82.0703 174.665 82.054 174.98 82.0366C175.319 82.0215 175.646 82.0053 175.961 81.9879C176.422 81.9606 176.805 82.1185 177.109 82.4617C177.415 82.7811 177.546 83.1677 177.502 83.6215C177.46 84.0514 177.28 84.4077 176.963 84.6902C176.648 84.9488 176.288 85.0582 175.882 85.0185C175.691 84.9998 175.49 84.9561 175.28 84.8873C175.096 84.797 174.909 84.7305 174.721 84.688L174.649 84.6809C174.458 84.6623 174.352 84.7604 174.331 84.9754L172.306 105.685C172.288 105.876 172.374 105.981 172.565 105.999C172.828 106.025 173.068 106.036 173.285 106.034C173.505 106.007 173.722 106.004 173.937 106.025ZM209.41 88.0071C209.128 87.9313 208.833 87.8662 208.525 87.812C208.217 87.7578 207.897 87.7023 207.565 87.6458L207.493 87.6388C207.326 87.6224 207.233 87.7098 207.214 87.9009L205.162 108.897C205.143 109.088 205.217 109.192 205.384 109.208C205.886 109.257 206.355 109.267 206.792 109.237C207.203 109.229 207.538 109.382 207.796 109.697C208.055 110.012 208.164 110.372 208.125 110.778C208.085 111.184 207.909 111.504 207.597 111.739C207.282 111.998 206.923 112.095 206.519 112.032C206.046 111.937 205.537 111.839 204.992 111.738C204.448 111.636 203.925 111.561 203.423 111.512C202.874 111.458 202.347 111.419 201.843 111.394C201.363 111.371 200.712 111.368 199.891 111.384C199.506 111.37 199.173 111.205 198.89 110.888C198.629 110.597 198.519 110.249 198.558 109.843C198.598 109.437 198.775 109.104 199.09 108.846C199.428 108.589 199.786 108.504 200.164 108.589C200.472 108.643 200.791 108.711 201.121 108.791C201.477 108.85 201.833 108.909 202.189 108.968C202.404 108.989 202.522 108.892 202.543 108.677L204.55 88.1468C204.571 87.9318 204.474 87.8138 204.259 87.7928L196.591 87.0432C196.376 87.0222 196.258 87.1191 196.237 87.3341C196.015 89.6033 195.774 91.8224 195.514 93.9913C195.256 96.1364 194.942 98.1192 194.571 99.9398C194.226 101.739 193.812 103.266 193.327 104.521C192.586 106.425 191.638 107.864 190.482 108.836C189.328 109.784 188.082 110.193 186.745 110.062C185.551 109.946 184.74 109.601 184.314 109.029C183.911 108.459 183.74 107.864 183.801 107.243C183.848 106.765 184.055 106.375 184.422 106.073C184.791 105.748 185.215 105.608 185.693 105.655C186.099 105.695 186.456 105.862 186.765 106.158C187.076 106.429 187.224 106.769 187.208 107.178C187.182 107.44 187.267 107.557 187.463 107.528C188.048 107.465 188.581 107.191 189.062 106.708C189.567 106.227 190.089 105.458 190.626 104.401C191.337 103.048 191.881 101.184 192.258 98.8094C192.637 96.4109 193.003 93.4082 193.356 89.8014L193.667 86.6126C193.688 86.3976 193.615 86.282 193.448 86.2656C193.114 86.2329 192.777 86.2241 192.438 86.2392C192.125 86.2327 191.811 86.2382 191.496 86.2556C191.109 86.266 190.773 86.1247 190.488 85.8316C190.23 85.5169 190.12 85.1566 190.16 84.7505C190.2 84.3444 190.376 84.024 190.688 83.7893C191.026 83.533 191.384 83.4475 191.762 83.5326C192.233 83.651 192.739 83.7728 193.282 83.8982C193.826 83.9997 194.361 84.0761 194.887 84.1275L206.531 85.2659C207.033 85.315 207.561 85.3425 208.115 85.3484C208.671 85.3304 209.192 85.309 209.677 85.284C210.087 85.276 210.422 85.4293 210.681 85.7439C210.942 86.0347 211.052 86.3831 211.012 86.7892C210.973 87.1952 210.796 87.5276 210.481 87.7862C210.169 88.0209 209.812 88.0945 209.41 88.0071ZM227.943 101.936L221.386 101.295C220.932 101.251 220.612 101.075 220.425 100.767C220.238 100.46 220.161 100.139 220.194 99.8043C220.226 99.4699 220.364 99.1699 220.607 98.9042C220.85 98.6386 221.199 98.528 221.652 98.5724L228.209 99.2134C228.663 99.2578 228.983 99.4338 229.17 99.7414C229.381 100.051 229.47 100.374 229.438 100.708C229.405 101.042 229.255 101.341 228.988 101.605C228.745 101.87 228.397 101.981 227.943 101.936ZM61.2527 129.062C61.2607 129.473 61.0943 129.818 60.7534 130.098C60.4126 130.378 60.0391 130.499 59.633 130.459C59.2031 130.417 58.8469 130.237 58.5644 129.92C58.3081 129.582 58.2129 129.199 58.2788 128.771L58.7137 126.173C58.7347 125.958 58.6497 125.841 58.4586 125.823L49.2147 124.919C48.9997 124.898 48.8817 124.995 48.8607 125.21L46.857 145.704C46.836 145.919 46.933 146.037 47.148 146.058C47.5348 146.048 47.9086 146.048 48.2692 146.059C48.6537 146.073 49.0012 146.095 49.3117 146.125C49.67 146.16 49.9546 146.333 50.1654 146.642C50.4025 146.931 50.5035 147.254 50.4685 147.613C50.4288 148.019 50.2528 148.339 49.9404 148.574C49.6258 148.832 49.2666 148.93 48.8629 148.866C48.0362 148.689 47.3732 148.564 46.8739 148.491C46.3986 148.42 45.9578 148.365 45.5518 148.326C45.0979 148.281 44.631 148.248 44.1509 148.225C43.6924 148.228 43.0536 148.226 42.2345 148.218C41.85 148.205 41.5164 148.04 41.234 147.723C40.973 147.432 40.8624 147.083 40.9021 146.677C40.9418 146.271 41.1178 145.951 41.4301 145.716C41.7687 145.46 42.1267 145.374 42.5042 145.459L43.7154 145.65C43.9303 145.671 44.0472 145.586 44.0659 145.395L46.08 124.793C46.0987 124.602 46.0244 124.498 45.8572 124.482C45.6184 124.459 45.3891 124.461 45.1695 124.487C44.976 124.492 44.7718 124.485 44.5569 124.464C44.1508 124.424 43.8185 124.247 43.5598 123.932C43.3036 123.593 43.1953 123.221 43.235 122.815C43.2817 122.337 43.4743 121.97 43.8129 121.714C44.1776 121.436 44.5846 121.343 45.0337 121.436C45.5546 121.535 46.0981 121.648 46.6644 121.776C47.2569 121.882 47.8505 121.976 48.4453 122.058L59.3732 123.127C59.9704 123.185 60.451 123.449 60.815 123.919C61.2053 124.367 61.3831 124.891 61.3486 125.49C61.3357 126.116 61.3227 126.742 61.3098 127.367C61.2992 127.969 61.2801 128.534 61.2527 129.062ZM99.082 150.955C99.4927 150.947 99.8274 151.1 100.086 151.414C100.368 151.731 100.49 152.093 100.45 152.499C100.41 152.905 100.223 153.224 99.8863 153.457C99.5717 153.715 99.2125 153.813 98.8087 153.749C97.4612 153.473 96.3695 153.294 95.5335 153.212C94.6258 153.123 93.52 153.088 92.2162 153.105C91.8078 153.089 91.4743 152.924 91.2157 152.609C90.9547 152.318 90.8441 151.97 90.8838 151.564C90.9235 151.158 91.1007 150.825 91.4153 150.567C91.73 150.308 92.088 150.223 92.4894 150.31C92.7498 150.36 93.0102 150.409 93.2706 150.459C93.5549 150.511 93.8392 150.563 94.1235 150.615L94.1952 150.622C94.434 150.645 94.5054 150.531 94.4094 150.281L92.9202 145.903C92.8649 145.729 92.7537 145.634 92.5865 145.617L79.9746 144.384C79.8313 144.37 79.7037 144.442 79.5918 144.6L77.283 148.606C77.2545 148.652 77.2367 148.71 77.2297 148.782C77.218 148.901 77.2838 148.968 77.4271 148.982C77.7138 149.01 78.0016 149.026 78.2905 149.03C78.6057 149.013 78.8959 149.005 79.1609 149.007C79.5717 148.999 79.9063 149.152 80.165 149.467C80.4236 149.782 80.533 150.142 80.4933 150.548C80.4536 150.954 80.2776 151.274 79.9653 151.509C79.6506 151.768 79.2914 151.865 78.8877 151.802C77.5163 151.523 76.4246 151.344 75.6124 151.264C74.6809 151.173 73.5751 151.138 72.2951 151.157C71.8867 151.141 71.5413 150.975 71.2588 150.658C70.9979 150.367 70.8872 150.019 70.9269 149.613C70.9666 149.207 71.1438 148.874 71.4585 148.616C71.797 148.359 72.167 148.275 72.5684 148.363C72.9913 148.476 73.4297 148.555 73.8835 148.6L73.9552 148.607C74.0746 148.618 74.1891 148.557 74.2987 148.423L87.0342 126.193C87.2935 125.76 87.674 125.568 88.1756 125.617C88.6533 125.664 88.9775 125.925 89.1481 126.4L97.3727 150.679C97.4542 150.832 97.5547 150.914 97.6741 150.925C98.1518 150.972 98.6211 150.982 99.082 150.955ZM87.8791 130.869C87.8693 130.724 87.8046 130.645 87.6852 130.633C87.6135 130.626 87.5349 130.691 87.4492 130.827L81.3402 141.516C81.3117 141.561 81.295 141.608 81.2904 141.655C81.274 141.823 81.3614 141.915 81.5525 141.934L91.513 142.908C91.7996 142.936 91.8961 142.813 91.8023 142.538L87.8791 130.869ZM124.148 127.651C122.739 127.513 121.628 127.043 120.814 126.24C120.024 125.439 119.672 124.597 119.759 123.713C119.782 123.474 119.84 123.251 119.933 123.043C119.933 123.043 119.99 122.952 120.104 122.77C120.218 122.589 120.392 122.413 120.626 122.243C120.86 122.073 121.167 122.006 121.55 122.044C121.956 122.083 122.288 122.26 122.547 122.575C122.808 122.866 122.919 123.202 122.882 123.585C122.828 124.134 122.563 124.506 122.086 124.7C121.859 124.799 121.785 124.936 121.865 125.113C122.004 125.416 122.289 125.709 122.719 125.992C123.152 126.251 123.667 126.41 124.264 126.469C124.957 126.536 125.529 126.484 125.979 126.311C126.433 126.114 126.745 125.879 126.916 125.607C126.919 125.583 126.92 125.571 126.92 125.571C126.946 125.549 126.96 125.527 126.963 125.503C126.972 125.407 126.91 125.305 126.776 125.195C126.326 124.862 126.127 124.432 126.178 123.907C126.216 123.525 126.391 123.216 126.703 122.981C127.018 122.723 127.378 122.613 127.784 122.653C128.166 122.69 128.455 122.815 128.652 123.027C128.848 123.239 128.985 123.446 129.061 123.646C129.138 123.847 129.177 123.947 129.177 123.947C129.225 124.193 129.237 124.435 129.214 124.674C129.128 125.558 128.62 126.316 127.69 126.948C126.762 127.557 125.582 127.791 124.148 127.651ZM133.048 154.275C133.43 154.313 133.74 154.476 133.977 154.764C134.214 155.052 134.313 155.4 134.273 155.806C134.233 156.212 134.057 156.532 133.745 156.767C133.43 157.026 133.071 157.123 132.667 157.059C131.982 156.92 131.378 156.801 130.858 156.702C130.358 156.629 129.87 156.569 129.392 156.522C128.914 156.476 128.412 156.438 127.884 156.411C127.377 156.41 126.774 156.411 126.075 156.415C125.666 156.399 125.321 156.233 125.038 155.916C124.777 155.625 124.667 155.277 124.707 154.871C124.746 154.464 124.923 154.132 125.238 153.874C125.577 153.617 125.947 153.533 126.348 153.62C126.632 153.672 126.94 153.726 127.273 153.783C127.628 153.842 127.971 153.912 128.301 153.992C128.516 154.013 128.634 153.916 128.655 153.701L130.406 135.787C130.42 135.643 130.381 135.555 130.288 135.522C130.221 135.467 130.132 135.507 130.023 135.641L115.187 154.193C114.697 154.772 114.081 155.025 113.341 154.953C112.887 154.909 112.508 154.715 112.204 154.372C111.902 154.005 111.775 153.582 111.821 153.104L113.968 131.141C113.987 130.95 113.913 130.846 113.746 130.83C113.507 130.807 113.266 130.807 113.022 130.832C112.781 130.832 112.553 130.822 112.338 130.801C111.956 130.763 111.646 130.601 111.409 130.312C111.174 130 111.076 129.653 111.113 129.27C111.153 128.864 111.33 128.532 111.644 128.273C111.983 128.017 112.341 127.932 112.719 128.017C113.404 128.156 114.008 128.275 114.528 128.374C115.052 128.45 115.54 128.51 115.994 128.554C116.472 128.601 116.974 128.638 117.502 128.665C118.032 128.669 118.635 128.667 119.311 128.661C119.722 128.653 120.057 128.806 120.315 129.121C120.598 129.438 120.719 129.8 120.679 130.206C120.64 130.612 120.451 130.943 120.112 131.199C119.8 131.434 119.442 131.519 119.038 131.456C118.756 131.38 118.437 131.313 118.081 131.254C117.749 131.197 117.417 131.141 117.085 131.084C116.87 131.063 116.752 131.16 116.731 131.375L114.934 149.755C114.92 149.899 114.946 149.998 115.013 150.052C115.107 150.086 115.208 150.035 115.317 149.901L129.638 131.805C130.05 131.291 130.558 130.906 131.162 130.652C131.789 130.4 132.439 130.294 133.11 130.336C133.449 130.321 133.776 130.304 134.091 130.287C134.43 130.272 134.757 130.256 135.072 130.238C135.533 130.211 135.916 130.369 136.22 130.712C136.526 131.031 136.657 131.418 136.613 131.872C136.571 132.302 136.391 132.658 136.074 132.941C135.76 133.199 135.399 133.309 134.993 133.269C134.802 133.25 134.601 133.207 134.391 133.138C134.207 133.047 134.021 132.981 133.832 132.938L133.76 132.931C133.569 132.913 133.463 133.011 133.442 133.226L131.417 153.935C131.399 154.126 131.485 154.231 131.676 154.25C131.939 154.275 132.179 154.287 132.396 154.284C132.616 154.257 132.833 154.254 133.048 154.275ZM167.961 159.75L167.898 162.24C167.909 162.627 167.757 162.95 167.442 163.208C167.151 163.469 166.803 163.58 166.397 163.54C166.015 163.503 165.694 163.327 165.436 163.012C165.201 162.7 165.114 162.354 165.175 161.974L165.487 160.268C165.508 160.053 165.423 159.936 165.232 159.918L146.923 158.128C146.732 158.109 146.626 158.207 146.605 158.422L146.544 160.152C146.555 160.539 146.402 160.862 146.088 161.121C145.797 161.382 145.449 161.492 145.043 161.452C144.66 161.415 144.34 161.239 144.081 160.924C143.847 160.612 143.76 160.266 143.821 159.886L144.242 157.432C144.351 156.815 144.64 156.325 145.109 155.961C145.579 155.597 146.112 155.444 146.709 155.502L147.319 155.562C147.462 155.576 147.598 155.541 147.727 155.457C148.351 154.988 148.889 154.293 149.341 153.372C149.819 152.43 150.244 151.17 150.615 149.59C151.011 148.013 151.374 146.023 151.705 143.62C152.061 141.219 152.418 138.3 152.778 134.863C152.8 134.648 152.726 134.532 152.559 134.516C152.225 134.483 151.888 134.475 151.549 134.49C151.236 134.483 150.922 134.489 150.607 134.506C150.22 134.516 149.884 134.375 149.599 134.082C149.341 133.767 149.231 133.407 149.271 133.001C149.311 132.595 149.487 132.274 149.799 132.04C150.138 131.783 150.496 131.698 150.873 131.783C151.344 131.901 151.85 132.023 152.393 132.149C152.937 132.25 153.473 132.327 153.998 132.378L165.643 133.516C166.144 133.565 166.672 133.593 167.226 133.599C167.782 133.581 168.303 133.559 168.788 133.534C169.198 133.526 169.533 133.68 169.792 133.994C170.053 134.285 170.163 134.634 170.124 135.04C170.084 135.446 169.907 135.778 169.592 136.037C169.28 136.271 168.923 136.345 168.522 136.257C168.24 136.182 167.944 136.117 167.636 136.062C167.328 136.008 167.008 135.953 166.676 135.896L166.604 135.889C166.437 135.873 166.344 135.96 166.325 136.151L164.297 156.896C164.276 157.111 164.373 157.229 164.588 157.25L165.95 157.383C166.547 157.442 167.041 157.695 167.431 158.143C167.821 158.591 167.998 159.127 167.961 159.75ZM152.465 151.761C151.931 153.276 151.208 154.507 150.295 155.455C150.243 155.498 150.212 155.568 150.202 155.663C150.191 155.782 150.268 155.85 150.436 155.867L161.328 156.932C161.543 156.953 161.661 156.856 161.682 156.641L163.664 136.361C163.685 136.146 163.588 136.028 163.373 136.007L155.706 135.258C155.491 135.237 155.358 135.489 155.306 136.014C155.012 138.783 154.708 141.153 154.394 143.123C154.107 145.073 153.811 146.744 153.506 148.137C153.201 149.53 152.854 150.738 152.465 151.761Z" fill="black"/>
<defs>
<filter id="filter0_d_550_149" x="0.00039053" y="0" width="245.714" height="226.328" filterUnits="userSpaceOnUse" color-interpolation-filters="sRGB">
<feFlood flood-opacity="0" result="BackgroundImageFix"/>
<feColorMatrix in="SourceAlpha" type="matrix" values="0 0 0 0 0 0 0 0 0 0 0 0 0 0 0 0 0 0 127 0" result="hardAlpha"/>
<feOffset dx="-8" dy="10"/>
<feGaussianBlur stdDeviation="2.95"/>
<feComposite in2="hardAlpha" operator="out"/>
<feColorMatrix type="matrix" values="0 0 0 0 0 0 0 0 0 0 0 0 0 0 0 0 0 0 0.25 0"/>
<feBlend mode="normal" in2="BackgroundImageFix" result="effect1_dropShadow_550_149"/>
<feBlend mode="normal" in="SourceGraphic" in2="effect1_dropShadow_550_149" result="shape"/>
</filter>
</defs>
</svg>
