<svg width="225" height="210" viewBox="0 0 225 210" fill="none" xmlns="http://www.w3.org/2000/svg">
<g filter="url(#filter0_d_549_267)">
<path d="M224.563 33.2351L44.2286 -5.98011e-08L13.8996 164.566L195.014 193.57C195.014 193.57 199.379 144.135 205.147 112.777C210.916 81.42 224.563 33.2351 224.563 33.2351Z" fill="#D5D5D5"/>
<path d="M44.6295 0.582313L14.484 164.153L194.564 192.991C194.565 192.981 194.565 192.972 194.566 192.962C194.6 192.592 194.65 192.045 194.716 191.338C194.846 189.925 195.039 187.87 195.289 185.307C195.788 180.181 196.514 173.019 197.421 164.878C199.233 148.597 201.768 128.384 204.656 112.687C207.544 96.9898 212.401 77.0896 216.534 61.1216C218.602 53.1361 220.489 46.1305 221.859 41.1216C222.544 38.6174 223.1 36.6122 223.484 35.2327C223.677 34.543 223.826 34.009 223.927 33.6481C223.929 33.6411 223.931 33.6342 223.933 33.6273L44.6295 0.582313Z" stroke="white"/>
</g>
<defs>
<filter id="filter0_d_549_267" x="-0.000586033" y="0" width="224.564" height="209.47" filterUnits="userSpaceOnUse" color-interpolation-filters="sRGB">
<feFlood flood-opacity="0" result="BackgroundImageFix"/>
<feColorMatrix in="SourceAlpha" type="matrix" values="0 0 0 0 0 0 0 0 0 0 0 0 0 0 0 0 0 0 127 0" result="hardAlpha"/>
<feOffset dx="-8" dy="10"/>
<feGaussianBlur stdDeviation="2.95"/>
<feComposite in2="hardAlpha" operator="out"/>
<feColorMatrix type="matrix" values="0 0 0 0 0 0 0 0 0 0 0 0 0 0 0 0 0 0 0.25 0"/>
<feBlend mode="normal" in2="BackgroundImageFix" result="effect1_dropShadow_549_267"/>
<feBlend mode="normal" in="SourceGraphic" in2="effect1_dropShadow_549_267" result="shape"/>
</filter>
</defs>
</svg>
